<?xml version="1.0" encoding="UTF-8"?>
<svg width="80px" height="80px" viewBox="0 0 80 80" version="1.1" xmlns="http://www.w3.org/2000/svg" xmlns:xlink="http://www.w3.org/1999/xlink">
    <title>6E573E31-6A26-44AC-91FF-8A84DDEC4AF9</title>
    <defs>
        <circle id="path-1" cx="40" cy="40" r="40"></circle>
    </defs>
    <g id="Page-1" stroke="none" stroke-width="1" fill="none" fill-rule="evenodd">
        <g id="27.0.0-Product-design" transform="translate(-1080.000000, -5669.000000)">
            <g id="Group-21" transform="translate(420.000000, 5655.000000)">
                <g id="02.34791685" transform="translate(660.000000, 14.000000)">
                    <mask id="mask-2" fill="white">
                        <use xlink:href="#path-1"></use>
                    </mask>
                    <use id="Mask" fill="#FF5E44" fill-rule="nonzero" xlink:href="#path-1"></use>
                    <g mask="url(#mask-2)" stroke="#191919" stroke-width="1.2">
                        <g transform="translate(4.000000, 17.000000)">
                            <rect id="Rectangle" fill="#FFFFFF" fill-rule="nonzero" x="0" y="1" width="71" height="50"></rect>
                            <rect id="Rectangle" fill="#FF5E44" fill-rule="nonzero" x="0" y="5" width="71" height="32"></rect>
                            <rect id="Rectangle" fill="#FFFFFF" fill-rule="nonzero" x="14" y="12" width="44" height="39"></rect>
                            <rect id="Rectangle" fill="#FFFFFF" fill-rule="nonzero" x="21" y="27" width="8" height="2"></rect>
                            <line x1="21" y1="21" x2="29" y2="21" id="Path" fill="none"></line>
                            <line x1="43" y1="16" x2="55" y2="16" id="Path" fill="none"></line>
                            <line x1="20" y1="36" x2="51" y2="36" id="Path" fill="none"></line>
                            <line x1="17" y1="16" x2="19" y2="16" id="Path" fill="none"></line>
                            <line x1="21" y1="23" x2="29" y2="23" id="Path" fill="none"></line>
                            <line x1="40" y1="42" x2="48" y2="42" id="Path" fill="none"></line>
                            <line x1="40" y1="44" x2="48" y2="44" id="Path" fill="none"></line>
                            <rect id="Rectangle" fill="#FFFFFF" fill-rule="nonzero" x="0" y="0" width="71" height="5"></rect>
                            <rect id="Rectangle" fill="#FF5E44" fill-rule="nonzero" x="34" y="19" width="17" height="12"></rect>
                            <rect id="Rectangle" fill="#FF5E44" fill-rule="nonzero" x="21" y="42" width="13" height="9"></rect>
                            <circle id="Oval" fill="#FFFFFF" fill-rule="nonzero" cx="2.5" cy="2.5" r="1"></circle>
                            <circle id="Oval" fill="#FFFFFF" fill-rule="nonzero" cx="5.5" cy="2.5" r="1"></circle>
                            <circle id="Oval" fill="#FFFFFF" fill-rule="nonzero" cx="8.5" cy="2.5" r="1"></circle>
                        </g>
                    </g>
                </g>
            </g>
        </g>
    </g>
</svg>