<svg width="81px" height="80px" viewBox="0 0 81 80" version="1.1" xmlns="http://www.w3.org/2000/svg" xmlns:xlink="http://www.w3.org/1999/xlink">
  <g stroke="none" stroke-width="1" fill="none" fill-rule="evenodd">
    <g transform="translate(-115.000000, -6454.000000)">
      <g transform="translate(-43.000000, 6440.000000)">
        <g transform="translate(159.000000, 14.000000)">
          <circle class="product-design__process-nav__item-icon__background" fill="#FFB040" fill-rule="nonzero" cx="40" cy="40" r="40"></circle>
          <path d="M-0.578941116,41.0519796 L9.63212051,41.0430077 C9.75319945,41.0429013 9.85143957,41.1409689 9.85154595,41.2620479 C9.85154607,41.2621763 9.85154607,41.2623047 9.85154595,41.2624331 C9.85143936,41.3837873 9.75308893,41.4821378 9.6317347,41.4822444 L-0.579326929,41.4912163 C-0.700405871,41.4913227 -0.798645989,41.393255 -0.798752374,41.2721761 C-0.798752487,41.2720477 -0.798752487,41.2719193 -0.798752374,41.2717909 C-0.79864578,41.1504367 -0.700295351,41.0520862 -0.578941116,41.0519796 Z" stroke="#191919" transform="translate(4.526397, 41.267112) rotate(-40.000000) translate(-4.526397, -41.267112) "></path>
          <path d="M8.53169248,13.8108416 L18.7427541,13.8018697 C18.863833,13.8017633 18.9620732,13.899831 18.9621795,14.0209099 C18.9621797,14.0210383 18.9621797,14.0211667 18.9621795,14.0212951 C18.962073,14.1426493 18.8637225,14.2409998 18.7423683,14.2411064 L8.53130666,14.2500783 C8.41022772,14.2501847 8.3119876,14.1521171 8.31188122,14.0310381 C8.31188111,14.0309097 8.31188111,14.0307813 8.31188122,14.0306529 C8.31198781,13.9092987 8.41033824,13.8109482 8.53169248,13.8108416 Z"  stroke="#191919" transform="translate(13.637030, 14.025974) rotate(-40.000000) translate(-13.637030, -14.025974) "></path>
          <polygon stroke="#191919" stroke-width="1.2" fill="#FFFFFF" fill-rule="nonzero" points="66 63.9514444 64.0100556 62 62.4222222 63.5998889 60.8779444 62.0855556 59.0435556 63.9343333 60.5878333 65.4486667 59 67.0485556 60.9899444 69 62.5777778 67.4001111 64.1236111 68.916 65.9583889 67.0672222 64.4121667 65.5513333"></polygon>
          <circle stroke="#191919" stroke-width="1.2" fill="#FFFFFF" fill-rule="nonzero" cx="7" cy="30" r="2"></circle>
          <circle stroke="#191919" stroke-width="1.2" fill="#FFFFFF" fill-rule="nonzero" cx="57" cy="10" r="2"></circle>
          <path class="product-design__process-nav__item-path" d="M54,54.013613 C52.097006,56.9305094 49.5036256,59.2877791 46.469297,60.8568931 C43.4354006,62.4264569 40.0638763,63.1547812 36.6805502,62.9725877 C33.2970512,62.7899443 30.0159213,61.7021812 27.1542541,59.8150158 C24.2925437,57.9278504 21.9469588,55.3042631 20.3441122,52.1979754 C18.7412224,49.0916877 17.9352816,45.6079668 18.0040608,42.0830837 C18.0728401,38.5581557 19.0140915,35.1112335 20.7368155,32.0753489 C22.4595395,29.0394643 24.9055481,26.5172757 27.8385019,24.7523374 C30.7714989,22.9873991 34.0923142,22.0394528 37.4801362,22 L37.7004374,42.4992948 L54,54.013613 Z" stroke="#191919" stroke-width="1.2" stroke-linecap="round" stroke-dasharray="4" fill-rule="nonzero"></path>
          <path class="path" d="M43,17 C47.1757168,17 51.2722013,18.1088004 54.8510055,20.2074115 C58.4293646,22.3060227 61.3547255,25.3153339 63.3132751,28.9125584 C65.2718247,32.5097829 66.1892271,36.5591853 65.9675549,40.6264555 C65.7458827,44.6935963 64.3935933,48.6253901 62.054907,52 L43,39.4354371 L43,17 Z" stroke="#191919" stroke-width="1.2" fill="#FFFFFF" fill-rule="nonzero"></path>
          <polygon fill="#191919" fill-rule="nonzero" points="48 33.2816697 48 32.7182888 48.7003231 32.7182888 48.7003231 32 49.2996769 32 49.2996769 32.7182888 50 32.7182888 50 33.2816697 49.2996769 33.2816697 49.2996769 34 48.7003231 34 48.7003231 33.2816697"></polygon>
          <path d="M50,32.9540929 L50.6653485,32.9540929 C50.6702916,33.0745991 50.7042346,33.1707456 50.7668479,33.2424565 C50.8268248,33.3170936 50.9121766,33.3543741 51.0225737,33.3543741 C51.1253913,33.3543741 51.2104136,33.3127613 51.2782996,33.2295736 C51.3283902,33.1635631 51.3534355,33.0846698 51.3534355,32.9928175 C51.3534355,32.8866763 51.3208107,32.8020065 51.255561,32.7388842 C51.1978909,32.6843505 51.1178118,32.6571027 51.0149942,32.6571027 C50.9724831,32.6571027 50.9359038,32.6628411 50.9059153,32.6743179 L50.9059153,32.1707456 C51.0163124,32.1879608 51.1052892,32.1635631 51.1728456,32.0975526 C51.2278794,32.0430569 51.255561,31.9756023 51.255561,31.8952649 C51.255561,31.809189 51.2331521,31.7403283 51.1880046,31.6886828 C51.1428571,31.6370373 51.0812325,31.6111956 51.0037898,31.6111956 C50.9260175,31.6111956 50.865711,31.6355932 50.8231999,31.6843505 C50.7655297,31.7446226 50.7368594,31.8292924 50.7368594,31.9383218 L50.1314879,31.9383218 C50.1440105,31.6714677 50.2254078,31.4519267 50.3756797,31.279775 C50.5312243,31.0932583 50.7516889,31 51.0374032,31 C51.3033449,31 51.5112869,31.0846698 51.6615587,31.2539333 C51.7970012,31.4089078 51.8645576,31.5939804 51.8645576,31.809189 C51.8645576,31.941172 51.8395123,32.058828 51.7894217,32.162119 C51.7419674,32.2625599 51.6780359,32.3357148 51.5976273,32.381622 C51.720547,32.4333055 51.8194101,32.5208254 51.8948756,32.6441818 C51.9650684,32.7618378 52,32.9024474 52,33.0660105 C52,33.3156495 51.9261822,33.5251197 51.7782172,33.6944212 C51.6002636,33.8981531 51.3507991,34 51.0301532,34 C50.7368594,34 50.4972813,33.9010033 50.3117482,33.7030098 C50.1288515,33.5107547 50.0250453,33.2611158 50,32.9540929 Z" fill="#191919" fill-rule="nonzero"></path>
          <path d="M53.780858,31.7575435 C53.6995509,31.6972714 53.6061639,31.6671354 53.4997677,31.6671354 C53.3938361,31.6671354 53.3004491,31.6972714 53.219142,31.7575435 C53.1271488,31.8206658 53.0528109,31.926845 52.9965928,32.0760432 C52.9399102,32.2223911 52.9115688,32.3658509 52.9115688,32.5064604 C52.9115688,32.6355932 52.9380517,32.7762028 52.9910175,32.9282511 C53.0477002,33.0774873 53.1234319,33.1865167 53.219142,33.2553774 C53.3004491,33.3156495 53.3938361,33.3457855 53.4997677,33.3457855 C53.6061639,33.3457855 53.6995509,33.3156495 53.780858,33.2553774 C53.8728512,33.1893669 53.9471891,33.0832257 54.0034072,32.9368777 C54.0600898,32.7876796 54.0884312,32.6456259 54.0884312,32.5107547 C54.0884312,32.3758836 54.0582314,32.2324238 53.9982964,32.0803375 C53.9416138,31.9282511 53.8691343,31.8206658 53.780858,31.7575435 Z M55,32.5021661 C55,33.0042943 54.8253059,33.3945428 54.475453,33.6728738 C54.2031903,33.8909706 53.8779619,34 53.4997677,34 C53.1220381,34 52.7968097,33.8909706 52.524547,33.6728738 C52.1746941,33.3945428 52,33.0042943 52,32.5021661 C52,31.9971498 52.1746941,31.6054572 52.524547,31.3271262 C52.7968097,31.1090294 53.1220381,31 53.4997677,31 C53.8779619,31 54.2031903,31.1090294 54.475453,31.3271262 C54.8253059,31.6054572 55,31.9971498 55,32.5021661 Z" fill="#191919" fill-rule="nonzero"></path>
          <path d="M55.8733347,32.4384216 C55.5903997,32.4384216 55.3666737,32.3607058 55.2025798,32.2052743 C55.0676676,32.07334 55,31.9149567 55,31.7302021 C55,31.5278537 55.0659759,31.3621687 55.1979277,31.2331473 C55.348911,31.0777158 55.5743286,31 55.8733347,31 C56.165997,31 56.3943751,31.0777158 56.558469,31.2331473 C56.6933813,31.3621687 56.7610488,31.5234649 56.7610488,31.7170358 C56.7610488,31.9105679 56.6921125,32.07334 56.5538169,32.2052743 C56.389723,32.3607058 56.1626137,32.4384216 55.8733347,32.4384216 Z M55.8589554,33.9648123 L57.7210827,31.0307989 L58.1410446,31.0307989 L56.2738422,33.9648123 L55.8589554,33.9648123 Z M55.883062,31.387103 C55.7735251,31.387103 55.6851343,31.4208148 55.6174667,31.4882773 C55.5531825,31.552788 55.5210404,31.6290279 55.5210404,31.7170358 C55.5210404,31.8167342 55.5629097,31.9003146 55.6466483,31.9677382 C55.7109325,32.0205197 55.7895961,32.0469298 55.883062,32.0469298 C55.9794883,32.0469298 56.0644957,32.0161309 56.1385071,31.9545719 C56.209558,31.8900224 56.2446606,31.8108696 56.2446606,31.7170358 C56.2446606,31.6202504 56.2061747,31.5381459 56.1292028,31.4706834 C56.0644957,31.4149502 55.9824487,31.387103 55.883062,31.387103 Z M58.1215902,32.9486814 C58.0124762,32.9486814 57.9240854,32.9824321 57.8564178,33.0498557 C57.7921336,33.1143664 57.7599915,33.1906063 57.7599915,33.2786142 C57.7599915,33.3783126 57.8018609,33.461893 57.8851766,33.5293166 C57.9494608,33.5821369 58.0285473,33.6085082 58.1215902,33.6085082 C58.2184394,33.6085082 58.3034468,33.5777093 58.3774582,33.5161503 C58.4480863,33.4516396 58.4836118,33.372448 58.4836118,33.2786142 C58.4836118,33.1788771 58.4451258,33.0967725 58.367731,33.0322618 C58.3034468,32.9765675 58.2213999,32.9486814 58.1215902,32.9486814 Z M58.1122859,34 C57.8289279,34 57.6056249,33.9222842 57.441531,33.7668527 C57.3061958,33.6349184 57.2389512,33.4765351 57.2389512,33.2917805 C57.2389512,33.0894321 57.3045041,32.9237471 57.4364559,32.7947257 C57.5878621,32.6392942 57.8128568,32.5615784 58.1122859,32.5615784 C58.4049482,32.5615784 58.6333263,32.6392942 58.7974202,32.7947257 C58.9323324,32.9237471 59,33.0850433 59,33.2786142 C59,33.4721463 58.9306407,33.6349184 58.7923451,33.7668527 C58.6282512,33.9222842 58.4015648,34 58.1122859,34 Z" fill="#191919" fill-rule="nonzero"></path>
        </g>
      </g>
    </g>
  </g>
</svg>
