<svg width="80px" height="80px" viewBox="0 0 80 80" version="1.1" xmlns="http://www.w3.org/2000/svg" xmlns:xlink="http://www.w3.org/1999/xlink">
  <defs><circle id="background-circle" cx="40" cy="40" r="40"></circle></defs>
  <g stroke="none" stroke-width="1" fill="none" fill-rule="evenodd">
    <g transform="translate(-1080.000000, -5669.000000)">
      <g transform="translate(420.000000, 5655.000000)">
        <g transform="translate(660.000000, 14.000000)">
          <mask id="white-circle" fill="white"><use xlink:href="#background-circle"></use></mask>
          <use class="product-design__process-nav__item-icon__background" fill="#FF5E44" fill-rule="nonzero" xlink:href="#background-circle"></use>
          <g mask="url(#white-circle)">
            <g transform="translate(4.000000, 17.000000)">
              <rect stroke="#191919" stroke-width="1.2" fill="#FFFFFF" fill-rule="nonzero" x="0" y="1" width="71" height="50"></rect>
              <rect stroke="#191919" stroke-width="1.2" class="product-design__process-nav__item-icon__background" fill="#FF5E44" fill-rule="nonzero" x="0" y="5" width="71" height="32"></rect>
              <rect fill="#FFFFFF" fill-rule="nonzero" x="14" y="12" width="44" height="39"></rect>
              <path stroke="#191919" stroke-width="1.2" d="M14,12 h44 v39 h-44z"></path>
              <rect fill="#FFFFFF" fill-rule="nonzero" x="21" y="27" width="8" height="2"></rect>
              <line stroke="#191919" stroke-width="1.2" x1="21" y1="21" x2="29" y2="21" fill="none"></line>
              <line stroke="#191919" stroke-width="1.2" x1="43" y1="16" x2="55" y2="16" fill="none"></line>
              <line stroke="#191919" stroke-width="1.2" x1="20" y1="36" x2="51" y2="36" fill="none"></line>
              <line stroke="#191919" stroke-width="1.2" x1="17" y1="16" x2="19" y2="16" fill="none"></line>
              <line stroke="#191919" stroke-width="1.2" x1="21" y1="23" x2="29" y2="23" fill="none"></line>
              <line stroke="#191919" stroke-width="1.2" x1="40" y1="42" x2="48" y2="42" fill="none"></line>
              <line stroke="#191919" stroke-width="1.2" x1="40" y1="44" x2="48" y2="44" fill="none"></line>
              <rect stroke="#191919" stroke-width="1.2" fill="#FFFFFF" fill-rule="nonzero" x="0" y="0" width="71" height="5"></rect>
              <rect class="product-design__process-nav__item-icon__background" fill="#FF5E44" fill-rule="nonzero" x="34" y="19" width="17" height="12"></rect>
              <path class="product-design__process-nav__item-figure" stroke="#191919" stroke-width="1.2" d="M34,19 h17 v12 h-17z"></path>
              <rect class="product-design__process-nav__item-icon__background" fill="#FF5E44" fill-rule="nonzero" x="21" y="42" width="13" height="9"></rect>
              <path class="product-design__process-nav__item-figure" stroke="#191919" stroke-width="1.2" d="M21,42 h13 v9 h-13z"></path>
              <circle stroke="#191919" stroke-width="1.2" fill="#FFFFFF" fill-rule="nonzero" cx="2.5" cy="2.5" r="1"></circle>
              <circle stroke="#191919" stroke-width="1.2" fill="#FFFFFF" fill-rule="nonzero" cx="5.5" cy="2.5" r="1"></circle>
              <circle stroke="#191919" stroke-width="1.2" fill="#FFFFFF" fill-rule="nonzero" cx="8.5" cy="2.5" r="1"></circle>
            </g>
          </g>
        </g>
      </g>
    </g>
  </g>
</svg>
