<svg width="80px" height="82px" viewBox="0 0 80 82" version="1.1" xmlns="http://www.w3.org/2000/svg" xmlns:xlink="http://www.w3.org/1999/xlink">
  <symbol id="icon-design">
    <g id="Page-1" stroke="none" stroke-width="1" fill="none" fill-rule="evenodd">
      <g id="iPhone-SE" transform="translate(-284.000000, -6453.000000)">
        <g id="Group-21" transform="translate(-43.000000, 6440.000000)">
          <g id="Group-35" transform="translate(318.000000, 0.000000)">
            <g id="analysys" transform="translate(9.000000, 14.000000)">
              <circle class="product-design__process-nav__item-icon__background" id="Oval" fill="#FF5E44" fill-rule="nonzero" cx="40" cy="40" r="40"></circle>
              <polygon id="Path" fill="#FFFFFF" points="68.9328121 49.0596166 65.8315606 46 60.9785618 50.9196088 56.0592591 46.066744 53 49.1679098 57.9188607 54.0207746 53.0658618 58.9403834 56.1671133 62 61.0205542 57.0803912 65.9402989 61.933698 69 58.8320902 64.0798132 53.9787834"></polygon>
              <path d="M66.2616205,45.6159483 L66.615769,45.3537129 L66.2577,45 L65.9035515,45.3589402 L66.2616205,45.6159483 Z M69.3178394,48.6312202 L69.6759084,48.888664 L69.9337877,48.6268641 L69.6724235,48.3689848 L69.3178394,48.6312202 Z M61.4790909,50.4642546 L61.1245067,50.72649 L61.4830113,51.0802029 L61.8371598,50.7212627 L61.4790909,50.4642546 Z M56.6312202,45.681725 L56.9858043,45.419054 L56.6272997,45.0657767 L56.2735868,45.4242812 L56.6312202,45.681725 Z M53.6163839,48.7379439 L53.258315,48.4809358 L53,48.7423 L53.2617998,49.000615 L53.6163839,48.7379439 Z M58.463819,53.5204735 L58.821888,53.7779173 L59.0802029,53.5161175 L58.8184031,53.2582381 L58.463819,53.5204735 Z M53.6812894,58.3687798 L53.323656,58.111336 L53.0653411,58.3731359 L53.3267053,58.6310152 L53.6812894,58.3687798 Z M56.7375083,61.3840517 L56.3833598,61.6462871 L56.7418644,62 L57.0955773,61.6410598 L56.7375083,61.3840517 Z M61.5204735,56.5357454 L61.8750577,56.2730744 L61.5165531,55.9193615 L61.1624046,56.2783016 L61.5204735,56.5357454 Z M66.3687798,61.3187106 L66.0141957,61.580946 L66.3727003,61.9346589 L66.7268488,61.5757188 L66.3687798,61.3187106 Z M69.3840517,58.2620561 L69.741685,58.5194998 L70,58.2577 L69.7382002,57.9998206 L69.3840517,58.2620561 Z M64.5353098,53.4790909 L64.1776764,53.2216471 L63.9193615,53.4834469 L64.1811613,53.7417619 L64.5353098,53.4790909 Z M65.9070363,45.8786194 L68.9632553,48.8934556 L69.6724235,48.3689848 L66.615769,45.3537129 L65.9070363,45.8786194 Z M61.8371598,50.7212627 L66.6192538,45.8733921 L65.9035515,45.3589402 L61.1214575,50.2068108 L61.8371598,50.7212627 Z M56.2766361,45.9439604 L61.1245067,50.72649 L61.833675,50.2015836 L56.9858043,45.419054 L56.2766361,45.9439604 Z M53.9740173,48.9953877 L56.9892892,45.9391688 L56.2735868,45.4242812 L53.258315,48.4809358 L53.9740173,48.9953877 Z M58.8184031,53.2582381 L53.9705325,48.4757085 L53.2617998,49.000615 L58.1096705,53.782709 L58.8184031,53.2582381 Z M54.0389228,58.6262235 L58.821888,53.7779173 L58.1061856,53.2630298 L53.323656,58.111336 L54.0389228,58.6262235 Z M57.0920925,61.1213806 L54.0358735,58.1065444 L53.3267053,58.6310152 L56.3833598,61.6462871 L57.0920925,61.1213806 Z M61.1624046,56.2783016 L56.379875,61.1266079 L57.0955773,61.6410598 L61.8781069,56.7927535 L61.1624046,56.2783016 Z M66.7233639,61.0560396 L61.8750577,56.2730744 L61.1658894,56.7979808 L66.0141957,61.580946 L66.7233639,61.0560396 Z M69.0259827,58.0046123 L66.0111464,61.0612668 L66.7268488,61.5757188 L69.741685,58.5194998 L69.0259827,58.0046123 Z M64.1811613,53.7417619 L69.0294675,58.5242915 L69.7382002,57.9998206 L64.8898939,53.2168554 L64.1811613,53.7417619 Z M68.960206,48.3737765 L64.1776764,53.2216471 L64.8933788,53.7365346 L69.6759084,48.888664 L68.960206,48.3737765 Z" id="Shape" fill="#191919" fill-rule="nonzero"></path>
              <polygon id="Path" stroke="#191919" stroke-width="1.2" fill="#FFFFFF" fill-rule="nonzero" points="25 20.7876586 22.1572706 18 19.8891235 20.2855868 17.6829237 18.1220544 15.0620754 20.7630947 17.2682753 22.9265846 15 25.2122989 17.8427294 28 20.1110047 25.7142857 22.3195131 27.880028 24.9403614 25.2389877 22.731853 23.0732879"></polygon>
              <circle id="Oval" stroke="#191919" stroke-width="1.2" fill="#FFFFFF" fill-rule="nonzero" cx="59" cy="15" r="3"></circle>
              <circle id="Oval-Copy-6" stroke="#191919" stroke-width="1.2" fill="#FFFFFF" fill-rule="nonzero" cx="6" cy="51" r="3"></circle>
              <circle id="Oval" stroke="#191919" stroke-width="1.2" fill="#FFFFFF" fill-rule="nonzero" cx="25" cy="63" r="2"></circle>
              <polygon id="Rectangle" stroke="#191919" stroke-width="1.2" transform="translate(35.843624, 76.014074) rotate(-40.000000) translate(-35.843624, -76.014074) " points="30.8692723 75.6587618 40.8179756 75.6587618 40.8179756 76.369386 30.8692723 76.369386"></polygon>
              <polygon id="Rectangle" stroke="#191919" stroke-width="1.2" transform="translate(38.686173, 4.241195) rotate(-40.000000) translate(-38.686173, -4.241195) " points="33.7118218 3.8858827 43.6605251 3.8858827 43.6605251 4.59650687 33.7118218 4.59650687"></polygon>
              <path d="M27,61 L39.0593806,50.8836592 L30.6939806,43.6069326 L46.5,28" id="Path" stroke="#191919" stroke-width="1.2" stroke-linecap="round" stroke-dasharray="3"></path>
              <polygon id="Path" stroke="#191919" stroke-width="1.2" fill="#FFFFFF" fill-rule="nonzero" points="52 22 49.9673961 33 41 25.8202906"></polygon>
            </g>
          </g>
        </g>
      </g>
    </g>
  </symbol>
</svg>
