<svg width="80px" height="80px" viewBox="0 0 80 80" version="1.1" xmlns="http://www.w3.org/2000/svg" xmlns:xlink="http://www.w3.org/1999/xlink">
  <g stroke="none" stroke-width="1" fill="none" fill-rule="evenodd">
    <g transform="translate(43.000000, -6454.000000)">
      <g transform="translate(-43.000000, 6440.000000)">
        <g transform="translate(0.000000, 14.000000)">
          <circle class="product-design__process-nav__item-icon__background" fill="#FF5E44" fill-rule="nonzero" cx="40" cy="40" r="40"></circle>
          <g transform="translate(16.000000, 17.000000)">
            <g transform="translate(0.000000, 3.000000)" stroke="#191919" stroke-width="1.5">
              <path d="M43,19.9998009 C43,30.4950807 34.4914983,39 24.0002,39 C13.5085017,39 5,30.4950807 5,19.9998009 C5,9.50479982 13.5085017,1 24.0002,1 C34.4914983,1 43,9.50479982 43,19.9998009 Z" id="Path" fill="#FFFFFF" fill-rule="nonzero"></path>
              <path class="product-design__process-nav__item-path" d="M47.5427015,0.763697647 C50.1048835,3.81454955 41.6415458,15.1240978 28.6393157,26.0239162 C15.6374826,36.9241293 3.01987744,43.2869614 0.457298517,40.2363858 C-2.10488347,37.1854155 6.35845415,25.8759067 19.3606843,14.9760883 C32.3625174,4.07595416 44.9801226,-2.28711478 47.5427015,0.763697647 Z" stroke-linecap="round" stroke-dasharray="6"></path>
              <path d="M6.40530754,13.3653338 C1.36945626,7.43209164 -1.08555597,2.60071024 0.457311057,0.763696744 C3.01989132,-2.28711208 15.6375031,4.07594934 28.6393431,14.9760706 C30.8161074,16.8007302 32.8658541,18.6372306 34.7576226,20.4441291 M41.2113079,27.1866471 C46.5051637,33.3241028 49.124108,38.3532642 47.5427388,40.2363382 C45.2623758,42.9510276 35.0203903,38.2115699 23.6304831,29.4541508 C22.2201907,28.3703275 20.7928303,27.2245375 19.3607068,26.0238854 C17.3601794,24.3472352 15.467617,22.6607176 13.7060416,20.9959081 L13.0844491,20.4997807"></path>
            </g>
            <circle stroke="#000000" stroke-width="1.2" fill="#FFFFFF" cx="8" cy="4" r="3.4"></circle>
            <circle stroke="#000000" stroke-width="1.2" fill="#FFFFFF" cx="41" cy="43" r="2.4"></circle>
          </g>
        </g>
      </g>
    </g>
  </g>
</svg>
