<svg xmlns="http://www.w3.org/2000/svg" xmlns:xlink="http://www.w3.org/1999/xlink" width="65" height="65" viewBox="0 0 65 65">
  <defs><circle id="lvfyti3kba" cx="32.267" cy="32.298" r="31.5"/></defs>
  <g fill="none" fill-rule="evenodd">
    <g transform="translate(-1141 -310) translate(754 226) translate(0 54) translate(387.233 30.202)">
      <mask id="r0zs3quzab" fill="#fff">
        <use xlink:href="#lvfyti3kba"/>
      </mask>
      <use class="estimate-form__option-label__color" fill="#FF5E44" fill-opacity=".64" fill-rule="nonzero" xlink:href="#lvfyti3kba"/>
      <g mask="url(#r0zs3quzab)">
        <g transform="translate(-.233 .798)">
          <path fill="#FFF" d="M55.422 38.411L52.948 35.99 49.077 39.883 45.153 36.043 42.712 38.497 46.636 42.336 42.765 46.229 45.239 48.65 49.11 44.757 53.035 48.597 55.476 46.143 51.551 42.303z"/>
          <path fill="#000" d="M33.264 38.848L30.79 36.427 26.918 40.32 22.994 36.48 20.554 38.934 24.478 42.774 20.606 46.666 23.08 49.087 26.952 45.194 30.876 49.034 33.317 46.58 29.392 42.74z"/>
          <path fill="#191919" fill-rule="nonzero" d="M52.948 35.99l.287-.21-.29-.284-.287.288.29.206zm2.474 2.421l.29.207.209-.21-.212-.207-.287.21zm-6.345 1.472l-.287.21.29.284.287-.288-.29-.206zm-3.924-3.84l.287-.21-.29-.284-.287.287.29.207zm-2.44 2.454l-.29-.207-.21.21.212.208.287-.211zm3.923 3.84l.29.206.21-.21-.213-.207-.287.21zm-3.871 3.892l-.29-.207-.209.21.212.207.287-.21zm2.474 2.42l-.287.211.29.284.287-.288-.29-.206zm3.871-3.892l.287-.21-.29-.285-.286.289.29.206zm3.925 3.84l-.287.21.29.285.287-.288-.29-.207zm2.44-2.454l.29.207.21-.21-.213-.207-.286.21zm-3.924-3.84l-.29-.207-.209.21.212.208.287-.21zm1.11-6.102l2.474 2.42.574-.42-2.474-2.421-.574.421zm-3.294 3.888l3.87-3.892-.579-.413-3.87 3.892.579.413zm-4.501-3.835l3.924 3.84.574-.422-3.924-3.84-.574.422zm-1.864 2.45l2.44-2.454-.579-.414-2.44 2.454.579.413zm3.921 3.422L43 38.286l-.574.422 3.924 3.839.574-.421zm-3.869 4.31l3.872-3.893-.58-.413-3.87 3.892.578.414zm2.472 2.003l-2.474-2.42-.574.42 2.474 2.421.574-.421zm3.295-3.888l-3.872 3.892.58.413 3.87-3.892-.578-.413zm4.501 3.835l-3.925-3.84-.574.422 3.925 3.84.574-.422zm1.864-2.45l-2.44 2.455.579.413 2.44-2.454-.58-.414zm-3.922-3.422l3.925 3.84.573-.421-3.924-3.84-.574.421zm3.869-4.31l-3.872 3.892.58.414 3.871-3.892-.58-.414z"/>
          <path fill="#FFF" fill-rule="nonzero" stroke="#191919" d="M20.512 16.099L18.168 13.805 16.297 15.686 14.477 13.906 12.316 16.079 14.135 17.859 12.264 19.74 14.609 22.034 16.48 20.153 18.302 21.936 20.463 19.762 18.642 17.98z"/>
          <ellipse cx="47.446" cy="11.795" fill="#FFF" fill-rule="nonzero" stroke="#191919" rx="2.28" ry="2.262"/>
          <path fill="#FFF" fill-rule="nonzero" stroke="#191919" d="M1.76 37.695L9.714 37.728 9.746 45.67 1.793 45.638z" transform="rotate(-40 5.753 41.683)"/>
          <path fill="#000" fill-rule="nonzero" stroke="#191919" d="M35.713 17.513L43.667 17.545 43.699 25.487 35.746 25.455z" transform="rotate(-40 39.706 21.5)"/>
          <path stroke="#191919" stroke-width="1.617" d="M24.878 59.885L32.831 59.917 32.834 60.485 24.88 60.453z" transform="rotate(-40 28.856 60.185)"/>
          <path stroke="#191919" stroke-width="1.617" d="M27.158 2.781L35.112 2.813 35.114 3.38 27.16 3.348z" transform="rotate(-40 31.136 3.08)"/>
        </g>
      </g>
    </g>
  </g>
</svg>
