<svg width="73px" height="70px" viewBox="0 0 73 70" version="1.1" xmlns="http://www.w3.org/2000/svg" xmlns:xlink="http://www.w3.org/1999/xlink" style="overflow: visible;">
    <g stroke="none" stroke-width="1" fill="none" fill-rule="evenodd">
        <g transform="translate(-999.000000, -2479.000000)">
            <g transform="translate(1011.628272, 2472.214765)">
                <g transform="translate(23.500000, 45.000000) scale(-1, 1) rotate(67.000000) translate(-23.500000, -45.000000) ">
                    <line class="dajemyslowo-goal__picture-decor__line" x1="47" y1="61.9736842" x2="23.8916667" y2="26.4473684" stroke="#761113" stroke-width="0.25" stroke-linejoin="round"></line>
                    <path class="dajemyslowo-goal__picture-decor__dot-blue" d="M39.95,86.6447368 C39.95,88.4961344 38.3766949,90 36.425,90 C34.4799435,90 32.9,88.4961344 32.9,86.6447368 C32.9,84.7933393 34.4799435,83.2894737 36.425,83.2894737 C38.3766949,83.2894737 39.95,84.7933393 39.95,86.6447368" fill="#00A1D6"></path>
                    <path class="dajemyslowo-goal__picture-decor__dot-red" d="M12.5333333,6.31578947 C12.5333333,9.80842105 9.73213333,12.6315789 6.26666667,12.6315789 C2.80746667,12.6315789 0,9.80842105 0,6.31578947 C0,2.82315789 2.80746667,0 6.26666667,0 C9.73213333,0 12.5333333,2.82315789 12.5333333,6.31578947" fill="#EE3F2E"></path>
                </g>
            </g>
        </g>
    </g>
</svg>
