<svg width="171px" height="70px" viewBox="0 0 171 70" version="1.1" xmlns="http://www.w3.org/2000/svg" xmlns:xlink="http://www.w3.org/1999/xlink">
    <g stroke="none" stroke-width="1" fill="none" fill-rule="evenodd">
        <g transform="translate(-1010.000000, -2638.000000)" fill="#1C2E4D">
            <g transform="translate(1010.000000, 2638.000000)">
                <path d="M6.0193776,31.0841848 L0.151591246,32.0421196 L0.0955215134,46.5889312 L5.96330786,45.6307428 C10.430112,44.9015761 13.3454844,41.2483877 13.3612778,37.1541486 C13.3769444,33.0814674 10.4656313,30.3583152 6.0193776,31.0841848 L6.0193776,31.0841848 Z M5.6114132,42.1581341 L4.33221142,42.3666123 L4.36088056,34.8854891 L5.64033605,34.6765036 C7.77200074,34.3285326 8.98371588,35.8337862 8.97588894,37.8701268 C8.96798591,39.9069746 7.7433316,41.8099094 5.6114132,42.1581341 L5.6114132,42.1581341 Z M17.8569414,29.1515761 L12.9481758,44.4904529 L17.333793,43.7747283 L17.7866639,42.0186413 L22.3755022,41.269692 L22.8156877,42.879692 L27.2010512,42.1637138 L22.4249755,28.4059239 L17.8569414,29.1515761 Z M18.6112188,38.7479167 L20.115207,32.8537138 L21.5755571,38.26375 L18.6112188,38.7479167 Z M34.6885171,26.4035688 L38.9318034,25.7109239 L38.8970453,34.6881703 C38.8813153,38.82375 36.6408093,41.0175906 33.1081625,41.5940761 C29.1690734,42.2372645 27.3720512,40.0588949 27.3844189,36.8381341 L31.6072188,36.1487862 C31.6021447,37.4369384 32.1067723,38.1440399 33.1218628,37.9784239 C34.1778004,37.8059601 34.6479236,36.9395833 34.6522366,35.7970109 L34.6885171,26.4035688 Z M41.0642292,25.3626993 L50.2008049,23.8711413 L50.1883731,27.1129529 L45.2747871,27.915163 L45.2651461,30.4508877 L50.1784785,29.6486775 L50.1665542,32.7449094 L45.2532218,33.5471196 L45.2438346,35.9783514 L50.1571669,35.1763949 L50.1447352,38.4182065 L41.0081595,39.9097645 L41.0642292,25.3626993 Z M63.9663049,21.6237862 L69.204385,20.7688225 L69.1483153,35.3156341 L65.0876996,35.9786051 L65.1232188,26.7517935 L62.4889562,36.4029167 L59.3627515,36.9129529 L56.6168568,28.0985326 L56.5810838,37.367192 L52.5202144,38.0304167 L52.5762841,23.4833514 L57.9363984,22.6083514 L60.924839,31.6112138 L63.9663049,21.6237862 Z M84.3310349,18.2992935 L77.2299681,33.9962862 L72.4993064,34.7685688 L74.9554651,29.2586051 L70.2204904,20.6029529 L75.1947129,19.7908514 L77.4286224,24.6183152 L79.6211773,19.068279 L84.3310349,18.2992935 Z M95.1550757,26.7505254 C95.1433598,29.7014312 92.9228969,31.8914674 89.4313509,32.4613587 C85.7152723,33.0680254 83.4691847,31.4823732 83.4815651,28.2195109 L87.7051135,27.5299094 C87.700293,28.7774819 88.3667871,29.4366486 89.5046728,29.2509964 C90.4177723,29.1018659 90.9269666,28.5824457 90.9302648,27.8134601 C90.9325482,27.1484601 90.5479251,26.8583152 89.5955007,26.6399457 L86.7778064,26.0411413 C84.7499088,25.6033877 83.7401461,24.3771196 83.7477574,22.4232065 C83.7581595,19.7218659 85.8766313,17.5899094 89.3280912,17.0263587 C92.7795512,16.462808 95.0266536,17.8612862 95.0154904,20.7500543 L90.7919933,21.4396558 C90.7963064,20.359221 90.2508316,19.824837 89.2758272,19.9841123 C88.4840007,20.1132065 87.9953568,20.608279 87.9928197,21.2940761 C87.9902826,21.8758877 88.3749058,22.1870833 89.5503405,22.4521196 L92.1452782,23.0461051 C94.2741521,23.550308 95.162388,24.7966123 95.1550757,26.7505254 L95.1550757,26.7505254 Z M101.020533,26.3944384 L105.852679,25.6056703 L105.838217,29.3258152 L96.7833361,30.8041848 L96.8036328,25.5463225 L95.9288435,26.1461413 L95.9367085,24.0266123 L96.8117515,23.4267935 L96.8394058,16.2571196 L101.062142,15.5677717 L101.04286,20.5758152 L103.422906,18.9825543 L103.415041,21.1028442 L101.034741,22.6955978 L101.020533,26.3944384 Z M113.955897,13.0059239 C109.023029,13.8109239 106.105627,17.8800543 106.089829,22.0156341 C106.073659,26.1509601 108.963407,29.2725543 113.896022,28.4673007 C118.830158,27.6617935 121.74756,23.5921558 121.763358,19.4568297 C121.779527,15.32125 118.889526,12.2004167 113.955897,13.0059239 L113.955897,13.0059239 Z M113.91099,24.6018297 C111.637249,24.9728804 110.487185,23.3745471 110.494758,21.2963587 C110.502915,19.2189312 111.666932,17.2426993 113.940674,16.8713949 C116.235474,16.4967935 117.386045,18.0951268 117.357376,20.1761051 C117.370062,22.2509964 116.206044,24.2272283 113.91099,24.6018297 L113.91099,24.6018297 Z M143.577461,8.62686594 L138.404838,24.0091123 L134.709563,24.6122283 L132.385079,17.0791123 L129.979155,25.3845109 L126.283881,25.9878804 L121.223397,12.27625 L125.711005,11.5437862 L128.234651,19.8955978 L130.725314,10.7250906 L134.075544,10.1780254 L136.498467,18.5465761 L139.09036,9.35932971 L143.577461,8.62686594 Z M150.828723,6.98617754 C145.895094,7.79143116 142.977692,11.8605616 142.961894,15.9958877 C142.945725,20.1314674 145.835473,23.2530616 150.768848,22.4475543 C155.702731,21.6420471 158.620133,17.5724094 158.636182,13.4370833 C158.6521,9.30150362 155.762352,6.18067029 150.828723,6.98617754 L150.828723,6.98617754 Z M150.783563,18.5820833 C148.510075,18.9531341 147.359757,17.3548007 147.367582,15.2766123 C147.375741,13.1991848 148.539759,11.2226993 150.813501,10.8516486 C153.1083,10.4770471 154.258618,12.0753804 154.230203,14.1563587 C154.242888,16.2309964 153.078616,18.2074819 150.783563,18.5820833 L150.783563,18.5820833 Z"></path>
                <polygon points="24.1051901 49.6722536 2.53709199e-05 53.6470362 6.0410951 57.2444275 24.1051901 54.2681594"></polygon>
                <polygon points="164.922092 0 164.922092 17.0990217 164.922092 17.0992754 164.922092 26.4531522 44.3975368 46.3263043 24.2466837 66.4705797 30.1733306 70 50.4578884 49.9262319 170.990562 30.0667754 170.990562 3.61387681"></polygon>
            </g>
        </g>
    </g>
</svg>
