<svg xmlns="http://www.w3.org/2000/svg" xmlns:xlink="http://www.w3.org/1999/xlink" viewBox="0 0 561 530">
    <defs>
        <path id="612nuel8ka" d="M0.185 0.489L122.143 0.489 122.143 114.364 0.185 114.364z"/>
        <path id="cs9q7tnvmc" d="M28.423 20.829s-7.652 21.737-10.07 34.574c-1.435 7.627-7.877 24.551-12.398 38.19-10.875 32.784-3.24 59.536-3.24 59.536s17.212-1.575 27.106-.28c25.303 3.309 32.24 9.577 32.24 9.577s18.966-6.023 24.29-7.172c6.817-1.468 24.275-3.294 24.275-3.294s6.509-34.607-4.799-53.245c-4.539-7.482 15.65-19.248 15.65-19.248l4.64-38.387-5.85-.418s-24.893 15.55-45.62 2.106C53.92 29.322 77.97 6.67 77.97 6.67L77.567.455 28.423 20.829z"/>
        <path id="556hvg3iue" d="M28.423 20.829s-7.652 21.737-10.07 34.574c-1.435 7.627-7.877 24.551-12.398 38.19-10.875 32.784-3.24 59.536-3.24 59.536s17.212-1.575 27.106-.28c25.303 3.309 32.24 9.577 32.24 9.577s18.966-6.023 24.29-7.172c6.817-1.468 24.275-3.294 24.275-3.294s6.509-34.607-4.799-53.245c-4.539-7.482 15.65-19.248 15.65-19.248l4.64-38.387-5.85-.418s-24.893 15.55-45.62 2.106C53.92 29.322 77.97 6.67 77.97 6.67L77.567.455 28.423 20.829z"/>
        <path id="gfy8evpeag" d="M28.423 20.829s-7.652 21.737-10.07 34.574c-1.435 7.627-7.877 24.551-12.398 38.19-10.875 32.784-3.24 59.536-3.24 59.536s17.212-1.575 27.106-.28c25.303 3.309 32.24 9.577 32.24 9.577s18.966-6.023 24.29-7.172c6.817-1.468 24.275-3.294 24.275-3.294s6.509-34.607-4.799-53.245c-4.539-7.482 15.65-19.248 15.65-19.248l4.64-38.387-5.85-.418s-24.893 15.55-45.62 2.106C53.92 29.322 77.97 6.67 77.97 6.67L77.567.455 28.423 20.829z"/>
        <path id="r494v3p7ci" d="M28.423 20.829s-7.652 21.737-10.07 34.574c-1.435 7.627-7.877 24.551-12.398 38.19-10.875 32.784-3.24 59.536-3.24 59.536s17.212-1.575 27.106-.28c25.303 3.309 32.24 9.577 32.24 9.577s18.966-6.023 24.29-7.172c6.817-1.468 24.275-3.294 24.275-3.294s6.509-34.607-4.799-53.245c-4.539-7.482 15.65-19.248 15.65-19.248l4.64-38.387-5.85-.418s-24.893 15.55-45.62 2.106C53.92 29.322 77.97 6.67 77.97 6.67L77.567.455 28.423 20.829z"/>
        <path id="zc79q0sypk" d="M28.423 20.829s-7.652 21.737-10.07 34.574c-1.435 7.627-7.877 24.551-12.398 38.19-10.875 32.784-3.24 59.536-3.24 59.536s17.212-1.575 27.106-.28c25.303 3.309 32.24 9.577 32.24 9.577s18.966-6.023 24.29-7.172c6.817-1.468 24.275-3.294 24.275-3.294s6.509-34.607-4.799-53.245c-4.539-7.482 15.65-19.248 15.65-19.248l4.64-38.387-5.85-.418s-24.893 15.55-45.62 2.106C53.92 29.322 77.97 6.67 77.97 6.67L77.567.455 28.423 20.829z"/>
        <path id="c4tz3tlz0m" d="M28.423 20.829s-7.652 21.737-10.07 34.574c-1.435 7.627-7.877 24.551-12.398 38.19-10.875 32.784-3.24 59.536-3.24 59.536s17.212-1.575 27.106-.28c25.303 3.309 32.24 9.577 32.24 9.577s18.966-6.023 24.29-7.172c6.817-1.468 24.275-3.294 24.275-3.294s6.509-34.607-4.799-53.245c-4.539-7.482 15.65-19.248 15.65-19.248l4.64-38.387-5.85-.418s-24.893 15.55-45.62 2.106C53.92 29.322 77.97 6.67 77.97 6.67L77.567.455 28.423 20.829z"/>
        <path id="7tt6br76co" d="M28.423 20.829s-7.652 21.737-10.07 34.574c-1.435 7.627-7.877 24.551-12.398 38.19-10.875 32.784-3.24 59.536-3.24 59.536s17.212-1.575 27.106-.28c25.303 3.309 32.24 9.577 32.24 9.577s18.966-6.023 24.29-7.172c6.817-1.468 24.275-3.294 24.275-3.294s6.509-34.607-4.799-53.245c-4.539-7.482 15.65-19.248 15.65-19.248l4.64-38.387-5.85-.418s-24.893 15.55-45.62 2.106C53.92 29.322 77.97 6.67 77.97 6.67L77.567.455 28.423 20.829z"/>
        <path id="kp73usuufq" d="M28.423 20.829s-7.652 21.737-10.07 34.574c-1.435 7.627-7.877 24.551-12.398 38.19-10.875 32.784-3.24 59.536-3.24 59.536s17.212-1.575 27.106-.28c25.303 3.309 32.24 9.577 32.24 9.577s18.966-6.023 24.29-7.172c6.817-1.468 24.275-3.294 24.275-3.294s6.509-34.607-4.799-53.245c-4.539-7.482 15.65-19.248 15.65-19.248l4.64-38.387-5.85-.418s-24.893 15.55-45.62 2.106C53.92 29.322 77.97 6.67 77.97 6.67L77.567.455 28.423 20.829z"/>
        <path id="0rxnr5dkgs" d="M28.423 20.829s-7.652 21.737-10.07 34.574c-1.435 7.627-7.877 24.551-12.398 38.19-10.875 32.784-3.24 59.536-3.24 59.536s17.212-1.575 27.106-.28c25.303 3.309 32.24 9.577 32.24 9.577s18.966-6.023 24.29-7.172c6.817-1.468 24.275-3.294 24.275-3.294s6.509-34.607-4.799-53.245c-4.539-7.482 15.65-19.248 15.65-19.248l4.64-38.387-5.85-.418s-24.893 15.55-45.62 2.106C53.92 29.322 77.97 6.67 77.97 6.67L77.567.455 28.423 20.829z"/>
        <path id="e1xs4jpf6u" d="M28.423 20.829s-7.652 21.737-10.07 34.574c-1.435 7.627-7.877 24.551-12.398 38.19-10.875 32.784-3.24 59.536-3.24 59.536s17.212-1.575 27.106-.28c25.303 3.309 32.24 9.577 32.24 9.577s18.966-6.023 24.29-7.172c6.817-1.468 24.275-3.294 24.275-3.294s6.509-34.607-4.799-53.245c-4.539-7.482 15.65-19.248 15.65-19.248l4.64-38.387-5.85-.418s-24.893 15.55-45.62 2.106C53.92 29.322 77.97 6.67 77.97 6.67L77.567.455 28.423 20.829z"/>
        <path id="bhj0vppf9w" d="M28.423 20.829s-7.652 21.737-10.07 34.574c-1.435 7.627-7.877 24.551-12.398 38.19-10.875 32.784-3.24 59.536-3.24 59.536s17.212-1.575 27.106-.28c25.303 3.309 32.24 9.577 32.24 9.577s18.966-6.023 24.29-7.172c6.817-1.468 24.275-3.294 24.275-3.294s6.509-34.607-4.799-53.245c-4.539-7.482 15.65-19.248 15.65-19.248l4.64-38.387-5.85-.418s-24.893 15.55-45.62 2.106C53.92 29.322 77.97 6.67 77.97 6.67L77.567.455 28.423 20.829z"/>
        <path id="ido1spqnry" d="M28.423 20.829s-7.652 21.737-10.07 34.574c-1.435 7.627-7.877 24.551-12.398 38.19-10.875 32.784-3.24 59.536-3.24 59.536s17.212-1.575 27.106-.28c25.303 3.309 32.24 9.577 32.24 9.577s18.966-6.023 24.29-7.172c6.817-1.468 24.275-3.294 24.275-3.294s6.509-34.607-4.799-53.245c-4.539-7.482 15.65-19.248 15.65-19.248l4.64-38.387-5.85-.418s-24.893 15.55-45.62 2.106C53.92 29.322 77.97 6.67 77.97 6.67L77.567.455 28.423 20.829z"/>
        <path id="1oj9guai1A" d="M28.423 20.829s-7.652 21.737-10.07 34.574c-1.435 7.627-7.877 24.551-12.398 38.19-10.875 32.784-3.24 59.536-3.24 59.536s17.212-1.575 27.106-.28c25.303 3.309 32.24 9.577 32.24 9.577s18.966-6.023 24.29-7.172c6.817-1.468 24.275-3.294 24.275-3.294s6.509-34.607-4.799-53.245c-4.539-7.482 15.65-19.248 15.65-19.248l4.64-38.387-5.85-.418s-24.893 15.55-45.62 2.106C53.92 29.322 77.97 6.67 77.97 6.67L77.567.455 28.423 20.829z"/>
        <path id="8pco934n8C" d="M28.423 20.829s-7.652 21.737-10.07 34.574c-1.435 7.627-7.877 24.551-12.398 38.19-10.875 32.784-3.24 59.536-3.24 59.536s17.212-1.575 27.106-.28c25.303 3.309 32.24 9.577 32.24 9.577s18.966-6.023 24.29-7.172c6.817-1.468 24.275-3.294 24.275-3.294s6.509-34.607-4.799-53.245c-4.539-7.482 15.65-19.248 15.65-19.248l4.64-38.387-5.85-.418s-24.893 15.55-45.62 2.106C53.92 29.322 77.97 6.67 77.97 6.67L77.567.455 28.423 20.829z"/>
        <path id="dfecdfcjuE" d="M28.423 20.829s-7.652 21.737-10.07 34.574c-1.435 7.627-7.877 24.551-12.398 38.19-10.875 32.784-3.24 59.536-3.24 59.536s17.212-1.575 27.106-.28c25.303 3.309 32.24 9.577 32.24 9.577s18.966-6.023 24.29-7.172c6.817-1.468 24.275-3.294 24.275-3.294s6.509-34.607-4.799-53.245c-4.539-7.482 15.65-19.248 15.65-19.248l4.64-38.387-5.85-.418s-24.893 15.55-45.62 2.106C53.92 29.322 77.97 6.67 77.97 6.67L77.567.455 28.423 20.829z"/>
        <path id="hcff8yir3G" d="M28.423 20.829s-7.652 21.737-10.07 34.574c-1.435 7.627-7.877 24.551-12.398 38.19-10.875 32.784-3.24 59.536-3.24 59.536s17.212-1.575 27.106-.28c25.303 3.309 32.24 9.577 32.24 9.577s18.966-6.023 24.29-7.172c6.817-1.468 24.275-3.294 24.275-3.294s6.509-34.607-4.799-53.245c-4.539-7.482 15.65-19.248 15.65-19.248l4.64-38.387-5.85-.418s-24.893 15.55-45.62 2.106C53.92 29.322 77.97 6.67 77.97 6.67L77.567.455 28.423 20.829z"/>
        <path id="tclym9q0oI" d="M28.423 20.829s-7.652 21.737-10.07 34.574c-1.435 7.627-7.877 24.551-12.398 38.19-10.875 32.784-3.24 59.536-3.24 59.536s17.212-1.575 27.106-.28c25.303 3.309 32.24 9.577 32.24 9.577s18.966-6.023 24.29-7.172c6.817-1.468 24.275-3.294 24.275-3.294s6.509-34.607-4.799-53.245c-4.539-7.482 15.65-19.248 15.65-19.248l4.64-38.387-5.85-.418s-24.893 15.55-45.62 2.106C53.92 29.322 77.97 6.67 77.97 6.67L77.567.455 28.423 20.829z"/>
        <path id="xhykbbcbyK" d="M28.423 20.829s-7.652 21.737-10.07 34.574c-1.435 7.627-7.877 24.551-12.398 38.19-10.875 32.784-3.24 59.536-3.24 59.536s17.212-1.575 27.106-.28c25.303 3.309 32.24 9.577 32.24 9.577s18.966-6.023 24.29-7.172c6.817-1.468 24.275-3.294 24.275-3.294s6.509-34.607-4.799-53.245c-4.539-7.482 15.65-19.248 15.65-19.248l4.64-38.387-5.85-.418s-24.893 15.55-45.62 2.106C53.92 29.322 77.97 6.67 77.97 6.67L77.567.455 28.423 20.829z"/>
        <path id="2entxr7ptM" d="M28.423 20.829s-7.652 21.737-10.07 34.574c-1.435 7.627-7.877 24.551-12.398 38.19-10.875 32.784-3.24 59.536-3.24 59.536s17.212-1.575 27.106-.28c25.303 3.309 32.24 9.577 32.24 9.577s18.966-6.023 24.29-7.172c6.817-1.468 24.275-3.294 24.275-3.294s6.509-34.607-4.799-53.245c-4.539-7.482 15.65-19.248 15.65-19.248l4.64-38.387-5.85-.418s-24.893 15.55-45.62 2.106C53.92 29.322 77.97 6.67 77.97 6.67L77.567.455 28.423 20.829z"/>
        <path id="lg9ssd5bkO" d="M28.423 20.829s-7.652 21.737-10.07 34.574c-1.435 7.627-7.877 24.551-12.398 38.19-10.875 32.784-3.24 59.536-3.24 59.536s17.212-1.575 27.106-.28c25.303 3.309 32.24 9.577 32.24 9.577s18.966-6.023 24.29-7.172c6.817-1.468 24.275-3.294 24.275-3.294s6.509-34.607-4.799-53.245c-4.539-7.482 15.65-19.248 15.65-19.248l4.64-38.387-5.85-.418s-24.893 15.55-45.62 2.106C53.92 29.322 77.97 6.67 77.97 6.67L77.567.455 28.423 20.829z"/>
        <path id="5v0y76518Q" d="M28.423 20.829s-7.652 21.737-10.07 34.574c-1.435 7.627-7.877 24.551-12.398 38.19-10.875 32.784-3.24 59.536-3.24 59.536s17.212-1.575 27.106-.28c25.303 3.309 32.24 9.577 32.24 9.577s18.966-6.023 24.29-7.172c6.817-1.468 24.275-3.294 24.275-3.294s6.509-34.607-4.799-53.245c-4.539-7.482 15.65-19.248 15.65-19.248l4.64-38.387-5.85-.418s-24.893 15.55-45.62 2.106C53.92 29.322 77.97 6.67 77.97 6.67L77.567.455 28.423 20.829z"/>
        <path id="f4atklfi9S" d="M28.423 20.829s-7.652 21.737-10.07 34.574c-1.435 7.627-7.877 24.551-12.398 38.19-10.875 32.784-3.24 59.536-3.24 59.536s17.212-1.575 27.106-.28c25.303 3.309 32.24 9.577 32.24 9.577s18.966-6.023 24.29-7.172c6.817-1.468 24.275-3.294 24.275-3.294s6.509-34.607-4.799-53.245c-4.539-7.482 15.65-19.248 15.65-19.248l4.64-38.387-5.85-.418s-24.893 15.55-45.62 2.106C53.92 29.322 77.97 6.67 77.97 6.67L77.567.455 28.423 20.829z"/>
        <path id="i9aucxqj1U" d="M28.423 20.829s-7.652 21.737-10.07 34.574c-1.435 7.627-7.877 24.551-12.398 38.19-10.875 32.784-3.24 59.536-3.24 59.536s17.212-1.575 27.106-.28c25.303 3.309 32.24 9.577 32.24 9.577s18.966-6.023 24.29-7.172c6.817-1.468 24.275-3.294 24.275-3.294s6.509-34.607-4.799-53.245c-4.539-7.482 15.65-19.248 15.65-19.248l4.64-38.387-5.85-.418s-24.893 15.55-45.62 2.106C53.92 29.322 77.97 6.67 77.97 6.67L77.567.455 28.423 20.829z"/>
        <path id="m0xp7s45yW" d="M28.423 20.829s-7.652 21.737-10.07 34.574c-1.435 7.627-7.877 24.551-12.398 38.19-10.875 32.784-3.24 59.536-3.24 59.536s17.212-1.575 27.106-.28c25.303 3.309 32.24 9.577 32.24 9.577s18.966-6.023 24.29-7.172c6.817-1.468 24.275-3.294 24.275-3.294s6.509-34.607-4.799-53.245c-4.539-7.482 15.65-19.248 15.65-19.248l4.64-38.387-5.85-.418s-24.893 15.55-45.62 2.106C53.92 29.322 77.97 6.67 77.97 6.67L77.567.455 28.423 20.829z"/>
        <path id="50di9spt6Y" d="M28.423 20.829s-7.652 21.737-10.07 34.574c-1.435 7.627-7.877 24.551-12.398 38.19-10.875 32.784-3.24 59.536-3.24 59.536s17.212-1.575 27.106-.28c25.303 3.309 32.24 9.577 32.24 9.577s18.966-6.023 24.29-7.172c6.817-1.468 24.275-3.294 24.275-3.294s6.509-34.607-4.799-53.245c-4.539-7.482 15.65-19.248 15.65-19.248l4.64-38.387-5.85-.418s-24.893 15.55-45.62 2.106C53.92 29.322 77.97 6.67 77.97 6.67L77.567.455 28.423 20.829z"/>
        <path id="3dtgb5i0raa" d="M28.423 20.829s-7.652 21.737-10.07 34.574c-1.435 7.627-7.877 24.551-12.398 38.19-10.875 32.784-3.24 59.536-3.24 59.536s17.212-1.575 27.106-.28c25.303 3.309 32.24 9.577 32.24 9.577s18.966-6.023 24.29-7.172c6.817-1.468 24.275-3.294 24.275-3.294s6.509-34.607-4.799-53.245c-4.539-7.482 15.65-19.248 15.65-19.248l4.64-38.387-5.85-.418s-24.893 15.55-45.62 2.106C53.92 29.322 77.97 6.67 77.97 6.67L77.567.455 28.423 20.829z"/>
        <path id="spuhnrbnoac" d="M28.423 20.829s-7.652 21.737-10.07 34.574c-1.435 7.627-7.877 24.551-12.398 38.19-10.875 32.784-3.24 59.536-3.24 59.536s17.212-1.575 27.106-.28c25.303 3.309 32.24 9.577 32.24 9.577s18.966-6.023 24.29-7.172c6.817-1.468 24.275-3.294 24.275-3.294s6.509-34.607-4.799-53.245c-4.539-7.482 15.65-19.248 15.65-19.248l4.64-38.387-5.85-.418s-24.893 15.55-45.62 2.106C53.92 29.322 77.97 6.67 77.97 6.67L77.567.455 28.423 20.829z"/>
        <path id="jkmypzjsoae" d="M28.423 20.829s-7.652 21.737-10.07 34.574c-1.435 7.627-7.877 24.551-12.398 38.19-10.875 32.784-3.24 59.536-3.24 59.536s17.212-1.575 27.106-.28c25.303 3.309 32.24 9.577 32.24 9.577s18.966-6.023 24.29-7.172c6.817-1.468 24.275-3.294 24.275-3.294s6.509-34.607-4.799-53.245c-4.539-7.482 15.65-19.248 15.65-19.248l4.64-38.387-5.85-.418s-24.893 15.55-45.62 2.106C53.92 29.322 77.97 6.67 77.97 6.67L77.567.455 28.423 20.829z"/>
        <path id="ogyswy7jzag" d="M28.423 20.829s-7.652 21.737-10.07 34.574c-1.435 7.627-7.877 24.551-12.398 38.19-10.875 32.784-3.24 59.536-3.24 59.536s17.212-1.575 27.106-.28c25.303 3.309 32.24 9.577 32.24 9.577s18.966-6.023 24.29-7.172c6.817-1.468 24.275-3.294 24.275-3.294s6.509-34.607-4.799-53.245c-4.539-7.482 15.65-19.248 15.65-19.248l4.64-38.387-5.85-.418s-24.893 15.55-45.62 2.106C53.92 29.322 77.97 6.67 77.97 6.67L77.567.455 28.423 20.829z"/>
        <path id="68758m74kai" d="M28.423 20.829s-7.652 21.737-10.07 34.574c-1.435 7.627-7.877 24.551-12.398 38.19-10.875 32.784-3.24 59.536-3.24 59.536s17.212-1.575 27.106-.28c25.303 3.309 32.24 9.577 32.24 9.577s18.966-6.023 24.29-7.172c6.817-1.468 24.275-3.294 24.275-3.294s6.509-34.607-4.799-53.245c-4.539-7.482 15.65-19.248 15.65-19.248l4.64-38.387-5.85-.418s-24.893 15.55-45.62 2.106C53.92 29.322 77.97 6.67 77.97 6.67L77.567.455 28.423 20.829z"/>
        <path id="rxblsqnfjak" d="M28.423 20.829s-7.652 21.737-10.07 34.574c-1.435 7.627-7.877 24.551-12.398 38.19-10.875 32.784-3.24 59.536-3.24 59.536s17.212-1.575 27.106-.28c25.303 3.309 32.24 9.577 32.24 9.577s18.966-6.023 24.29-7.172c6.817-1.468 24.275-3.294 24.275-3.294s6.509-34.607-4.799-53.245c-4.539-7.482 15.65-19.248 15.65-19.248l4.64-38.387-5.85-.418s-24.893 15.55-45.62 2.106C53.92 29.322 77.97 6.67 77.97 6.67L77.567.455 28.423 20.829z"/>
        <path id="z95q930hkam" d="M28.423 20.829s-7.652 21.737-10.07 34.574c-1.435 7.627-7.877 24.551-12.398 38.19-10.875 32.784-3.24 59.536-3.24 59.536s17.212-1.575 27.106-.28c25.303 3.309 32.24 9.577 32.24 9.577s18.966-6.023 24.29-7.172c6.817-1.468 24.275-3.294 24.275-3.294s6.509-34.607-4.799-53.245c-4.539-7.482 15.65-19.248 15.65-19.248l4.64-38.387-5.85-.418s-24.893 15.55-45.62 2.106C53.92 29.322 77.97 6.67 77.97 6.67L77.567.455 28.423 20.829z"/>
        <path id="5zal06sy1ao" d="M28.423 20.829s-7.652 21.737-10.07 34.574c-1.435 7.627-7.877 24.551-12.398 38.19-10.875 32.784-3.24 59.536-3.24 59.536s17.212-1.575 27.106-.28c25.303 3.309 32.24 9.577 32.24 9.577s18.966-6.023 24.29-7.172c6.817-1.468 24.275-3.294 24.275-3.294s6.509-34.607-4.799-53.245c-4.539-7.482 15.65-19.248 15.65-19.248l4.64-38.387-5.85-.418s-24.893 15.55-45.62 2.106C53.92 29.322 77.97 6.67 77.97 6.67L77.567.455 28.423 20.829z"/>
        <path id="mi9alr6cdaq" d="M28.423 20.829s-7.652 21.737-10.07 34.574c-1.435 7.627-7.877 24.551-12.398 38.19-10.875 32.784-3.24 59.536-3.24 59.536s17.212-1.575 27.106-.28c25.303 3.309 32.24 9.577 32.24 9.577s18.966-6.023 24.29-7.172c6.817-1.468 24.275-3.294 24.275-3.294s6.509-34.607-4.799-53.245c-4.539-7.482 15.65-19.248 15.65-19.248l4.64-38.387-5.85-.418s-24.893 15.55-45.62 2.106C53.92 29.322 77.97 6.67 77.97 6.67L77.567.455 28.423 20.829z"/>
        <path id="rrhbj8gztas" d="M28.423 20.829s-7.652 21.737-10.07 34.574c-1.435 7.627-7.877 24.551-12.398 38.19-10.875 32.784-3.24 59.536-3.24 59.536s17.212-1.575 27.106-.28c25.303 3.309 32.24 9.577 32.24 9.577s18.966-6.023 24.29-7.172c6.817-1.468 24.275-3.294 24.275-3.294s6.509-34.607-4.799-53.245c-4.539-7.482 15.65-19.248 15.65-19.248l4.64-38.387-5.85-.418s-24.893 15.55-45.62 2.106C53.92 29.322 77.97 6.67 77.97 6.67L77.567.455 28.423 20.829z"/>
        <path id="rslomicdwau" d="M28.423 20.829s-7.652 21.737-10.07 34.574c-1.435 7.627-7.877 24.551-12.398 38.19-10.875 32.784-3.24 59.536-3.24 59.536s17.212-1.575 27.106-.28c25.303 3.309 32.24 9.577 32.24 9.577s18.966-6.023 24.29-7.172c6.817-1.468 24.275-3.294 24.275-3.294s6.509-34.607-4.799-53.245c-4.539-7.482 15.65-19.248 15.65-19.248l4.64-38.387-5.85-.418s-24.893 15.55-45.62 2.106C53.92 29.322 77.97 6.67 77.97 6.67L77.567.455 28.423 20.829z"/>
        <path id="li5xnixdkaw" d="M28.423 20.829s-7.652 21.737-10.07 34.574c-1.435 7.627-7.877 24.551-12.398 38.19-10.875 32.784-3.24 59.536-3.24 59.536s17.212-1.575 27.106-.28c25.303 3.309 32.24 9.577 32.24 9.577s18.966-6.023 24.29-7.172c6.817-1.468 24.275-3.294 24.275-3.294s6.509-34.607-4.799-53.245c-4.539-7.482 15.65-19.248 15.65-19.248l4.64-38.387-5.85-.418s-24.893 15.55-45.62 2.106C53.92 29.322 77.97 6.67 77.97 6.67L77.567.455 28.423 20.829z"/>
        <path id="lr6nxxofyay" d="M28.423 20.829s-7.652 21.737-10.07 34.574c-1.435 7.627-7.877 24.551-12.398 38.19-10.875 32.784-3.24 59.536-3.24 59.536s17.212-1.575 27.106-.28c25.303 3.309 32.24 9.577 32.24 9.577s18.966-6.023 24.29-7.172c6.817-1.468 24.275-3.294 24.275-3.294s6.509-34.607-4.799-53.245c-4.539-7.482 15.65-19.248 15.65-19.248l4.64-38.387-5.85-.418s-24.893 15.55-45.62 2.106C53.92 29.322 77.97 6.67 77.97 6.67L77.567.455 28.423 20.829z"/>
        <path id="6bl8alow6aA" d="M28.423 20.829s-7.652 21.737-10.07 34.574c-1.435 7.627-7.877 24.551-12.398 38.19-10.875 32.784-3.24 59.536-3.24 59.536s17.212-1.575 27.106-.28c25.303 3.309 32.24 9.577 32.24 9.577s18.966-6.023 24.29-7.172c6.817-1.468 24.275-3.294 24.275-3.294s6.509-34.607-4.799-53.245c-4.539-7.482 15.65-19.248 15.65-19.248l4.64-38.387-5.85-.418s-24.893 15.55-45.62 2.106C53.92 29.322 77.97 6.67 77.97 6.67L77.567.455 28.423 20.829z"/>
        <path id="ydnyy5wz7aC" d="M28.423 20.829s-7.652 21.737-10.07 34.574c-1.435 7.627-7.877 24.551-12.398 38.19-10.875 32.784-3.24 59.536-3.24 59.536s17.212-1.575 27.106-.28c25.303 3.309 32.24 9.577 32.24 9.577s18.966-6.023 24.29-7.172c6.817-1.468 24.275-3.294 24.275-3.294s6.509-34.607-4.799-53.245c-4.539-7.482 15.65-19.248 15.65-19.248l4.64-38.387-5.85-.418s-24.893 15.55-45.62 2.106C53.92 29.322 77.97 6.67 77.97 6.67L77.567.455 28.423 20.829z"/>
        <path id="8rxma0pkyaE" d="M28.423 20.829s-7.652 21.737-10.07 34.574c-1.435 7.627-7.877 24.551-12.398 38.19-10.875 32.784-3.24 59.536-3.24 59.536s17.212-1.575 27.106-.28c25.303 3.309 32.24 9.577 32.24 9.577s18.966-6.023 24.29-7.172c6.817-1.468 24.275-3.294 24.275-3.294s6.509-34.607-4.799-53.245c-4.539-7.482 15.65-19.248 15.65-19.248l4.64-38.387-5.85-.418s-24.893 15.55-45.62 2.106C53.92 29.322 77.97 6.67 77.97 6.67L77.567.455 28.423 20.829z"/>
        <path id="oygrtx7x3aG" d="M28.423 20.829s-7.652 21.737-10.07 34.574c-1.435 7.627-7.877 24.551-12.398 38.19-10.875 32.784-3.24 59.536-3.24 59.536s17.212-1.575 27.106-.28c25.303 3.309 32.24 9.577 32.24 9.577s18.966-6.023 24.29-7.172c6.817-1.468 24.275-3.294 24.275-3.294s6.509-34.607-4.799-53.245c-4.539-7.482 15.65-19.248 15.65-19.248l4.64-38.387-5.85-.418s-24.893 15.55-45.62 2.106C53.92 29.322 77.97 6.67 77.97 6.67L77.567.455 28.423 20.829z"/>
        <path id="fup5awf3haI" d="M28.423 20.829s-7.652 21.737-10.07 34.574c-1.435 7.627-7.877 24.551-12.398 38.19-10.875 32.784-3.24 59.536-3.24 59.536s17.212-1.575 27.106-.28c25.303 3.309 32.24 9.577 32.24 9.577s18.966-6.023 24.29-7.172c6.817-1.468 24.275-3.294 24.275-3.294s6.509-34.607-4.799-53.245c-4.539-7.482 15.65-19.248 15.65-19.248l4.64-38.387-5.85-.418s-24.893 15.55-45.62 2.106C53.92 29.322 77.97 6.67 77.97 6.67L77.567.455 28.423 20.829z"/>
        <path id="opvfizvapaK" d="M28.423 20.829s-7.652 21.737-10.07 34.574c-1.435 7.627-7.877 24.551-12.398 38.19-10.875 32.784-3.24 59.536-3.24 59.536s17.212-1.575 27.106-.28c25.303 3.309 32.24 9.577 32.24 9.577s18.966-6.023 24.29-7.172c6.817-1.468 24.275-3.294 24.275-3.294s6.509-34.607-4.799-53.245c-4.539-7.482 15.65-19.248 15.65-19.248l4.64-38.387-5.85-.418s-24.893 15.55-45.62 2.106C53.92 29.322 77.97 6.67 77.97 6.67L77.567.455 28.423 20.829z"/>
        <path id="3zkh2eganaM" d="M28.423 20.829s-7.652 21.737-10.07 34.574c-1.435 7.627-7.877 24.551-12.398 38.19-10.875 32.784-3.24 59.536-3.24 59.536s17.212-1.575 27.106-.28c25.303 3.309 32.24 9.577 32.24 9.577s18.966-6.023 24.29-7.172c6.817-1.468 24.275-3.294 24.275-3.294s6.509-34.607-4.799-53.245c-4.539-7.482 15.65-19.248 15.65-19.248l4.64-38.387-5.85-.418s-24.893 15.55-45.62 2.106C53.92 29.322 77.97 6.67 77.97 6.67L77.567.455 28.423 20.829z"/>
        <path id="2pw7wy4e7aO" d="M28.423 20.829s-7.652 21.737-10.07 34.574c-1.435 7.627-7.877 24.551-12.398 38.19-10.875 32.784-3.24 59.536-3.24 59.536s17.212-1.575 27.106-.28c25.303 3.309 32.24 9.577 32.24 9.577s18.966-6.023 24.29-7.172c6.817-1.468 24.275-3.294 24.275-3.294s6.509-34.607-4.799-53.245c-4.539-7.482 15.65-19.248 15.65-19.248l4.64-38.387-5.85-.418s-24.893 15.55-45.62 2.106C53.92 29.322 77.97 6.67 77.97 6.67L77.567.455 28.423 20.829z"/>
        <path id="htr98wvwqaQ" d="M28.423 20.829s-7.652 21.737-10.07 34.574c-1.435 7.627-7.877 24.551-12.398 38.19-10.875 32.784-3.24 59.536-3.24 59.536s17.212-1.575 27.106-.28c25.303 3.309 32.24 9.577 32.24 9.577s18.966-6.023 24.29-7.172c6.817-1.468 24.275-3.294 24.275-3.294s6.509-34.607-4.799-53.245c-4.539-7.482 15.65-19.248 15.65-19.248l4.64-38.387-5.85-.418s-24.893 15.55-45.62 2.106C53.92 29.322 77.97 6.67 77.97 6.67L77.567.455 28.423 20.829z"/>
        <path id="jb9iijtzzaS" d="M28.423 20.829s-7.652 21.737-10.07 34.574c-1.435 7.627-7.877 24.551-12.398 38.19-10.875 32.784-3.24 59.536-3.24 59.536s17.212-1.575 27.106-.28c25.303 3.309 32.24 9.577 32.24 9.577s18.966-6.023 24.29-7.172c6.817-1.468 24.275-3.294 24.275-3.294s6.509-34.607-4.799-53.245c-4.539-7.482 15.65-19.248 15.65-19.248l4.64-38.387-5.85-.418s-24.893 15.55-45.62 2.106C53.92 29.322 77.97 6.67 77.97 6.67L77.567.455 28.423 20.829z"/>
        <path id="sw3ml7fkqaU" d="M28.423 20.829s-7.652 21.737-10.07 34.574c-1.435 7.627-7.877 24.551-12.398 38.19-10.875 32.784-3.24 59.536-3.24 59.536s17.212-1.575 27.106-.28c25.303 3.309 32.24 9.577 32.24 9.577s18.966-6.023 24.29-7.172c6.817-1.468 24.275-3.294 24.275-3.294s6.509-34.607-4.799-53.245c-4.539-7.482 15.65-19.248 15.65-19.248l4.64-38.387-5.85-.418s-24.893 15.55-45.62 2.106C53.92 29.322 77.97 6.67 77.97 6.67L77.567.455 28.423 20.829z"/>
        <path id="tqp5mgzodaW" d="M28.423 20.829s-7.652 21.737-10.07 34.574c-1.435 7.627-7.877 24.551-12.398 38.19-10.875 32.784-3.24 59.536-3.24 59.536s17.212-1.575 27.106-.28c25.303 3.309 32.24 9.577 32.24 9.577s18.966-6.023 24.29-7.172c6.817-1.468 24.275-3.294 24.275-3.294s6.509-34.607-4.799-53.245c-4.539-7.482 15.65-19.248 15.65-19.248l4.64-38.387-5.85-.418s-24.893 15.55-45.62 2.106C53.92 29.322 77.97 6.67 77.97 6.67L77.567.455 28.423 20.829z"/>
        <path id="69erb8tbjaY" d="M28.423 20.829s-7.652 21.737-10.07 34.574c-1.435 7.627-7.877 24.551-12.398 38.19-10.875 32.784-3.24 59.536-3.24 59.536s17.212-1.575 27.106-.28c25.303 3.309 32.24 9.577 32.24 9.577s18.966-6.023 24.29-7.172c6.817-1.468 24.275-3.294 24.275-3.294s6.509-34.607-4.799-53.245c-4.539-7.482 15.65-19.248 15.65-19.248l4.64-38.387-5.85-.418s-24.893 15.55-45.62 2.106C53.92 29.322 77.97 6.67 77.97 6.67L77.567.455 28.423 20.829z"/>
        <path id="uvuelvr2tba" d="M28.423 20.829s-7.652 21.737-10.07 34.574c-1.435 7.627-7.877 24.551-12.398 38.19-10.875 32.784-3.24 59.536-3.24 59.536s17.212-1.575 27.106-.28c25.303 3.309 32.24 9.577 32.24 9.577s18.966-6.023 24.29-7.172c6.817-1.468 24.275-3.294 24.275-3.294s6.509-34.607-4.799-53.245c-4.539-7.482 15.65-19.248 15.65-19.248l4.64-38.387-5.85-.418s-24.893 15.55-45.62 2.106C53.92 29.322 77.97 6.67 77.97 6.67L77.567.455 28.423 20.829z"/>
        <path id="nqrg6rk1pbc" d="M28.423 20.829s-7.652 21.737-10.07 34.574c-1.435 7.627-7.877 24.551-12.398 38.19-10.875 32.784-3.24 59.536-3.24 59.536s17.212-1.575 27.106-.28c25.303 3.309 32.24 9.577 32.24 9.577s18.966-6.023 24.29-7.172c6.817-1.468 24.275-3.294 24.275-3.294s6.509-34.607-4.799-53.245c-4.539-7.482 15.65-19.248 15.65-19.248l4.64-38.387-5.85-.418s-24.893 15.55-45.62 2.106C53.92 29.322 77.97 6.67 77.97 6.67L77.567.455 28.423 20.829z"/>
        <path id="sit12jd6ebe" d="M28.423 20.829s-7.652 21.737-10.07 34.574c-1.435 7.627-7.877 24.551-12.398 38.19-10.875 32.784-3.24 59.536-3.24 59.536s17.212-1.575 27.106-.28c25.303 3.309 32.24 9.577 32.24 9.577s18.966-6.023 24.29-7.172c6.817-1.468 24.275-3.294 24.275-3.294s6.509-34.607-4.799-53.245c-4.539-7.482 15.65-19.248 15.65-19.248l4.64-38.387-5.85-.418s-24.893 15.55-45.62 2.106C53.92 29.322 77.97 6.67 77.97 6.67L77.567.455 28.423 20.829z"/>
        <path id="z0s7mia70bg" d="M28.423 20.829s-7.652 21.737-10.07 34.574c-1.435 7.627-7.877 24.551-12.398 38.19-10.875 32.784-3.24 59.536-3.24 59.536s17.212-1.575 27.106-.28c25.303 3.309 32.24 9.577 32.24 9.577s18.966-6.023 24.29-7.172c6.817-1.468 24.275-3.294 24.275-3.294s6.509-34.607-4.799-53.245c-4.539-7.482 15.65-19.248 15.65-19.248l4.64-38.387-5.85-.418s-24.893 15.55-45.62 2.106C53.92 29.322 77.97 6.67 77.97 6.67L77.567.455 28.423 20.829z"/>
        <path id="gpbirzrfjbi" d="M28.423 20.829s-7.652 21.737-10.07 34.574c-1.435 7.627-7.877 24.551-12.398 38.19-10.875 32.784-3.24 59.536-3.24 59.536s17.212-1.575 27.106-.28c25.303 3.309 32.24 9.577 32.24 9.577s18.966-6.023 24.29-7.172c6.817-1.468 24.275-3.294 24.275-3.294s6.509-34.607-4.799-53.245c-4.539-7.482 15.65-19.248 15.65-19.248l4.64-38.387-5.85-.418s-24.893 15.55-45.62 2.106C53.92 29.322 77.97 6.67 77.97 6.67L77.567.455 28.423 20.829z"/>
        <path id="cj6zlgjf9bk" d="M28.423 20.829s-7.652 21.737-10.07 34.574c-1.435 7.627-7.877 24.551-12.398 38.19-10.875 32.784-3.24 59.536-3.24 59.536s17.212-1.575 27.106-.28c25.303 3.309 32.24 9.577 32.24 9.577s18.966-6.023 24.29-7.172c6.817-1.468 24.275-3.294 24.275-3.294s6.509-34.607-4.799-53.245c-4.539-7.482 15.65-19.248 15.65-19.248l4.64-38.387-5.85-.418s-24.893 15.55-45.62 2.106C53.92 29.322 77.97 6.67 77.97 6.67L77.567.455 28.423 20.829z"/>
        <path id="1hwmxuhmcbm" d="M28.423 20.829s-7.652 21.737-10.07 34.574c-1.435 7.627-7.877 24.551-12.398 38.19-10.875 32.784-3.24 59.536-3.24 59.536s17.212-1.575 27.106-.28c25.303 3.309 32.24 9.577 32.24 9.577s18.966-6.023 24.29-7.172c6.817-1.468 24.275-3.294 24.275-3.294s6.509-34.607-4.799-53.245c-4.539-7.482 15.65-19.248 15.65-19.248l4.64-38.387-5.85-.418s-24.893 15.55-45.62 2.106C53.92 29.322 77.97 6.67 77.97 6.67L77.567.455 28.423 20.829z"/>
        <path id="qyhmej16ebo" d="M28.423 20.829s-7.652 21.737-10.07 34.574c-1.435 7.627-7.877 24.551-12.398 38.19-10.875 32.784-3.24 59.536-3.24 59.536s17.212-1.575 27.106-.28c25.303 3.309 32.24 9.577 32.24 9.577s18.966-6.023 24.29-7.172c6.817-1.468 24.275-3.294 24.275-3.294s6.509-34.607-4.799-53.245c-4.539-7.482 15.65-19.248 15.65-19.248l4.64-38.387-5.85-.418s-24.893 15.55-45.62 2.106C53.92 29.322 77.97 6.67 77.97 6.67L77.567.455 28.423 20.829z"/>
        <path id="ods1gw4webq" d="M28.423 20.829s-7.652 21.737-10.07 34.574c-1.435 7.627-7.877 24.551-12.398 38.19-10.875 32.784-3.24 59.536-3.24 59.536s17.212-1.575 27.106-.28c25.303 3.309 32.24 9.577 32.24 9.577s18.966-6.023 24.29-7.172c6.817-1.468 24.275-3.294 24.275-3.294s6.509-34.607-4.799-53.245c-4.539-7.482 15.65-19.248 15.65-19.248l4.64-38.387-5.85-.418s-24.893 15.55-45.62 2.106C53.92 29.322 77.97 6.67 77.97 6.67L77.567.455 28.423 20.829z"/>
        <path id="3e4mls8qrbs" d="M80.826 33.622C55.552 44.264 55.552 44.264 38.91 47.528c-14.1 2.768-33.877 2.114-33.877 2.114L.022 76.016S24.566 78.815 33.9 93.4c14.166 22.14 3.3 40.923 3.3 40.923l24.76 12.816s23.19-27.983 53.433-42.239c25.346-11.942 65.929-12.864 65.929-12.864V61.88s-31.442-6.62-37.492-16.906c-2.952-5.021-1.769-13.689-.574-21.213 1.486-9.38 3.028-17.798 3.028-17.798L112.978.008s-6.88 22.97-32.152 33.614"/>
        <path id="zkx8u2vwxbu" d="M80.826 33.622C55.552 44.264 55.552 44.264 38.91 47.528c-14.1 2.768-33.877 2.114-33.877 2.114L.022 76.016S24.566 78.815 33.9 93.4c14.166 22.14 3.3 40.923 3.3 40.923l24.76 12.816s23.19-27.983 53.433-42.239c25.346-11.942 65.929-12.864 65.929-12.864V61.88s-31.442-6.62-37.492-16.906c-2.952-5.021-1.769-13.689-.574-21.213 1.486-9.38 3.028-17.798 3.028-17.798L112.978.008s-6.88 22.97-32.152 33.614"/>
        <path id="h7j77syiabw" d="M80.826 33.622C55.552 44.264 55.552 44.264 38.91 47.528c-14.1 2.768-33.877 2.114-33.877 2.114L.022 76.016S24.566 78.815 33.9 93.4c14.166 22.14 3.3 40.923 3.3 40.923l24.76 12.816s23.19-27.983 53.433-42.239c25.346-11.942 65.929-12.864 65.929-12.864V61.88s-31.442-6.62-37.492-16.906c-2.952-5.021-1.769-13.689-.574-21.213 1.486-9.38 3.028-17.798 3.028-17.798L112.978.008s-6.88 22.97-32.152 33.614"/>
        <path id="jstfr4mmaby" d="M80.826 33.622C55.552 44.264 55.552 44.264 38.91 47.528c-14.1 2.768-33.877 2.114-33.877 2.114L.022 76.016S24.566 78.815 33.9 93.4c14.166 22.14 3.3 40.923 3.3 40.923l24.76 12.816s23.19-27.983 53.433-42.239c25.346-11.942 65.929-12.864 65.929-12.864V61.88s-31.442-6.62-37.492-16.906c-2.952-5.021-1.769-13.689-.574-21.213 1.486-9.38 3.028-17.798 3.028-17.798L112.978.008s-6.88 22.97-32.152 33.614"/>
        <path id="cuddk310dbA" d="M80.826 33.622C55.552 44.264 55.552 44.264 38.91 47.528c-14.1 2.768-33.877 2.114-33.877 2.114L.022 76.016S24.566 78.815 33.9 93.4c14.166 22.14 3.3 40.923 3.3 40.923l24.76 12.816s23.19-27.983 53.433-42.239c25.346-11.942 65.929-12.864 65.929-12.864V61.88s-31.442-6.62-37.492-16.906c-2.952-5.021-1.769-13.689-.574-21.213 1.486-9.38 3.028-17.798 3.028-17.798L112.978.008s-6.88 22.97-32.152 33.614"/>
        <path id="4s9e0ff9jbC" d="M80.826 33.622C55.552 44.264 55.552 44.264 38.91 47.528c-14.1 2.768-33.877 2.114-33.877 2.114L.022 76.016S24.566 78.815 33.9 93.4c14.166 22.14 3.3 40.923 3.3 40.923l24.76 12.816s23.19-27.983 53.433-42.239c25.346-11.942 65.929-12.864 65.929-12.864V61.88s-31.442-6.62-37.492-16.906c-2.952-5.021-1.769-13.689-.574-21.213 1.486-9.38 3.028-17.798 3.028-17.798L112.978.008s-6.88 22.97-32.152 33.614"/>
        <path id="mzu0hyt82bE" d="M80.826 33.622C55.552 44.264 55.552 44.264 38.91 47.528c-14.1 2.768-33.877 2.114-33.877 2.114L.022 76.016S24.566 78.815 33.9 93.4c14.166 22.14 3.3 40.923 3.3 40.923l24.76 12.816s23.19-27.983 53.433-42.239c25.346-11.942 65.929-12.864 65.929-12.864V61.88s-31.442-6.62-37.492-16.906c-2.952-5.021-1.769-13.689-.574-21.213 1.486-9.38 3.028-17.798 3.028-17.798L112.978.008s-6.88 22.97-32.152 33.614"/>
        <path id="cbg4ajop7bG" d="M80.826 33.622C55.552 44.264 55.552 44.264 38.91 47.528c-14.1 2.768-33.877 2.114-33.877 2.114L.022 76.016S24.566 78.815 33.9 93.4c14.166 22.14 3.3 40.923 3.3 40.923l24.76 12.816s23.19-27.983 53.433-42.239c25.346-11.942 65.929-12.864 65.929-12.864V61.88s-31.442-6.62-37.492-16.906c-2.952-5.021-1.769-13.689-.574-21.213 1.486-9.38 3.028-17.798 3.028-17.798L112.978.008s-6.88 22.97-32.152 33.614"/>
        <path id="ifp8mcenbbI" d="M80.826 33.622C55.552 44.264 55.552 44.264 38.91 47.528c-14.1 2.768-33.877 2.114-33.877 2.114L.022 76.016S24.566 78.815 33.9 93.4c14.166 22.14 3.3 40.923 3.3 40.923l24.76 12.816s23.19-27.983 53.433-42.239c25.346-11.942 65.929-12.864 65.929-12.864V61.88s-31.442-6.62-37.492-16.906c-2.952-5.021-1.769-13.689-.574-21.213 1.486-9.38 3.028-17.798 3.028-17.798L112.978.008s-6.88 22.97-32.152 33.614"/>
        <path id="dq3z49m2fbK" d="M80.826 33.622C55.552 44.264 55.552 44.264 38.91 47.528c-14.1 2.768-33.877 2.114-33.877 2.114L.022 76.016S24.566 78.815 33.9 93.4c14.166 22.14 3.3 40.923 3.3 40.923l24.76 12.816s23.19-27.983 53.433-42.239c25.346-11.942 65.929-12.864 65.929-12.864V61.88s-31.442-6.62-37.492-16.906c-2.952-5.021-1.769-13.689-.574-21.213 1.486-9.38 3.028-17.798 3.028-17.798L112.978.008s-6.88 22.97-32.152 33.614"/>
        <path id="zltx4zi3xbM" d="M80.826 33.622C55.552 44.264 55.552 44.264 38.91 47.528c-14.1 2.768-33.877 2.114-33.877 2.114L.022 76.016S24.566 78.815 33.9 93.4c14.166 22.14 3.3 40.923 3.3 40.923l24.76 12.816s23.19-27.983 53.433-42.239c25.346-11.942 65.929-12.864 65.929-12.864V61.88s-31.442-6.62-37.492-16.906c-2.952-5.021-1.769-13.689-.574-21.213 1.486-9.38 3.028-17.798 3.028-17.798L112.978.008s-6.88 22.97-32.152 33.614"/>
        <path id="n0txte0xjbO" d="M80.826 33.622C55.552 44.264 55.552 44.264 38.91 47.528c-14.1 2.768-33.877 2.114-33.877 2.114L.022 76.016S24.566 78.815 33.9 93.4c14.166 22.14 3.3 40.923 3.3 40.923l24.76 12.816s23.19-27.983 53.433-42.239c25.346-11.942 65.929-12.864 65.929-12.864V61.88s-31.442-6.62-37.492-16.906c-2.952-5.021-1.769-13.689-.574-21.213 1.486-9.38 3.028-17.798 3.028-17.798L112.978.008s-6.88 22.97-32.152 33.614"/>
        <path id="uwl0uqoiebQ" d="M80.826 33.622C55.552 44.264 55.552 44.264 38.91 47.528c-14.1 2.768-33.877 2.114-33.877 2.114L.022 76.016S24.566 78.815 33.9 93.4c14.166 22.14 3.3 40.923 3.3 40.923l24.76 12.816s23.19-27.983 53.433-42.239c25.346-11.942 65.929-12.864 65.929-12.864V61.88s-31.442-6.62-37.492-16.906c-2.952-5.021-1.769-13.689-.574-21.213 1.486-9.38 3.028-17.798 3.028-17.798L112.978.008s-6.88 22.97-32.152 33.614"/>
        <path id="qee7d891rbS" d="M80.826 33.622C55.552 44.264 55.552 44.264 38.91 47.528c-14.1 2.768-33.877 2.114-33.877 2.114L.022 76.016S24.566 78.815 33.9 93.4c14.166 22.14 3.3 40.923 3.3 40.923l24.76 12.816s23.19-27.983 53.433-42.239c25.346-11.942 65.929-12.864 65.929-12.864V61.88s-31.442-6.62-37.492-16.906c-2.952-5.021-1.769-13.689-.574-21.213 1.486-9.38 3.028-17.798 3.028-17.798L112.978.008s-6.88 22.97-32.152 33.614"/>
        <path id="9yiylahlybU" d="M80.826 33.622C55.552 44.264 55.552 44.264 38.91 47.528c-14.1 2.768-33.877 2.114-33.877 2.114L.022 76.016S24.566 78.815 33.9 93.4c14.166 22.14 3.3 40.923 3.3 40.923l24.76 12.816s23.19-27.983 53.433-42.239c25.346-11.942 65.929-12.864 65.929-12.864V61.88s-31.442-6.62-37.492-16.906c-2.952-5.021-1.769-13.689-.574-21.213 1.486-9.38 3.028-17.798 3.028-17.798L112.978.008s-6.88 22.97-32.152 33.614"/>
        <path id="zlvz0q786bW" d="M80.826 33.622C55.552 44.264 55.552 44.264 38.91 47.528c-14.1 2.768-33.877 2.114-33.877 2.114L.022 76.016S24.566 78.815 33.9 93.4c14.166 22.14 3.3 40.923 3.3 40.923l24.76 12.816s23.19-27.983 53.433-42.239c25.346-11.942 65.929-12.864 65.929-12.864V61.88s-31.442-6.62-37.492-16.906c-2.952-5.021-1.769-13.689-.574-21.213 1.486-9.38 3.028-17.798 3.028-17.798L112.978.008s-6.88 22.97-32.152 33.614"/>
        <path id="6yjqfyp7hbY" d="M80.826 33.622C55.552 44.264 55.552 44.264 38.91 47.528c-14.1 2.768-33.877 2.114-33.877 2.114L.022 76.016S24.566 78.815 33.9 93.4c14.166 22.14 3.3 40.923 3.3 40.923l24.76 12.816s23.19-27.983 53.433-42.239c25.346-11.942 65.929-12.864 65.929-12.864V61.88s-31.442-6.62-37.492-16.906c-2.952-5.021-1.769-13.689-.574-21.213 1.486-9.38 3.028-17.798 3.028-17.798L112.978.008s-6.88 22.97-32.152 33.614"/>
        <path id="b7gcg7povca" d="M80.826 33.622C55.552 44.264 55.552 44.264 38.91 47.528c-14.1 2.768-33.877 2.114-33.877 2.114L.022 76.016S24.566 78.815 33.9 93.4c14.166 22.14 3.3 40.923 3.3 40.923l24.76 12.816s23.19-27.983 53.433-42.239c25.346-11.942 65.929-12.864 65.929-12.864V61.88s-31.442-6.62-37.492-16.906c-2.952-5.021-1.769-13.689-.574-21.213 1.486-9.38 3.028-17.798 3.028-17.798L112.978.008s-6.88 22.97-32.152 33.614"/>
        <path id="iaoejzruzcc" d="M80.826 33.622C55.552 44.264 55.552 44.264 38.91 47.528c-14.1 2.768-33.877 2.114-33.877 2.114L.022 76.016S24.566 78.815 33.9 93.4c14.166 22.14 3.3 40.923 3.3 40.923l24.76 12.816s23.19-27.983 53.433-42.239c25.346-11.942 65.929-12.864 65.929-12.864V61.88s-31.442-6.62-37.492-16.906c-2.952-5.021-1.769-13.689-.574-21.213 1.486-9.38 3.028-17.798 3.028-17.798L112.978.008s-6.88 22.97-32.152 33.614"/>
        <path id="i995isabrce" d="M80.826 33.622C55.552 44.264 55.552 44.264 38.91 47.528c-14.1 2.768-33.877 2.114-33.877 2.114L.022 76.016S24.566 78.815 33.9 93.4c14.166 22.14 3.3 40.923 3.3 40.923l24.76 12.816s23.19-27.983 53.433-42.239c25.346-11.942 65.929-12.864 65.929-12.864V61.88s-31.442-6.62-37.492-16.906c-2.952-5.021-1.769-13.689-.574-21.213 1.486-9.38 3.028-17.798 3.028-17.798L112.978.008s-6.88 22.97-32.152 33.614"/>
    </defs>
    <g fill="none" fill-rule="evenodd">
        <g>
            <path fill="#F496A4" d="M28.283 74.033S40.598 42.85 60.72 24.095C75.895 9.953 100.367-2.932 101.568.697c1.2 3.631-1.3 3.328 0 4.44 1.303 1.107 4.105-2.018 6.308-.303 2.203 1.716-4.806 5.244-3.705 6.554 1.102 1.31 4.095-.603 4.11 1.919.028 3.728-12.539 3.556-21.43 15.426-8.31 11.095-9.711 24.809-9.711 24.809l-48.857 20.49zM123.495 94.886s13.215-2.725 23.125-12.1c9.913-9.38 10.816-14.22 13.218-13.617 2.402.609 1.71 3.724 3.003 3.631 2.563-.177 3.305-4.59 6.907-3.022 3.606 1.56.102 5.344 1.601 5.947 1.505.604 3.106-1.21 4.105 2.522.74 2.756-19.122 24.202-34.24 37.816-12.192 10.979-20.425 16.942-20.425 16.942l2.706-38.119zM77.54 59.793s1.202 8.169 9.911 17.545c8.712 9.379 30.035 16.945 30.035 16.945s-16.119 12.072-35.14 6.78c-27.633-7.69-23.726-33.404-4.805-41.27" transform="translate(-224 -6994) rotate(-90 3874 3649.5) rotate(-16 411.302 56.483) translate(19.502 140.334)"/>
            <g transform="translate(-224 -6994) rotate(-90 3874 3649.5) rotate(-16 411.302 56.483) translate(19.502 140.334) translate(2.55 205.805)">
                <mask id="bntos1npub" fill="#fff"><use xlink:href="#612nuel8ka"/></mask>
                <path fill="#F496A4" d="M118.38 97.132c-2.848-3.033-9.768-4.211-15.063-4.694-6.948-.635-7.843-9.659-13.513-12.702-1.492-2.753-7.058-13.039-13.422-25.286-3.406-6.557-9.118-14.138-12.414-20.47-2.109-4.05-2.805-7.86-3.504-12.002-.645-3.81-.836-7.753-.772-11.507l-.52.164s-6.895-6.305-32.05-9.633C17.322-.295.307 1.274.185 1.287c2.807 17.463 9.847 37.387 25.849 54.182C64.077 95.404 84.3 99.641 84.3 99.641l.031-.097c3.011 5.514 7.6 11.931 13.376 13.773 5.657 1.805 7.921.87 10.211.19.388-.116 4.268-.434 5.03-1.554.827-1.207-.624-2.034-.336-2.458.201-.298 3.266-.706 4.166-1.32.938-.644-.617-2.48-.413-2.873.26-.499 3.141.303 3.83-1.023.413-.793-.985-1.74-.854-2.116.385-1.089 3.995-.67 2.394-3.37-.413-.693-2.772-1.04-3.356-1.66" mask="url(#bntos1npub)"/>
            </g>
            <path fill="#F06140" d="M120.79 133.004l4.615-38.604-5.815-.42s-24.75 15.642-45.354 2.115C53.635 82.571 77.54 59.792 77.54 59.792l-.4-6.25-48.857 20.49s-7.61 21.863-10.012 34.77c-1.428 7.671-7.828 24.696-12.325 38.41-10.814 32.974-3.223 59.88-3.223 59.88h.013c.122-.012 17.136-1.581 26.937-.285 25.155 3.329 32.05 9.634 32.05 9.634l.52-.165c2.95-.942 18.831-6.002 23.63-7.047 6.772-1.476 24.11-3.31 24.13-3.313h.002s6.471-34.806-4.77-53.55c-4.516-7.528 15.555-19.362 15.555-19.362" transform="translate(-224 -6994) rotate(-90 3874 3649.5) rotate(-16 411.302 56.483) translate(19.502 140.334)"/>
            <path fill="#EE3F2E" d="M130.092 78.274c-1.44 2.768-3.47 2.992-2.588 4.504.887 1.513 4.09.2 4.79-2.725.702-2.922-1.282-3.544-2.202-1.78" transform="translate(-224 -6994) rotate(-90 3874 3649.5) rotate(-16 411.302 56.483) translate(19.502 140.334)"/>
        </g>
        <g>
            <g transform="translate(-224 -6994) rotate(-90 3874 3649.5) rotate(-16 411.302 56.483) translate(19.551 193.696)">
                <mask id="jvbn41zl4d" fill="#fff"><use xlink:href="#cs9q7tnvmc"/></mask>
                <path stroke="#FEFEFE" stroke-width=".25" d="M98.556 182.11s-2.662-2.05-3.975.01c-1.316 2.059 2.4 3.282 2.4 3.282s-1.782 1.458.36 3.102c2.18 1.67 3.99.337 3.99.337s-.092 1.673 2.124 1.885c1.551.15 1.675-1.663 1.675-1.663s3.098 1.839 4.067-.408c.764-1.772-3.552-3.24-3.552-3.24s1.031-1.497-.285-2.529c-1.315-1.036-3.013.02-3.013.02s-1.013-3.663-3.79-.796z" mask="url(#jvbn41zl4d)"/>
            </g>
            <g transform="translate(-224 -6994) rotate(-90 3874 3649.5) rotate(-16 411.302 56.483) translate(19.551 193.696)">
                <mask id="wbzypk2n4f" fill="#fff"><use xlink:href="#556hvg3iue"/></mask>
                <path stroke="#FEFEFE" stroke-width=".25" d="M105.537 164.129s-2.663-2.05-3.976.01c-1.315 2.058 2.4 3.281 2.4 3.281s-1.784 1.456.36 3.1c2.18 1.673 3.99.34 3.99.34s-.092 1.672 2.121 1.884c1.555.15 1.678-1.662 1.678-1.662s3.098 1.838 4.067-.409c.765-1.772-3.552-3.24-3.552-3.24s1.031-1.497-.284-2.53c-1.316-1.035-3.016.022-3.016.022s-1.013-3.664-3.788-.796z" mask="url(#wbzypk2n4f)"/>
            </g>
            <g transform="translate(-224 -6994) rotate(-90 3874 3649.5) rotate(-16 411.302 56.483) translate(19.551 193.696)">
                <mask id="k51afg22ch" fill="#fff"><use xlink:href="#gfy8evpeag"/></mask>
                <path stroke="#FEFEFE" stroke-width=".25" d="M112.516 146.147s-2.663-2.05-3.976.008c-1.315 2.06 2.4 3.283 2.4 3.283s-1.782 1.456.36 3.1c2.182 1.673 3.99.34 3.99.34s-.092 1.673 2.124 1.884c1.552.149 1.675-1.662 1.675-1.662s3.098 1.839 4.067-.408c.765-1.772-3.552-3.24-3.552-3.24s1.031-1.497-.284-2.531c-1.316-1.037-3.014.023-3.014.023s-1.013-3.664-3.79-.797z" mask="url(#k51afg22ch)"/>
            </g>
            <g transform="translate(-224 -6994) rotate(-90 3874 3649.5) rotate(-16 411.302 56.483) translate(19.551 193.696)">
                <mask id="oruw95lv5j" fill="#fff"><use xlink:href="#r494v3p7ci"/></mask>
                <path stroke="#FEFEFE" stroke-width=".25" d="M119.495 128.166s-2.662-2.05-3.975.007c-1.315 2.061 2.4 3.284 2.4 3.284s-1.782 1.456.36 3.1c2.18 1.673 3.99.34 3.99.34s-.092 1.672 2.124 1.884c1.552.148 1.675-1.662 1.675-1.662s3.098 1.838 4.067-.409c.765-1.772-3.552-3.24-3.552-3.24s1.031-1.496-.284-2.53c-1.316-1.037-3.014.022-3.014.022s-1.016-3.664-3.79-.796z" mask="url(#oruw95lv5j)"/>
            </g>
            <g transform="translate(-224 -6994) rotate(-90 3874 3649.5) rotate(-16 411.302 56.483) translate(19.551 193.696)">
                <mask id="awzy9gbkul" fill="#fff"><use xlink:href="#zc79q0sypk"/></mask>
                <path stroke="#FEFEFE" stroke-width=".25" d="M126.474 110.182s-2.662-2.048-3.975.01c-1.315 2.06 2.4 3.284 2.4 3.284s-1.782 1.455.36 3.1c2.182 1.672 3.99.34 3.99.34s-.092 1.672 2.124 1.884c1.552.148 1.675-1.663 1.675-1.663s3.098 1.839 4.067-.41c.764-1.77-3.552-3.239-3.552-3.239s1.031-1.496-.285-2.53c-1.315-1.037-3.013.02-3.013.02s-1.013-3.661-3.79-.796z" mask="url(#awzy9gbkul)"/>
            </g>
            <g transform="translate(-224 -6994) rotate(-90 3874 3649.5) rotate(-16 411.302 56.483) translate(19.551 193.696)">
                <mask id="lrm3j4sldn" fill="#fff"><use xlink:href="#c4tz3tlz0m"/></mask>
                <path stroke="#FEFEFE" stroke-width=".25" d="M133.455 92.2s-2.662-2.05-3.976.01c-1.315 2.058 2.4 3.284 2.4 3.284s-1.781 1.456.36 3.1c2.18 1.67 3.99.337 3.99.337s-.092 1.673 2.124 1.884c1.552.151 1.675-1.662 1.675-1.662s3.098 1.841 4.067-.408c.765-1.772-3.552-3.24-3.552-3.24s1.031-1.497-.284-2.529c-1.316-1.036-3.014.02-3.014.02s-1.013-3.663-3.79-.796z" mask="url(#lrm3j4sldn)"/>
            </g>
            <g transform="translate(-224 -6994) rotate(-90 3874 3649.5) rotate(-16 411.302 56.483) translate(19.551 193.696)">
                <mask id="953k1cwabp" fill="#fff"><use xlink:href="#7tt6br76co"/></mask>
                <path stroke="#FEFEFE" stroke-width=".25" d="M140.434 74.219s-2.663-2.05-3.976.01c-1.315 2.058 2.4 3.28 2.4 3.28s-1.782 1.459.36 3.103c2.182 1.67 3.99.337 3.99.337s-.092 1.673 2.124 1.885c1.552.15 1.675-1.662 1.675-1.662s3.098 1.838 4.067-.409c.765-1.772-3.552-3.24-3.552-3.24s1.031-1.497-.284-2.528c-1.316-1.037-3.014.02-3.014.02s-1.013-3.664-3.79-.796z" mask="url(#953k1cwabp)"/>
            </g>
            <g transform="translate(-224 -6994) rotate(-90 3874 3649.5) rotate(-16 411.302 56.483) translate(19.551 193.696)">
                <mask id="1pej4n4i3r" fill="#fff"><use xlink:href="#kp73usuufq"/></mask>
                <path stroke="#FEFEFE" stroke-width=".25" d="M147.414 56.237s-2.662-2.05-3.975.01c-1.316 2.058 2.4 3.281 2.4 3.281s-1.782 1.456.36 3.1c2.18 1.673 3.99.34 3.99.34s-.093 1.672 2.123 1.884c1.552.151 1.675-1.662 1.675-1.662s3.098 1.839 4.068-.408c.764-1.773-3.552-3.24-3.552-3.24s1.03-1.497-.285-2.531c-1.316-1.035-3.014.023-3.014.023s-1.013-3.665-3.79-.797z" mask="url(#1pej4n4i3r)"/>
            </g>
            <g transform="translate(-224 -6994) rotate(-90 3874 3649.5) rotate(-16 411.302 56.483) translate(19.551 193.696)">
                <mask id="k2gcqjqawt" fill="#fff"><use xlink:href="#0rxnr5dkgs"/></mask>
                <path stroke="#FEFEFE" stroke-width=".25" d="M154.394 38.255s-2.662-2.05-3.975.008c-1.316 2.06 2.4 3.284 2.4 3.284s-1.785 1.455.36 3.1c2.18 1.672 3.99.34 3.99.34s-.092 1.672 2.121 1.884c1.554.148 1.677-1.663 1.677-1.663s3.098 1.839 4.068-.408c.764-1.772-3.552-3.24-3.552-3.24s1.03-1.497-.285-2.53c-1.316-1.038-3.016.022-3.016.022s-1.013-3.664-3.788-.797z" mask="url(#k2gcqjqawt)"/>
            </g>
            <g transform="translate(-224 -6994) rotate(-90 3874 3649.5) rotate(-16 411.302 56.483) translate(19.551 193.696)">
                <mask id="4l3ba3kqtv" fill="#fff"><use xlink:href="#e1xs4jpf6u"/></mask>
                <path stroke="#FEFEFE" stroke-width=".25" d="M161.373 20.274s-2.662-2.05-3.975.007c-1.316 2.061 2.4 3.284 2.4 3.284s-1.782 1.456.36 3.1c2.182 1.673 3.99.34 3.99.34s-.092 1.672 2.123 1.884c1.552.148 1.675-1.662 1.675-1.662s3.098 1.838 4.068-.411c.764-1.77-3.552-3.238-3.552-3.238s1.03-1.496-.285-2.53c-1.316-1.037-3.013.023-3.013.023s-1.013-3.665-3.791-.797z" mask="url(#4l3ba3kqtv)"/>
            </g>
            <g transform="translate(-224 -6994) rotate(-90 3874 3649.5) rotate(-16 411.302 56.483) translate(19.551 193.696)">
                <mask id="rp9loaynex" fill="#fff"><use xlink:href="#bhj0vppf9w"/></mask>
                <path stroke="#FEFEFE" stroke-width=".25" d="M73.156 182.671s-2.662-2.05-3.975.01c-1.315 2.059 2.4 3.282 2.4 3.282s-1.782 1.458.36 3.102c2.182 1.67 3.99.337 3.99.337s-.092 1.673 2.124 1.885c1.552.15 1.675-1.662 1.675-1.662s3.098 1.838 4.067-.409c.765-1.772-3.552-3.24-3.552-3.24s1.031-1.497-.284-2.528c-1.316-1.037-3.014.02-3.014.02s-1.013-3.664-3.79-.797z" mask="url(#rp9loaynex)"/>
            </g>
            <g transform="translate(-224 -6994) rotate(-90 3874 3649.5) rotate(-16 411.302 56.483) translate(19.551 193.696)">
                <mask id="dqhmu9ycpz" fill="#fff"><use xlink:href="#ido1spqnry"/></mask>
                <path stroke="#FEFEFE" stroke-width=".25" d="M80.137 164.69s-2.662-2.05-3.976.01c-1.315 2.058 2.401 3.281 2.401 3.281s-1.782 1.456.36 3.1c2.182 1.673 3.99.34 3.99.34s-.093 1.672 2.123 1.884c1.552.151 1.675-1.662 1.675-1.662s3.098 1.838 4.067-.409c.765-1.772-3.552-3.24-3.552-3.24s1.031-1.496-.284-2.53c-1.316-1.035-3.014.023-3.014.023s-1.013-3.665-3.79-.797z" mask="url(#dqhmu9ycpz)"/>
            </g>
            <g transform="translate(-224 -6994) rotate(-90 3874 3649.5) rotate(-16 411.302 56.483) translate(19.551 193.696)">
                <mask id="508lx23h0B" fill="#fff"><use xlink:href="#1oj9guai1A"/></mask>
                <path stroke="#FEFEFE" stroke-width=".25" d="M87.117 146.708s-2.662-2.05-3.976.008c-1.315 2.06 2.401 3.284 2.401 3.284s-1.782 1.455.359 3.1c2.18 1.672 3.99.34 3.99.34s-.092 1.672 2.122 1.884c1.554.148 1.677-1.663 1.677-1.663s3.098 1.839 4.067-.408c.765-1.772-3.552-3.24-3.552-3.24s1.031-1.497-.284-2.531c-1.316-1.037-3.016.023-3.016.023s-1.013-3.664-3.788-.797z" mask="url(#508lx23h0B)"/>
            </g>
            <g transform="translate(-224 -6994) rotate(-90 3874 3649.5) rotate(-16 411.302 56.483) translate(19.551 193.696)">
                <mask id="ic7f5wk87D" fill="#fff"><use xlink:href="#8pco934n8C"/></mask>
                <path stroke="#FEFEFE" stroke-width=".25" d="M94.096 128.727s-2.662-2.05-3.976.007c-1.315 2.061 2.4 3.284 2.4 3.284s-1.782 1.456.36 3.1c2.183 1.673 3.99.34 3.99.34s-.092 1.672 2.124 1.884c1.552.148 1.675-1.662 1.675-1.662s3.098 1.838 4.067-.409c.765-1.772-3.552-3.24-3.552-3.24s1.031-1.496-.284-2.53c-1.316-1.037-3.014.022-3.014.022s-1.013-3.664-3.79-.796z" mask="url(#ic7f5wk87D)"/>
            </g>
            <g transform="translate(-224 -6994) rotate(-90 3874 3649.5) rotate(-16 411.302 56.483) translate(19.551 193.696)">
                <mask id="mnoot36rpF" fill="#fff"><use xlink:href="#dfecdfcjuE"/></mask>
                <path stroke="#FEFEFE" stroke-width=".25" d="M101.076 110.743s-2.662-2.05-3.975.01c-1.316 2.06 2.4 3.284 2.4 3.284s-1.782 1.455.36 3.1c2.18 1.672 3.99.34 3.99.34s-.093 1.672 2.123 1.884c1.552.148 1.675-1.663 1.675-1.663s3.098 1.839 4.068-.41c.764-1.773-3.552-3.239-3.552-3.239s1.03-1.496-.285-2.53c-1.316-1.037-3.014.02-3.014.02s-1.015-3.661-3.79-.796z" mask="url(#mnoot36rpF)"/>
            </g>
            <g transform="translate(-224 -6994) rotate(-90 3874 3649.5) rotate(-16 411.302 56.483) translate(19.551 193.696)">
                <mask id="4ani0iaqbH" fill="#fff"><use xlink:href="#hcff8yir3G"/></mask>
                <path stroke="#FEFEFE" stroke-width=".25" d="M108.055 92.761s-2.662-2.05-3.975.01c-1.316 2.058 2.4 3.282 2.4 3.282s-1.782 1.458.36 3.102c2.182 1.67 3.99.337 3.99.337s-.093 1.673 2.123 1.884c1.552.151 1.675-1.662 1.675-1.662s3.098 1.839 4.068-.408c.764-1.772-3.552-3.24-3.552-3.24s1.03-1.497-.285-2.529c-1.316-1.036-3.014.02-3.014.02s-1.013-3.663-3.79-.796z" mask="url(#4ani0iaqbH)"/>
            </g>
            <g transform="translate(-224 -6994) rotate(-90 3874 3649.5) rotate(-16 411.302 56.483) translate(19.551 193.696)">
                <mask id="lqd7o9uq5J" fill="#fff"><use xlink:href="#tclym9q0oI"/></mask>
                <path stroke="#FEFEFE" stroke-width=".25" d="M115.035 74.78s-2.662-2.05-3.975.01c-1.316 2.058 2.4 3.28 2.4 3.28s-1.782 1.459.36 3.1c2.18 1.673 3.99.34 3.99.34s-.092 1.673 2.124 1.885c1.551.15 1.674-1.662 1.674-1.662s3.098 1.838 4.068-.409c.764-1.772-3.552-3.24-3.552-3.24s1.03-1.497-.285-2.53c-1.316-1.035-3.013.022-3.013.022s-1.013-3.664-3.791-.796z" mask="url(#lqd7o9uq5J)"/>
            </g>
            <g transform="translate(-224 -6994) rotate(-90 3874 3649.5) rotate(-16 411.302 56.483) translate(19.551 193.696)">
                <mask id="ozdr7ffflL" fill="#fff"><use xlink:href="#xhykbbcbyK"/></mask>
                <path stroke="#FEFEFE" stroke-width=".25" d="M122.014 56.798s-2.662-2.05-3.975.008c-1.316 2.06 2.4 3.283 2.4 3.283s-1.782 1.456.36 3.1c2.182 1.673 3.99.34 3.99.34s-.092 1.672 2.123 1.884c1.552.151 1.675-1.662 1.675-1.662s3.098 1.839 4.068-.409c.764-1.772-3.552-3.24-3.552-3.24s1.03-1.496-.285-2.53c-1.316-1.035-3.013.023-3.013.023s-1.014-3.665-3.791-.797z" mask="url(#ozdr7ffflL)"/>
            </g>
            <g transform="translate(-224 -6994) rotate(-90 3874 3649.5) rotate(-16 411.302 56.483) translate(19.551 193.696)">
                <mask id="52vw8e9i5N" fill="#fff"><use xlink:href="#2entxr7ptM"/></mask>
                <path stroke="#FEFEFE" stroke-width=".25" d="M128.994 38.816s-2.662-2.05-3.975.008c-1.316 2.06 2.4 3.284 2.4 3.284s-1.782 1.455.36 3.1c2.182 1.672 3.99.34 3.99.34s-.092 1.672 2.123 1.884c1.552.148 1.675-1.663 1.675-1.663s3.098 1.839 4.068-.408c.764-1.772-3.552-3.24-3.552-3.24s1.03-1.497-.285-2.53c-1.316-1.038-3.014.022-3.014.022s-1.013-3.664-3.79-.797z" mask="url(#52vw8e9i5N)"/>
            </g>
            <g transform="translate(-224 -6994) rotate(-90 3874 3649.5) rotate(-16 411.302 56.483) translate(19.551 193.696)">
                <mask id="422uuqew5P" fill="#fff"><use xlink:href="#lg9ssd5bkO"/></mask>
                <path stroke="#FEFEFE" stroke-width=".25" d="M135.974 20.835s-2.662-2.05-3.975.008c-1.316 2.06 2.4 3.283 2.4 3.283s-1.782 1.456.36 3.1c2.18 1.673 3.99.34 3.99.34s-.092 1.673 2.121 1.884c1.554.149 1.677-1.662 1.677-1.662s3.098 1.839 4.068-.41c.764-1.77-3.552-3.239-3.552-3.239s1.03-1.496-.285-2.53c-1.315-1.037-3.016.023-3.016.023s-1.013-3.664-3.788-.797z" mask="url(#422uuqew5P)"/>
            </g>
            <g transform="translate(-224 -6994) rotate(-90 3874 3649.5) rotate(-16 411.302 56.483) translate(19.551 193.696)">
                <mask id="i5dhzx4nyR" fill="#fff"><use xlink:href="#5v0y76518Q"/></mask>
                <path stroke="#FEFEFE" stroke-width=".25" d="M55.393 165.503s-2.662-2.05-3.975.01c-1.316 2.058 2.4 3.281 2.4 3.281s-1.782 1.458.36 3.103c2.182 1.67 3.99.337 3.99.337s-.092 1.672 2.123 1.884c1.552.15 1.675-1.662 1.675-1.662s3.098 1.838 4.068-.409c.764-1.772-3.552-3.24-3.552-3.24s1.03-1.496-.285-2.53c-1.316-1.035-3.014.022-3.014.022s-1.013-3.664-3.79-.796z" mask="url(#i5dhzx4nyR)"/>
            </g>
            <g transform="translate(-224 -6994) rotate(-90 3874 3649.5) rotate(-16 411.302 56.483) translate(19.551 193.696)">
                <mask id="8ap2krhkcT" fill="#fff"><use xlink:href="#f4atklfi9S"/></mask>
                <path stroke="#FEFEFE" stroke-width=".25" d="M62.373 147.521s-2.662-2.05-3.975.01c-1.316 2.058 2.4 3.282 2.4 3.282s-1.782 1.455.36 3.1c2.18 1.672 3.99.339 3.99.339s-.092 1.673 2.124 1.885c1.551.15 1.674-1.663 1.674-1.663s3.098 1.839 4.068-.408c.764-1.772-3.552-3.24-3.552-3.24s1.03-1.497-.285-2.531-3.013.023-3.013.023-1.016-3.664-3.79-.797z" mask="url(#8ap2krhkcT)"/>
            </g>
            <g transform="translate(-224 -6994) rotate(-90 3874 3649.5) rotate(-16 411.302 56.483) translate(19.551 193.696)">
                <mask id="u3tsy39ohV" fill="#fff"><use xlink:href="#i9aucxqj1U"/></mask>
                <path stroke="#FEFEFE" stroke-width=".25" d="M69.352 129.54s-2.662-2.05-3.975.007c-1.316 2.06 2.4 3.284 2.4 3.284s-1.782 1.455.36 3.1c2.182 1.672 3.99.34 3.99.34s-.092 1.672 2.124 1.884c1.551.148 1.674-1.662 1.674-1.662s3.098 1.838 4.068-.409c.764-1.772-3.552-3.24-3.552-3.24s1.03-1.497-.285-2.53c-1.316-1.037-3.013.022-3.013.022s-1.013-3.664-3.79-.796z" mask="url(#u3tsy39ohV)"/>
            </g>
            <g transform="translate(-224 -6994) rotate(-90 3874 3649.5) rotate(-16 411.302 56.483) translate(19.551 193.696)">
                <mask id="omj81uixgX" fill="#fff"><use xlink:href="#m0xp7s45yW"/></mask>
                <path stroke="#FEFEFE" stroke-width=".25" d="M76.332 111.558s-2.662-2.05-3.975.008c-1.316 2.06 2.4 3.284 2.4 3.284s-1.782 1.455.36 3.1c2.18 1.672 3.99.34 3.99.34s-.092 1.672 2.124 1.884c1.551.148 1.675-1.663 1.675-1.663s3.098 1.839 4.067-.41c.764-1.77-3.552-3.239-3.552-3.239s1.031-1.496-.285-2.53c-1.315-1.037-3.013.023-3.013.023s-1.013-3.664-3.79-.797z" mask="url(#omj81uixgX)"/>
            </g>
            <g transform="translate(-224 -6994) rotate(-90 3874 3649.5) rotate(-16 411.302 56.483) translate(19.551 193.696)">
                <mask id="su8whiy9wZ" fill="#fff"><use xlink:href="#50di9spt6Y"/></mask>
                <path stroke="#FEFEFE" stroke-width=".25" d="M83.311 93.574s-2.662-2.05-3.975.01c-1.316 2.061 2.4 3.284 2.4 3.284s-1.782 1.456.36 3.1c2.182 1.67 3.99.337 3.99.337s-.092 1.675 2.123 1.885c1.552.15 1.675-1.66 1.675-1.66s3.098 1.838 4.068-.411c.764-1.772-3.552-3.24-3.552-3.24s1.03-1.494-.285-2.529c-1.316-1.036-3.013.02-3.013.02s-1.013-3.663-3.791-.796z" mask="url(#su8whiy9wZ)"/>
            </g>
            <g transform="translate(-224 -6994) rotate(-90 3874 3649.5) rotate(-16 411.302 56.483) translate(19.551 193.696)">
                <mask id="lzzur61d8ab" fill="#fff"><use xlink:href="#3dtgb5i0raa"/></mask>
                <path stroke="#FEFEFE" stroke-width=".25" d="M90.291 75.593s-2.662-2.05-3.975.01c-1.316 2.058 2.4 3.281 2.4 3.281s-1.782 1.458.36 3.102c2.18 1.67 3.99.337 3.99.337s-.092 1.673 2.124 1.885c1.551.15 1.674-1.662 1.674-1.662s3.099 1.838 4.068-.409c.764-1.772-3.552-3.24-3.552-3.24s1.03-1.497-.285-2.528c-1.315-1.037-3.013.02-3.013.02s-1.013-3.664-3.79-.796z" mask="url(#lzzur61d8ab)"/>
            </g>
            <g transform="translate(-224 -6994) rotate(-90 3874 3649.5) rotate(-16 411.302 56.483) translate(19.551 193.696)">
                <mask id="xkz8ci3huad" fill="#fff"><use xlink:href="#spuhnrbnoac"/></mask>
                <path stroke="#FEFEFE" stroke-width=".25" d="M97.271 57.611s-2.662-2.05-3.975.01c-1.315 2.058 2.4 3.281 2.4 3.281s-1.784 1.456.36 3.1c2.18 1.673 3.99.34 3.99.34s-.092 1.672 2.121 1.884c1.555.151 1.678-1.662 1.678-1.662s3.098 1.839 4.067-.408c.764-1.773-3.552-3.24-3.552-3.24s1.031-1.497-.285-2.531c-1.315-1.034-3.016.023-3.016.023s-1.013-3.665-3.788-.797z" mask="url(#xkz8ci3huad)"/>
            </g>
            <g transform="translate(-224 -6994) rotate(-90 3874 3649.5) rotate(-16 411.302 56.483) translate(19.551 193.696)">
                <mask id="redo5e8jtaf" fill="#fff"><use xlink:href="#jkmypzjsoae"/></mask>
                <path stroke="#FEFEFE" stroke-width=".25" d="M104.25 39.63s-2.662-2.051-3.975.007c-1.315 2.06 2.4 3.284 2.4 3.284s-1.782 1.455.36 3.1c2.182 1.672 3.99.34 3.99.34s-.092 1.672 2.124 1.884c1.551.148 1.675-1.662 1.675-1.662s3.098 1.838 4.067-.409c.764-1.772-3.552-3.24-3.552-3.24s1.031-1.497-.285-2.53c-1.315-1.038-3.013.022-3.013.022s-1.013-3.664-3.79-.797z" mask="url(#redo5e8jtaf)"/>
            </g>
            <g transform="translate(-224 -6994) rotate(-90 3874 3649.5) rotate(-16 411.302 56.483) translate(19.551 193.696)">
                <mask id="4a84q4rixah" fill="#fff"><use xlink:href="#ogyswy7jzag"/></mask>
                <path stroke="#FEFEFE" stroke-width=".25" d="M111.23 21.648s-2.662-2.05-3.975.008c-1.315 2.06 2.4 3.283 2.4 3.283s-1.782 1.456.36 3.1c2.18 1.673 3.99.34 3.99.34s-.092 1.672 2.124 1.884c1.552.148 1.675-1.662 1.675-1.662s3.098 1.838 4.067-.409c.765-1.772-3.552-3.24-3.552-3.24s1.031-1.496-.284-2.53c-1.316-1.037-3.014.023-3.014.023s-1.015-3.665-3.79-.797z" mask="url(#4a84q4rixah)"/>
            </g>
            <g transform="translate(-224 -6994) rotate(-90 3874 3649.5) rotate(-16 411.302 56.483) translate(19.551 193.696)">
                <mask id="llfkxgyf5aj" fill="#fff"><use xlink:href="#68758m74kai"/></mask>
                <path stroke="#FEFEFE" stroke-width=".25" d="M118.21 3.664s-2.663-2.05-3.976.01c-1.315 2.06 2.4 3.284 2.4 3.284s-1.782 1.455.36 3.1c2.182 1.672 3.99.34 3.99.34s-.092 1.672 2.124 1.884c1.552.148 1.675-1.663 1.675-1.663s3.098 1.839 4.067-.41c.765-1.773-3.552-3.239-3.552-3.239s1.031-1.496-.284-2.53c-1.316-1.037-3.014.02-3.014.02s-1.013-3.661-3.79-.796z" mask="url(#llfkxgyf5aj)"/>
            </g>
            <g transform="translate(-224 -6994) rotate(-90 3874 3649.5) rotate(-16 411.302 56.483) translate(19.551 193.696)">
                <mask id="bmiyzeka5al" fill="#fff"><use xlink:href="#rxblsqnfjak"/></mask>
                <path stroke="#FEFEFE" stroke-width=".25" d="M29.994 166.064s-2.662-2.05-3.975.01c-1.316 2.058 2.4 3.281 2.4 3.281s-1.782 1.458.36 3.1c2.18 1.673 3.99.34 3.99.34s-.092 1.672 2.124 1.884c1.551.151 1.675-1.662 1.675-1.662s3.098 1.839 4.067-.409c.764-1.772-3.552-3.24-3.552-3.24s1.031-1.496-.285-2.53c-1.315-1.035-3.016.023-3.016.023s-1.013-3.665-3.788-.797z" mask="url(#bmiyzeka5al)"/>
            </g>
            <g transform="translate(-224 -6994) rotate(-90 3874 3649.5) rotate(-16 411.302 56.483) translate(19.551 193.696)">
                <mask id="bzf3eynfwan" fill="#fff"><use xlink:href="#z95q930hkam"/></mask>
                <path stroke="#FEFEFE" stroke-width=".25" d="M36.973 148.082s-2.662-2.05-3.975.008c-1.316 2.06 2.4 3.284 2.4 3.284s-1.782 1.455.36 3.1c2.182 1.672 3.99.34 3.99.34s-.092 1.672 2.124 1.884c1.551.15 1.675-1.663 1.675-1.663s3.098 1.839 4.067-.408c.764-1.772-3.552-3.24-3.552-3.24s1.031-1.497-.285-2.531c-1.315-1.034-3.013.023-3.013.023s-1.013-3.664-3.79-.797z" mask="url(#bzf3eynfwan)"/>
            </g>
            <g transform="translate(-224 -6994) rotate(-90 3874 3649.5) rotate(-16 411.302 56.483) translate(19.551 193.696)">
                <mask id="nrg7syjrwap" fill="#fff"><use xlink:href="#5zal06sy1ao"/></mask>
                <path stroke="#FEFEFE" stroke-width=".25" d="M43.954 130.1s-2.663-2.05-3.976.008c-1.315 2.061 2.4 3.284 2.4 3.284s-1.782 1.456.36 3.1c2.18 1.673 3.99.34 3.99.34s-.092 1.672 2.124 1.884c1.552.148 1.675-1.662 1.675-1.662s3.098 1.838 4.067-.409c.765-1.772-3.552-3.24-3.552-3.24s1.031-1.496-.284-2.53c-1.316-1.037-3.014.022-3.014.022s-1.013-3.664-3.79-.796z" mask="url(#nrg7syjrwap)"/>
            </g>
            <g transform="translate(-224 -6994) rotate(-90 3874 3649.5) rotate(-16 411.302 56.483) translate(19.551 193.696)">
                <mask id="pqlbz5pmuar" fill="#fff"><use xlink:href="#mi9alr6cdaq"/></mask>
                <path stroke="#FEFEFE" stroke-width=".25" d="M50.932 112.12s-2.662-2.051-3.975.007c-1.316 2.06 2.4 3.284 2.4 3.284s-1.782 1.455.36 3.1c2.182 1.672 3.99.34 3.99.34s-.092 1.672 2.124 1.884c1.551.148 1.674-1.663 1.674-1.663s3.099 1.839 4.068-.41c.764-1.77-3.552-3.239-3.552-3.239s1.03-1.496-.285-2.53c-1.315-1.037-3.013.023-3.013.023s-1.013-3.664-3.79-.797z" mask="url(#pqlbz5pmuar)"/>
            </g>
            <g transform="translate(-224 -6994) rotate(-90 3874 3649.5) rotate(-16 411.302 56.483) translate(19.551 193.696)">
                <mask id="32ey2t2bvat" fill="#fff"><use xlink:href="#rrhbj8gztas"/></mask>
                <path stroke="#FEFEFE" stroke-width=".25" d="M57.912 94.135s-2.662-2.05-3.975.01c-1.315 2.058 2.4 3.284 2.4 3.284s-1.782 1.456.36 3.1c2.18 1.67 3.99.337 3.99.337s-.092 1.673 2.124 1.885c1.552.15 1.675-1.663 1.675-1.663s3.098 1.841 4.067-.408c.764-1.772-3.552-3.24-3.552-3.24s1.031-1.497-.285-2.529c-1.315-1.036-3.013.02-3.013.02s-1.013-3.663-3.79-.796z" mask="url(#32ey2t2bvat)"/>
            </g>
            <g transform="translate(-224 -6994) rotate(-90 3874 3649.5) rotate(-16 411.302 56.483) translate(19.551 193.696)">
                <mask id="fx7nt2hxgav" fill="#fff"><use xlink:href="#rslomicdwau"/></mask>
                <path stroke="#FEFEFE" stroke-width=".25" d="M64.891 76.154s-2.662-2.05-3.975.01c-1.316 2.058 2.4 3.281 2.4 3.281s-1.782 1.458.36 3.102c2.182 1.67 3.99.337 3.99.337s-.092 1.673 2.124 1.885c1.551.15 1.675-1.662 1.675-1.662s3.098 1.838 4.067-.409c.764-1.772-3.552-3.24-3.552-3.24s1.031-1.497-.285-2.528c-1.315-1.037-3.013.02-3.013.02s-1.013-3.664-3.79-.796z" mask="url(#fx7nt2hxgav)"/>
            </g>
            <g transform="translate(-224 -6994) rotate(-90 3874 3649.5) rotate(-16 411.302 56.483) translate(19.551 193.696)">
                <mask id="pagxj3q9fax" fill="#fff"><use xlink:href="#li5xnixdkaw"/></mask>
                <path stroke="#FEFEFE" stroke-width=".25" d="M71.872 58.172s-2.663-2.05-3.976.01c-1.315 2.058 2.4 3.281 2.4 3.281s-1.782 1.456.36 3.1c2.182 1.673 3.99.34 3.99.34s-.092 1.672 2.124 1.884c1.552.151 1.675-1.662 1.675-1.662s3.098 1.839 4.067-.408c.765-1.773-3.552-3.24-3.552-3.24s1.031-1.497-.284-2.531c-1.316-1.034-3.014.023-3.014.023s-1.013-3.665-3.79-.797z" mask="url(#pagxj3q9fax)"/>
            </g>
            <g transform="translate(-224 -6994) rotate(-90 3874 3649.5) rotate(-16 411.302 56.483) translate(19.551 193.696)">
                <mask id="oomamimifaz" fill="#fff"><use xlink:href="#lr6nxxofyay"/></mask>
                <path stroke="#FEFEFE" stroke-width=".25" d="M78.852 40.19s-2.662-2.05-3.975.008c-1.316 2.06 2.4 3.284 2.4 3.284s-1.782 1.455.36 3.1c2.18 1.672 3.99.34 3.99.34s-.093 1.672 2.123 1.884c1.552.148 1.675-1.662 1.675-1.662s3.098 1.838 4.068-.409c.764-1.772-3.552-3.24-3.552-3.24s1.03-1.497-.285-2.53c-1.316-1.038-3.016.022-3.016.022s-1.013-3.664-3.788-.797z" mask="url(#oomamimifaz)"/>
            </g>
            <g transform="translate(-224 -6994) rotate(-90 3874 3649.5) rotate(-16 411.302 56.483) translate(19.551 193.696)">
                <mask id="szqyxrzjvaB" fill="#fff"><use xlink:href="#6bl8alow6aA"/></mask>
                <path stroke="#FEFEFE" stroke-width=".25" d="M85.83 22.209s-2.661-2.05-3.974.008c-1.316 2.06 2.4 3.283 2.4 3.283s-1.782 1.456.36 3.1c2.182 1.673 3.99.34 3.99.34s-.093 1.672 2.123 1.884c1.552.148 1.675-1.662 1.675-1.662s3.098 1.838 4.068-.409c.764-1.772-3.553-3.24-3.553-3.24s1.031-1.496-.284-2.53c-1.316-1.037-3.014.023-3.014.023s-1.013-3.665-3.79-.797z" mask="url(#szqyxrzjvaB)"/>
            </g>
            <g transform="translate(-224 -6994) rotate(-90 3874 3649.5) rotate(-16 411.302 56.483) translate(19.551 193.696)">
                <mask id="kjercj4wnaD" fill="#fff"><use xlink:href="#ydnyy5wz7aC"/></mask>
                <path stroke="#FEFEFE" stroke-width=".25" d="M92.81 4.225s-2.661-2.05-3.974.01c-1.316 2.06 2.4 3.284 2.4 3.284s-1.782 1.455.36 3.1c2.179 1.672 3.99.337 3.99.337s-.093 1.675 2.123 1.887c1.552.148 1.675-1.662 1.675-1.662s3.098 1.838 4.067-.411c.765-1.773-3.552-3.24-3.552-3.24S100.93 6.034 99.615 5c-1.316-1.036-3.014.02-3.014.02s-1.015-3.661-3.79-.796z" mask="url(#kjercj4wnaD)"/>
            </g>
            <g transform="translate(-224 -6994) rotate(-90 3874 3649.5) rotate(-16 411.302 56.483) translate(19.551 193.696)">
                <mask id="3dot7txlgaF" fill="#fff"><use xlink:href="#8rxma0pkyaE"/></mask>
                <path stroke="#FEFEFE" stroke-width=".25" d="M12.23 148.895s-2.663-2.05-3.976.01c-1.315 2.058 2.4 3.282 2.4 3.282s-1.782 1.455.36 3.1c2.182 1.672 3.99.34 3.99.34s-.092 1.672 2.124 1.884c1.552.15 1.675-1.663 1.675-1.663s3.098 1.839 4.067-.408c.765-1.772-3.552-3.24-3.552-3.24s1.031-1.497-.284-2.531c-1.316-1.034-3.014.023-3.014.023s-1.013-3.664-3.79-.797z" mask="url(#3dot7txlgaF)"/>
            </g>
            <g transform="translate(-224 -6994) rotate(-90 3874 3649.5) rotate(-16 411.302 56.483) translate(19.551 193.696)">
                <mask id="q7a8u9q1paH" fill="#fff"><use xlink:href="#oygrtx7x3aG"/></mask>
                <path stroke="#FEFEFE" stroke-width=".25" d="M19.21 130.914s-2.662-2.05-3.976.007c-1.315 2.06 2.401 3.284 2.401 3.284s-1.782 1.455.36 3.1c2.179 1.672 3.99.34 3.99.34s-.093 1.672 2.123 1.884c1.552.148 1.675-1.662 1.675-1.662s3.098 1.838 4.067-.409c.765-1.772-3.552-3.24-3.552-3.24s1.031-1.497-.284-2.53c-1.316-1.037-3.014.022-3.014.022s-1.013-3.664-3.79-.796z" mask="url(#q7a8u9q1paH)"/>
            </g>
            <g transform="translate(-224 -6994) rotate(-90 3874 3649.5) rotate(-16 411.302 56.483) translate(19.551 193.696)">
                <mask id="034oj7cf0aJ" fill="#fff"><use xlink:href="#fup5awf3haI"/></mask>
                <path stroke="#FEFEFE" stroke-width=".25" d="M26.189 112.932s-2.662-2.05-3.976.008c-1.315 2.06 2.401 3.283 2.401 3.283s-1.782 1.456.359 3.1c2.183 1.673 3.99.34 3.99.34s-.092 1.672 2.124 1.884c1.552.149 1.675-1.662 1.675-1.662s3.098 1.839 4.067-.408c.765-1.773-3.552-3.24-3.552-3.24s1.031-1.497-.284-2.531c-1.316-1.037-3.014.023-3.014.023s-1.013-3.665-3.79-.797z" mask="url(#034oj7cf0aJ)"/>
            </g>
            <g transform="translate(-224 -6994) rotate(-90 3874 3649.5) rotate(-16 411.302 56.483) translate(19.551 193.696)">
                <mask id="q13rlyd21aL" fill="#fff"><use xlink:href="#opvfizvapaK"/></mask>
                <path stroke="#FEFEFE" stroke-width=".25" d="M33.169 94.948s-2.662-2.05-3.975.01c-1.316 2.061 2.4 3.284 2.4 3.284s-1.782 1.456.36 3.1c2.18 1.673 3.99.34 3.99.34s-.092 1.672 2.123 1.884c1.552.148 1.675-1.662 1.675-1.662s3.098 1.838 4.068-.411c.764-1.772-3.552-3.238-3.552-3.238s1.03-1.496-.285-2.53c-1.316-1.037-3.014.02-3.014.02s-1.013-3.662-3.79-.797z" mask="url(#q13rlyd21aL)"/>
            </g>
            <g transform="translate(-224 -6994) rotate(-90 3874 3649.5) rotate(-16 411.302 56.483) translate(19.551 193.696)">
                <mask id="3c20mnd2daN" fill="#fff"><use xlink:href="#3zkh2eganaM"/></mask>
                <path stroke="#FEFEFE" stroke-width=".25" d="M40.15 76.967s-2.663-2.05-3.976.01c-1.316 2.058 2.4 3.284 2.4 3.284s-1.785 1.455.36 3.1c2.18 1.67 3.99.337 3.99.337s-.092 1.672 2.121 1.884c1.554.15 1.677-1.662 1.677-1.662s3.098 1.84 4.068-.409c.764-1.772-3.552-3.24-3.552-3.24s1.03-1.497-.285-2.528c-1.316-1.037-3.016.02-3.016.02s-1.013-3.664-3.788-.796z" mask="url(#3c20mnd2daN)"/>
            </g>
            <g transform="translate(-224 -6994) rotate(-90 3874 3649.5) rotate(-16 411.302 56.483) translate(19.551 193.696)">
                <mask id="ovu30bsm4aP" fill="#fff"><use xlink:href="#2pw7wy4e7aO"/></mask>
                <path stroke="#FEFEFE" stroke-width=".25" d="M47.128 58.985s-2.662-2.05-3.975.01c-1.316 2.058 2.4 3.281 2.4 3.281s-1.782 1.458.36 3.1c2.182 1.673 3.99.34 3.99.34s-.093 1.672 2.123 1.884c1.552.151 1.675-1.662 1.675-1.662s3.098 1.839 4.068-.408c.764-1.773-3.552-3.24-3.552-3.24s1.03-1.497-.285-2.531c-1.316-1.034-3.014.023-3.014.023s-1.013-3.665-3.79-.797z" mask="url(#ovu30bsm4aP)"/>
            </g>
            <g transform="translate(-224 -6994) rotate(-90 3874 3649.5) rotate(-16 411.302 56.483) translate(19.551 193.696)">
                <mask id="ttnk7mbqbaR" fill="#fff"><use xlink:href="#htr98wvwqaQ"/></mask>
                <path stroke="#FEFEFE" stroke-width=".25" d="M54.108 41.003s-2.662-2.05-3.975.01c-1.316 2.059 2.4 3.282 2.4 3.282s-1.782 1.455.36 3.1c2.18 1.672 3.99.34 3.99.34s-.092 1.672 2.124 1.884c1.551.15 1.674-1.662 1.674-1.662s3.098 1.838 4.068-.409c.764-1.772-3.552-3.24-3.552-3.24s1.03-1.497-.285-2.53c-1.316-1.035-3.013.022-3.013.022s-1.016-3.664-3.791-.797z" mask="url(#ttnk7mbqbaR)"/>
            </g>
            <g transform="translate(-224 -6994) rotate(-90 3874 3649.5) rotate(-16 411.302 56.483) translate(19.551 193.696)">
                <mask id="hiemibsu8aT" fill="#fff"><use xlink:href="#jb9iijtzzaS"/></mask>
                <path stroke="#FEFEFE" stroke-width=".25" d="M61.087 23.022s-2.662-2.05-3.975.008c-1.316 2.06 2.4 3.283 2.4 3.283s-1.782 1.456.36 3.1c2.182 1.673 3.99.34 3.99.34s-.092 1.672 2.123 1.884c1.552.148 1.675-1.662 1.675-1.662s3.098 1.838 4.068-.409c.764-1.772-3.552-3.24-3.552-3.24s1.03-1.496-.285-2.53c-1.316-1.037-3.013.023-3.013.023s-1.014-3.665-3.791-.797z" mask="url(#hiemibsu8aT)"/>
            </g>
            <g transform="translate(-224 -6994) rotate(-90 3874 3649.5) rotate(-16 411.302 56.483) translate(19.551 193.696)">
                <mask id="up8fu4bduaV" fill="#fff"><use xlink:href="#sw3ml7fkqaU"/></mask>
                <path stroke="#FEFEFE" stroke-width=".25" d="M68.067 5.04s-2.662-2.05-3.975.008c-1.316 2.06 2.4 3.284 2.4 3.284s-1.782 1.455.36 3.1c2.18 1.672 3.99.34 3.99.34s-.092 1.672 2.124 1.884c1.551.148 1.674-1.663 1.674-1.663s3.099 1.839 4.068-.41c.764-1.77-3.552-3.239-3.552-3.239s1.03-1.496-.285-2.53c-1.315-1.037-3.013.023-3.013.023s-1.013-3.664-3.79-.797z" mask="url(#up8fu4bduaV)"/>
            </g>
            <g transform="translate(-224 -6994) rotate(-90 3874 3649.5) rotate(-16 411.302 56.483) translate(19.551 193.696)">
                <mask id="vn6pyny6qaX" fill="#fff"><use xlink:href="#tqp5mgzodaW"/></mask>
                <path stroke="#FEFEFE" stroke-width=".25" d="M75.046-12.944s-2.662-2.05-3.975.01c-1.316 2.061 2.4 3.284 2.4 3.284s-1.782 1.456.36 3.1c2.182 1.67 3.99.337 3.99.337s-.092 1.675 2.124 1.885c1.551.15 1.674-1.66 1.674-1.66s3.098 1.838 4.068-.411c.764-1.772-3.552-3.24-3.552-3.24s1.03-1.497-.285-2.529c-1.316-1.036-3.013.02-3.013.02s-1.013-3.663-3.79-.796z" mask="url(#vn6pyny6qaX)"/>
            </g>
            <g transform="translate(-224 -6994) rotate(-90 3874 3649.5) rotate(-16 411.302 56.483) translate(19.551 193.696)">
                <mask id="00d0hlqwbaZ" fill="#fff"><use xlink:href="#69erb8tbjaY"/></mask>
                <path stroke="#FEFEFE" stroke-width=".25" d="M-13.17 149.456s-2.661-2.05-3.974.01c-1.316 2.058 2.4 3.282 2.4 3.282s-1.782 1.455.36 3.1c2.18 1.672 3.99.34 3.99.34s-.092 1.672 2.123 1.884c1.552.15 1.675-1.663 1.675-1.663s3.098 1.839 4.068-.408c.764-1.772-3.552-3.24-3.552-3.24s1.03-1.497-.285-2.531c-1.316-1.034-3.014.023-3.014.023s-1.013-3.664-3.79-.797z" mask="url(#00d0hlqwbaZ)"/>
            </g>
            <g transform="translate(-224 -6994) rotate(-90 3874 3649.5) rotate(-16 411.302 56.483) translate(19.551 193.696)">
                <mask id="q6fcuiz8ibb" fill="#fff"><use xlink:href="#uvuelvr2tba"/></mask>
                <path stroke="#FEFEFE" stroke-width=".25" d="M-6.19 131.475s-2.662-2.05-3.975.007c-1.316 2.061 2.4 3.284 2.4 3.284s-1.782 1.456.36 3.1c2.182 1.673 3.99.34 3.99.34s-.093 1.672 2.123 1.884c1.552.148 1.675-1.662 1.675-1.662s3.098 1.838 4.068-.409c.764-1.772-3.552-3.24-3.552-3.24s1.03-1.496-.285-2.53c-1.316-1.037-3.014.022-3.014.022s-1.013-3.664-3.79-.796z" mask="url(#q6fcuiz8ibb)"/>
            </g>
            <g transform="translate(-224 -6994) rotate(-90 3874 3649.5) rotate(-16 411.302 56.483) translate(19.551 193.696)">
                <mask id="nqqtr0ydlbd" fill="#fff"><use xlink:href="#nqrg6rk1pbc"/></mask>
                <path stroke="#FEFEFE" stroke-width=".25" d="M.79 113.493s-2.662-2.05-3.975.008c-1.316 2.06 2.4 3.284 2.4 3.284s-1.782 1.455.36 3.1c2.18 1.672 3.99.34 3.99.34s-.092 1.672 2.124 1.884c1.551.148 1.674-1.663 1.674-1.663s3.098 1.839 4.068-.408c.764-1.772-3.552-3.24-3.552-3.24s1.03-1.497-.285-2.531c-1.316-1.037-3.013.023-3.013.023s-1.013-3.664-3.79-.797z" mask="url(#nqqtr0ydlbd)"/>
            </g>
            <g transform="translate(-224 -6994) rotate(-90 3874 3649.5) rotate(-16 411.302 56.483) translate(19.551 193.696)">
                <mask id="ozanhp98bbf" fill="#fff"><use xlink:href="#sit12jd6ebe"/></mask>
                <path stroke="#FEFEFE" stroke-width=".25" d="M7.769 95.51s-2.662-2.051-3.975.01c-1.316 2.06 2.4 3.283 2.4 3.283s-1.782 1.456.36 3.1c2.182 1.673 3.99.337 3.99.337s-.092 1.675 2.124 1.887c1.551.148 1.674-1.662 1.674-1.662s3.098 1.838 4.068-.411c.764-1.772-3.552-3.24-3.552-3.24s1.03-1.494-.285-2.529c-1.316-1.036-3.013.02-3.013.02s-1.013-3.663-3.791-.796z" mask="url(#ozanhp98bbf)"/>
            </g>
            <g transform="translate(-224 -6994) rotate(-90 3874 3649.5) rotate(-16 411.302 56.483) translate(19.551 193.696)">
                <mask id="i9ekpdcdcbh" fill="#fff"><use xlink:href="#z0s7mia70bg"/></mask>
                <path stroke="#FEFEFE" stroke-width=".25" d="M14.749 77.528s-2.662-2.05-3.975.01c-1.316 2.058 2.4 3.281 2.4 3.281s-1.782 1.458.36 3.102c2.182 1.67 3.99.338 3.99.338s-.092 1.672 2.123 1.884c1.552.15 1.675-1.662 1.675-1.662s3.098 1.838 4.068-.409c.764-1.772-3.552-3.24-3.552-3.24s1.03-1.497-.285-2.528c-1.316-1.037-3.013.02-3.013.02s-1.013-3.664-3.791-.796z" mask="url(#i9ekpdcdcbh)"/>
            </g>
            <g transform="translate(-224 -6994) rotate(-90 3874 3649.5) rotate(-16 411.302 56.483) translate(19.551 193.696)">
                <mask id="g5tb5pz1ubj" fill="#fff"><use xlink:href="#gpbirzrfjbi"/></mask>
                <path stroke="#FEFEFE" stroke-width=".25" d="M21.73 59.546s-2.663-2.05-3.976.01c-1.316 2.058 2.4 3.281 2.4 3.281s-1.782 1.456.36 3.1c2.18 1.673 3.99.34 3.99.34s-.092 1.672 2.124 1.884c1.551.151 1.674-1.662 1.674-1.662s3.099 1.839 4.068-.408c.764-1.773-3.552-3.24-3.552-3.24s1.03-1.497-.285-2.531-3.016.023-3.016.023-1.013-3.665-3.788-.797z" mask="url(#g5tb5pz1ubj)"/>
            </g>
            <g transform="translate(-224 -6994) rotate(-90 3874 3649.5) rotate(-16 411.302 56.483) translate(19.551 193.696)">
                <mask id="i0xoi2d22bl" fill="#fff"><use xlink:href="#cj6zlgjf9bk"/></mask>
                <path stroke="#FEFEFE" stroke-width=".25" d="M28.708 41.564s-2.662-2.05-3.975.008c-1.316 2.06 2.4 3.284 2.4 3.284s-1.782 1.455.36 3.1c2.182 1.672 3.99.34 3.99.34s-.092 1.672 2.124 1.884c1.551.148 1.674-1.662 1.674-1.662s3.098 1.838 4.068-.409c.764-1.772-3.552-3.24-3.552-3.24s1.03-1.497-.285-2.53c-1.315-1.038-3.013.022-3.013.022s-1.013-3.664-3.79-.797z" mask="url(#i0xoi2d22bl)"/>
            </g>
            <g transform="translate(-224 -6994) rotate(-90 3874 3649.5) rotate(-16 411.302 56.483) translate(19.551 193.696)">
                <mask id="qe5fn9rygbn" fill="#fff"><use xlink:href="#1hwmxuhmcbm"/></mask>
                <path stroke="#FEFEFE" stroke-width=".25" d="M35.688 23.583s-2.662-2.05-3.975.008c-1.315 2.06 2.4 3.283 2.4 3.283s-1.782 1.456.36 3.1c2.18 1.673 3.99.34 3.99.34s-.092 1.672 2.124 1.884c1.552.148 1.675-1.662 1.675-1.662s3.098 1.838 4.067-.409c.764-1.772-3.552-3.24-3.552-3.24s1.031-1.496-.285-2.53c-1.315-1.037-3.013.023-3.013.023s-1.013-3.665-3.79-.797z" mask="url(#qe5fn9rygbn)"/>
            </g>
            <g transform="translate(-224 -6994) rotate(-90 3874 3649.5) rotate(-16 411.302 56.483) translate(19.551 193.696)">
                <mask id="x4wcoisfqbp" fill="#fff"><use xlink:href="#qyhmej16ebo"/></mask>
                <path stroke="#FEFEFE" stroke-width=".25" d="M42.667 5.599s-2.662-2.048-3.975.01c-1.316 2.06 2.4 3.284 2.4 3.284s-1.782 1.455.36 3.1c2.182 1.672 3.99.34 3.99.34s-.092 1.672 2.124 1.884c1.551.148 1.675-1.662 1.675-1.662s3.098 1.838 4.067-.411c.764-1.77-3.552-3.238-3.552-3.238s1.031-1.497-.285-2.53c-1.315-1.037-3.013.02-3.013.02s-1.013-3.662-3.79-.797z" mask="url(#x4wcoisfqbp)"/>
            </g>
            <g transform="translate(-224 -6994) rotate(-90 3874 3649.5) rotate(-16 411.302 56.483) translate(19.551 193.696)">
                <mask id="uxnlzgu87br" fill="#fff"><use xlink:href="#ods1gw4webq"/></mask>
                <path stroke="#FEFEFE" stroke-width=".25" d="M49.648-12.383s-2.663-2.05-3.976.01c-1.315 2.059 2.4 3.284 2.4 3.284s-1.782 1.456.36 3.1c2.18 1.67 3.99.337 3.99.337s-.092 1.673 2.124 1.885c1.552.15 1.675-1.662 1.675-1.662s3.098 1.84 4.067-.409c.765-1.772-3.552-3.24-3.552-3.24s1.031-1.497-.284-2.528c-1.316-1.037-3.014.02-3.014.02s-1.013-3.664-3.79-.797z" mask="url(#uxnlzgu87br)"/>
            </g>
        </g>
        <g>
            <path fill="#F06140" d="M25.74 200.39c1.976-1.218 1.304-.01 7.509-3.151 2.572-1.303 4.23.586 7.412.5 5.445-.153 6.705 3.253 8.017 5.056 1.31 1.802 2.013.839 1.962 5.706-.1 9.663-7.764 13.266-1.312 15.969 6.454 2.702 14.728-3.315 15.334.589.603 3.903-5.817 9.37-2.208 12.95 3.61 3.582 7.843 3.88 5.425 10.489-2.421 6.609-32.26 11.713-36.091 5.107-3.83-6.609 8.267-15.319 1.612-18.623-6.652-3.304-13.488-3.304-12.7-11.265.503-5.081-3.73-17.919 5.04-23.327" transform="translate(-224 -6994) rotate(-90 3874 3649.5) rotate(-16 411.302 56.483) translate(81.083 .636)"/>
            <path fill="#F496A4" d="M110.218 414.464c-3.225-10.81-8.873-19.622-16.533-24.028-1.436-.824-2.758-1.377-3.97-1.706-8.361-4.536-23.428-13.151-35.405-22.43-2.844-2.203-4.364-12.758-5.157-21.988-.02.003-17.478 1.826-24.297 3.29-4.293.925-17.794 5.114-22.836 6.695l-1.481.466c3.473 9.235 8.549 19.786 15.524 28.495 23.552 29.416 61.42 25.994 69.789 24.827.629.82 1.253 1.542 1.835 2.075 3.628 3.335 3.58 12.315 8.015 15.92.319.258.406 1.609.832 1.716 2.496.638 2.298-2.667 2.811-2.572.694.13.573 1.73 1.348 1.784 1.63.112 1.826-1.772 2.457-1.915.498-.11.696 1.382 1.196 1.242 2.17-.602 1.81-2.759 2.396-3.082.408-.225.996 1.384 2.37.55 1.024-.624 2.561-4.451 1.106-9.34M63.608 96.807c-3.26.13-4.22.29-3.93 3.605.151 1.727 2.664 3.96.754 5.406-2.646 2.006-2.623 6.025-.68 6.759 4.726 1.78 6.275.785 4.84 3.83-1.54 3.263-.542 5.349 7.66 3.58 8.203-1.773 33.878 1.356 33.878 1.356l5.019-26.328s-18.926-1.599-29.267 0c-10.344 1.596-16.138 1.708-18.274 1.792M143.374 179.555s-3.512 7.093-11.342 17.225c-3.417 4.421-11.843 7.425-6.955 8.753 3.327.908 4.236-1.744 5.594.903 1.058 2.065-4.367 6.943-1.158 6.943 3.21 0 8.416-1.688 7.448 1.522-1.055 3.493-.028 5.897 7.325 1.89 7.707-4.198 23.893-24.44 23.893-24.44l-24.805-12.796zM219.585 3.622c-.647.201-1.399-.225-2.305.525-.44.362-.095 1.32-.419 1.616-.472.434-1.581.125-1.622.676-.103 1.255.934 2.843 3.289 4.9 3.088 2.7 7.509 2.17 5.088 17.14-1.194 7.389-4.323 16.98-4.323 16.98l32.334 9.715s3.86-19.054 3.34-30.15c-.223-4.814 5.797-11.423-4.988-16.991C238.712 2.217 232.61.32 225.86.317c-3.175 0-.757 2.104-2.369 1.92-.647-.074-1.183-.902-2.354-.377-.775.344-.665 1.486-1.55 1.762M287.763 107.23s31.48 8.544 39.942 14.112c2.267 1.497 3.62 3.575 4.308 6.002 1.227 4.327-.503 5.324.68 10.462.75 3.263 4.139 10.652 2.298 14.67-.18.393-.955.551-1.24.873-.241.27-.305.864-.631 1.073-.832.54-1.017-.461-1.233-.247-1.101 1.086-.48 1.953-1.715 1.853-.488-.04-.631-.882-1.06-.95-.408-.07-.429 1.453-1.384 1.453-.975 0-1.299-.561-1.733-.96-2.059-1.876-4.436-5.295-8.615-8.592-10.16-8.02-29.617-9.64-29.617-9.64V107.23z" transform="translate(-224 -6994) rotate(-90 3874 3649.5) rotate(-16 411.302 56.483) translate(81.083 .636)"/>
            <path fill="#7ECCC6" d="M111.148 95.014l-5.02 26.328s24.59 2.797 33.94 17.358c14.192 22.104 3.307 40.854 3.307 40.854l24.805 12.797s23.234-27.937 53.53-42.17c25.396-11.924 66.054-12.842 66.054-12.842v-30.11s-31.5-6.608-37.562-16.878c-2.958-5.013-1.772-13.664-.578-21.178 1.492-9.365 3.037-17.769 3.037-17.769l-33.37-5.945s-6.892 22.934-32.21 33.561c-25.32 10.625-25.32 10.625-41.994 13.883-14.125 2.761-33.94 2.111-33.94 2.111" transform="translate(-224 -6994) rotate(-90 3874 3649.5) rotate(-16 411.302 56.483) translate(81.083 .636)"/>
        </g>
        <g>
            <g transform="translate(-224 -6994) rotate(-90 3874 3649.5) rotate(-16 411.302 56.483) translate(187.737 46.676)">
                <mask id="pzfx23xnwbt" fill="#fff"><use xlink:href="#3e4mls8qrbs"/></mask>
                <path stroke="#FEFEFE" stroke-width=".25" d="M125.959 -63.806L209.531 142.587" mask="url(#pzfx23xnwbt)"/>
            </g>
            <g transform="translate(-224 -6994) rotate(-90 3874 3649.5) rotate(-16 411.302 56.483) translate(187.737 46.676)">
                <mask id="naab4eewubv" fill="#fff"><use xlink:href="#zkx8u2vwxbu"/></mask>
                <path stroke="#FEFEFE" stroke-width=".25" d="M117.781 -60.516L201.35 145.877" mask="url(#naab4eewubv)"/>
            </g>
            <g transform="translate(-224 -6994) rotate(-90 3874 3649.5) rotate(-16 411.302 56.483) translate(187.737 46.676)">
                <mask id="zxb83gfxqbx" fill="#fff"><use xlink:href="#h7j77syiabw"/></mask>
                <path stroke="#FEFEFE" stroke-width=".25" d="M109.603 -57.227L193.172 149.166" mask="url(#zxb83gfxqbx)"/>
            </g>
            <g transform="translate(-224 -6994) rotate(-90 3874 3649.5) rotate(-16 411.302 56.483) translate(187.737 46.676)">
                <mask id="oad9goitcbz" fill="#fff"><use xlink:href="#jstfr4mmaby"/></mask>
                <path stroke="#FEFEFE" stroke-width=".25" d="M101.422 -53.937L184.994 152.456" mask="url(#oad9goitcbz)"/>
            </g>
            <g transform="translate(-224 -6994) rotate(-90 3874 3649.5) rotate(-16 411.302 56.483) translate(187.737 46.676)">
                <mask id="eos0nkqlqbB" fill="#fff"><use xlink:href="#cuddk310dbA"/></mask>
                <path stroke="#FEFEFE" stroke-width=".25" d="M93.244 -50.648L176.813 155.745" mask="url(#eos0nkqlqbB)"/>
            </g>
            <g transform="translate(-224 -6994) rotate(-90 3874 3649.5) rotate(-16 411.302 56.483) translate(187.737 46.676)">
                <mask id="ndjratdzzbD" fill="#fff"><use xlink:href="#4s9e0ff9jbC"/></mask>
                <path stroke="#FEFEFE" stroke-width=".25" d="M85.066 -47.358L168.635 159.035" mask="url(#ndjratdzzbD)"/>
            </g>
            <g transform="translate(-224 -6994) rotate(-90 3874 3649.5) rotate(-16 411.302 56.483) translate(187.737 46.676)">
                <mask id="ieeqro4prbF" fill="#fff"><use xlink:href="#mzu0hyt82bE"/></mask>
                <path stroke="#FEFEFE" stroke-width=".25" d="M76.886 -44.069L160.457 162.325" mask="url(#ieeqro4prbF)"/>
            </g>
            <g transform="translate(-224 -6994) rotate(-90 3874 3649.5) rotate(-16 411.302 56.483) translate(187.737 46.676)">
                <mask id="jtxrnhj6tbH" fill="#fff"><use xlink:href="#cbg4ajop7bG"/></mask>
                <path stroke="#FEFEFE" stroke-width=".25" d="M68.708 -40.781L152.277 165.612" mask="url(#jtxrnhj6tbH)"/>
            </g>
            <g transform="translate(-224 -6994) rotate(-90 3874 3649.5) rotate(-16 411.302 56.483) translate(187.737 46.676)">
                <mask id="p8sk5no13bJ" fill="#fff"><use xlink:href="#ifp8mcenbbI"/></mask>
                <path stroke="#FEFEFE" stroke-width=".25" d="M60.53 -37.492L144.099 168.901" mask="url(#p8sk5no13bJ)"/>
            </g>
            <g transform="translate(-224 -6994) rotate(-90 3874 3649.5) rotate(-16 411.302 56.483) translate(187.737 46.676)">
                <mask id="n12wdnv1kbL" fill="#fff"><use xlink:href="#dq3z49m2fbK"/></mask>
                <path stroke="#FEFEFE" stroke-width=".25" d="M52.349 -34.202L135.918 172.191" mask="url(#n12wdnv1kbL)"/>
            </g>
            <g transform="translate(-224 -6994) rotate(-90 3874 3649.5) rotate(-16 411.302 56.483) translate(187.737 46.676)">
                <mask id="67xvfhwl3bN" fill="#fff"><use xlink:href="#zltx4zi3xbM"/></mask>
                <path stroke="#FEFEFE" stroke-width=".25" d="M44.261 -31.152L127.83 175.241" mask="url(#67xvfhwl3bN)"/>
            </g>
            <g transform="translate(-224 -6994) rotate(-90 3874 3649.5) rotate(-16 411.302 56.483) translate(187.737 46.676)">
                <mask id="p5jhwjbembP" fill="#fff"><use xlink:href="#n0txte0xjbO"/></mask>
                <path stroke="#FEFEFE" stroke-width=".25" d="M36.083 -27.862L119.652 178.531" mask="url(#p5jhwjbembP)"/>
            </g>
            <g transform="translate(-224 -6994) rotate(-90 3874 3649.5) rotate(-16 411.302 56.483) translate(187.737 46.676)">
                <mask id="v8ea3srqbbR" fill="#fff"><use xlink:href="#uwl0uqoiebQ"/></mask>
                <path stroke="#FEFEFE" stroke-width=".25" d="M27.903 -24.575L111.474 181.82" mask="url(#v8ea3srqbbR)"/>
            </g>
            <g transform="translate(-224 -6994) rotate(-90 3874 3649.5) rotate(-16 411.302 56.483) translate(187.737 46.676)">
                <mask id="djc5rd1lvbT" fill="#fff"><use xlink:href="#qee7d891rbS"/></mask>
                <path stroke="#FEFEFE" stroke-width=".25" d="M19.725 -21.286L103.294 185.107" mask="url(#djc5rd1lvbT)"/>
            </g>
            <g transform="translate(-224 -6994) rotate(-90 3874 3649.5) rotate(-16 411.302 56.483) translate(187.737 46.676)">
                <mask id="iy46ldij2bV" fill="#fff"><use xlink:href="#9yiylahlybU"/></mask>
                <path stroke="#FEFEFE" stroke-width=".25" d="M11.547 -17.996L95.116 188.397" mask="url(#iy46ldij2bV)"/>
            </g>
            <g transform="translate(-224 -6994) rotate(-90 3874 3649.5) rotate(-16 411.302 56.483) translate(187.737 46.676)">
                <mask id="r2zhidmllbX" fill="#fff"><use xlink:href="#zlvz0q786bW"/></mask>
                <path stroke="#FEFEFE" stroke-width=".25" d="M3.366 -14.706L86.938 191.687" mask="url(#r2zhidmllbX)"/>
            </g>
            <g transform="translate(-224 -6994) rotate(-90 3874 3649.5) rotate(-16 411.302 56.483) translate(187.737 46.676)">
                <mask id="y24vvozchbZ" fill="#fff"><use xlink:href="#6yjqfyp7hbY"/></mask>
                <path stroke="#FEFEFE" stroke-width=".25" d="M-4.812 -11.417L78.757 194.976" mask="url(#y24vvozchbZ)"/>
            </g>
            <g transform="translate(-224 -6994) rotate(-90 3874 3649.5) rotate(-16 411.302 56.483) translate(187.737 46.676)">
                <mask id="fzx0e6bascb" fill="#fff"><use xlink:href="#b7gcg7povca"/></mask>
                <path stroke="#FEFEFE" stroke-width=".25" d="M-12.991 -8.127L70.58 198.266" mask="url(#fzx0e6bascb)"/>
            </g>
            <g transform="translate(-224 -6994) rotate(-90 3874 3649.5) rotate(-16 411.302 56.483) translate(187.737 46.676)">
                <mask id="z9s5om35ocd" fill="#fff"><use xlink:href="#iaoejzruzcc"/></mask>
                <path stroke="#FEFEFE" stroke-width=".25" d="M-21.169 -4.838L62.402 201.555" mask="url(#z9s5om35ocd)"/>
            </g>
            <g transform="translate(-224 -6994) rotate(-90 3874 3649.5) rotate(-16 411.302 56.483) translate(187.737 46.676)">
                <mask id="t8ylhftlocf" fill="#fff"><use xlink:href="#i995isabrce"/></mask>
                <path stroke="#FEFEFE" stroke-width=".25" d="M-29.349 -1.548L54.22 204.845" mask="url(#t8ylhftlocf)"/>
            </g>
        </g>
        <g>
            <path fill="#F496A4" d="M222.343 115.44s-6.803 7.525-2.147 15.346c4.654 7.824 15.392 10.309 19.688 0 4.296-10.31-.72-21.092-17.541-15.346" transform="translate(-224 -6994) rotate(-90 3874 3649.5) rotate(-16 411.302 56.483) translate(.444 7.215)"/>
            <path fill="#F06140" d="M234.842 114.413c-4.525-1.42-10.493-2.465-18.337 1.026-7.994 3.563-11.687 6.174-7.257 6.714 1.394.171 1.969.007 2.095 1.371.132 1.398-2.028 2.629-2.912 4.648-2.247 5.152 6.347 3.998 11.764 2.613 5.417-1.384 9.54-4.22 12.702-2.613 3.832 1.948 3.11 4.172 4.401 2.51.881-1.13.912-3.843 1.822-2.863.912.98 1.064 2.255 1.265 1.625.201-.63 2.028-5.11.954-8.633-.985-3.242-3.428-5.433-6.497-6.398" transform="translate(-224 -6994) rotate(-90 3874 3649.5) rotate(-16 411.302 56.483) translate(.444 7.215)"/>
            <path fill="#EE3F2E" d="M204.057 122.916s-2.375.693-2.834 1.965c-1.01 2.813 3.747 0 4.352-.504.608-.502.255-1.758-1.518-1.461" transform="translate(-224 -6994) rotate(-90 3874 3649.5) rotate(-16 411.302 56.483) translate(.444 7.215)"/>
            <path fill="#FEFEFE" d="M219.466 263.264h74.067s-9.592-5.628-14.045-9.649c-4.455-4.018-14.977-8.259-19.43-2.32-4.453 5.942-6.056-.492-13.753 2.32-7.697 2.816-16.299 6.432-19.283 6.432-2.987 0-7.556 3.217-7.556 3.217M39.527 155.825h69.56c2.306-.62-.815-7.717-11.932-8.103-4.316-.151-4.659-13.6-14.247-9.23-9.59 4.37-12.468 8.147-13.207 5.905-1.745-5.287-7.507-5.96-10.341-1.136-2.833 4.827-9.491 5.226-12.638 6.431-3.146 1.206-7.195 6.133-7.195 6.133M249.904 58.25s-7.445-5.625-15.869-3.616-10.97 3.616-10.97 3.616-9.939-2.815-13.815 0c-3.875 2.815-9.947 2.815-9.947 2.815h59.901l-9.3-2.815z" transform="translate(-224 -6994) rotate(-90 3874 3649.5) rotate(-16 411.302 56.483) translate(.444 7.215)"/>
            <path stroke="#FEFEFE" stroke-width=".25" d="M109.043 417.761s-6.004-.422-6.004 5.746c0 6.165 3.002 12.213 3.002 12.213M116.195 428.463s-1.08.822-1.487 5.045c-.402 4.218 2.227 7.033 2.227 7.033M60.473 378.634s6.344-6.232 16.19-4.423c7.79 1.434 10.522 4.423 10.522 4.423M116.935 364.25s5.161-4.911 14.874-1.745c5.017 1.635 7.589 5.29 7.589 5.29M166.103 383.825s-4.342 0-4.744 5.564c-.392 5.39 2.453 8.27 2.453 8.27M172.69 399.336s4.788-3.616 8.566.704c1.87 2.14 2.443 4.673 2.546 6.685M66.67 278.54s17.836 1.607 21.603 13.268M108.385 286.278s9.36-6.534 17.224-.389M300.897 72.721s8.648.453 13.204 7.689c4.553 7.237 2.883 11.609 2.883 11.609M319.109 99.907s8.055-1.866 12.611 6.275c4.551 8.142.897 16.342.897 16.342M333.292 2.272s-3.067-2.677-10.042 0c-6.979 2.675-9.257-.53-10.318-2.168" transform="translate(-224 -6994) rotate(-90 3874 3649.5) rotate(-16 411.302 56.483) translate(.444 7.215)"/>
            <path stroke="#761113" stroke-linejoin="round" stroke-width=".25" d="M329.127 15.641s6.442 3.184 10.32-.427" transform="translate(-224 -6994) rotate(-90 3874 3649.5) rotate(-16 411.302 56.483) translate(.444 7.215)"/>
            <path stroke="#FEFEFE" stroke-width=".25" d="M414.355 121.464s1.667 4.476-3.188 9.523c-2.92 3.03-2.203 6.631-2.203 6.631" transform="translate(-224 -6994) rotate(-90 3874 3649.5) rotate(-16 411.302 56.483) translate(.444 7.215)"/>
            <path stroke="#761113" stroke-linejoin="round" stroke-width=".25" d="M402.69 119.354s.655-9.103 6.196-6.36M4.617 324.478s-3.644 25.558 10.928 49.405M1.58 353.31s2.631 14.875 11.334 25.325M136.397 287.593s9.16 17.198 5.713 27.246M142.887 291.807s3.636 7.033 3.11 14.268M138.288 84.59c11.787-2.251 28.588-4.44 44.978-3.037M123.31 88.902s3.435-1.899 10.427-3.39M142.283 79.007s13.207-2.544 28.385-2.065" transform="translate(-224 -6994) rotate(-90 3874 3649.5) rotate(-16 411.302 56.483) translate(.444 7.215)"/>
            <path fill="#EE3F2E" d="M223.065 221.508L237.251 221.157 233.904 210.421z" transform="translate(-224 -6994) rotate(-90 3874 3649.5) rotate(-16 411.302 56.483) translate(.444 7.215)"/>
            <path stroke="#761113" stroke-linejoin="round" stroke-width=".25" d="M244.086 210.678c-6.27 4.76-10.05 7.002-10.05 7.002M286.527 168.094s-9.063 2.915-20.644 18.622c-9.658 13.104-15.6 19.379-15.6 19.379M256.5 190.003s-10.246 16.505-25.88 26.151" transform="translate(-224 -6994) rotate(-90 3874 3649.5) rotate(-16 411.302 56.483) translate(.444 7.215)"/>
            <path fill="#00A1D6" d="M0 327.73L7.584 328.981 6.785 317.357z" transform="translate(-224 -6994) rotate(-90 3874 3649.5) rotate(-16 411.302 56.483) translate(.444 7.215)"/>
            <path stroke="#FEFEFE" stroke-width=".25" d="M86.174 323.361c-4.309 9.247-4.309 27.006-4.309 27.006" transform="translate(-224 -6994) rotate(-90 3874 3649.5) rotate(-16 411.302 56.483) translate(.444 7.215)"/>
        </g>
    </g>
</svg>
