<svg width="23px" height="12px" viewBox="0 0 23 12" version="1.1" xmlns="http://www.w3.org/2000/svg" xmlns:xlink="http://www.w3.org/1999/xlink">
  <g stroke="none" stroke-width="1" fill="none" fill-rule="evenodd">
    <g class="arrow-line" transform="translate(-222.000000, -19.000000)" fill="#FFFFFF" fill-rule="nonzero">
      <path d="M226.193401,22.37853 L228.195412,20.3729116 C228.447921,20.1199474 228.447737,19.7102369 228.195,19.4575 C227.94233,19.2048297 227.53267,19.2048297 227.28,19.4575 L222.707107,24.0303932 C222.316582,24.4209175 222.316582,25.0540825 222.707107,25.4446068 L227.265,30.0025 C227.51767,30.2551703 227.92733,30.2551703 228.18,30.0025 C228.43267,29.7498297 228.43267,29.3401703 228.18,29.0875 L226.174607,27.0821068 C225.784082,26.6915825 225.784082,26.0584175 226.174607,25.6678932 C226.362143,25.4803568 226.616497,25.375 226.881714,25.375 L243.99,25.375 C244.346224,25.375 244.635,25.0862237 244.635,24.73 C244.635,24.3737763 244.346224,24.085 243.99,24.085 L226.901144,24.085 C226.348859,24.085 225.901144,23.6372847 225.901144,23.085 C225.901144,22.8200954 226.006254,22.5660143 226.193401,22.37853 Z" transform="translate(233.317500, 24.730000) scale(-1, 1) translate(-233.317500, -24.730000)"></path>
    </g>
  </g>
</svg>
