<svg width="538px" height="573px" viewBox="0 0 538 573" version="1.1" xmlns="http://www.w3.org/2000/svg" xmlns:xlink="http://www.w3.org/1999/xlink">
  <g stroke="none" stroke-width="1" fill="none" fill-rule="evenodd">
    <g transform="translate(-746.000000, -10349.000000)">
      <g transform="translate(156.000000, 10349.000000)">
        <g transform="translate(108.000000, 0.000000)">
          <g transform="translate(482.000000, 0.000000)">
            <g transform="translate(108.000000, 0.000000)">
              <g transform="translate(290.000000, 0.000000)">
                <rect stroke="#000000" stroke-width="2" fill="#FFFFFF" x="1" y="3" width="138" height="240" rx="3"></rect>
                <rect stroke="#000000" stroke-width="2" x="15" y="143" width="108" height="14"></rect>
                <rect stroke="#000000" stroke-width="2" x="15" y="169" width="108" height="14"></rect>
                <rect stroke="#000000" stroke-width="2" fill="#BBE7B1" x="15" y="196" width="108" height="14"></rect>
                <path d="M137,1 C137.552285,1 138.052285,1.22385763 138.414214,1.58578644 C138.776142,1.94771525 139,2.44771525 139,3 L139,3 L139,101 L1,101 L1,3 C1,2.44771525 1.22385763,1.94771525 1.58578644,1.58578644 C1.94771525,1.22385763 2.44771525,1 3,1 L3,1 Z" stroke="#000000" stroke-width="2" fill="#BBE7B1"></path>
                <polygon fill="#000000" fill-rule="nonzero" transform="translate(126.202214, 16.266686) rotate(45.000000) translate(-126.202214, -16.266686) " points="127.303789 23.2412743 127.306999 17.2661238 133.176819 17.2629705 133.177961 15.137917 127.308141 15.1410703 127.311284 9.29092297 125.125983 9.29209691 125.12284 15.1422442 119.22761 15.1454112 119.226468 17.2704647 125.121698 17.2672977 125.118488 23.2424482"></polygon>
                <line x1="56" y1="233" x2="83" y2="233" stroke="#000000" stroke-width="2" stroke-linecap="round"></line>
                <line x1="14" y1="113" x2="57" y2="113" stroke="#000000" stroke-width="2" stroke-linecap="round"></line>
                <line x1="79" y1="113" x2="122" y2="113" stroke="#000000" stroke-width="2" stroke-linecap="round"></line>
                <line x1="33" y1="224.75" x2="106.421875" y2="224.4375" stroke="#000000" stroke-width="2" stroke-linecap="round"></line>
                <line x1="1.74152542" y1="126.59375" x2="138" y2="126.59" stroke="#000000" stroke-width="2" stroke-linecap="square"></line>
              </g>
              <path class="product-design__switch-card__image-path" d="M267,259 C280.669048,259 291.775881,269.970143 291.996651,283.586579 L292,284 L292,299 L298,299 L291,313 L284,299 L290,299 L290,284 C290,271.424476 279.907469,261.20619 267.380347,261.003081 L267,261 L159,261 C158.447715,261 158,260.552285 158,260 C158,259.487164 158.38604,259.064493 158.883379,259.006728 L159,259 L267,259 Z" fill="#000000" fill-rule="nonzero"></path>
              <path d="M263.184402,203.642742 L277,211 L262.824835,217.638124 L262.980956,211.534356 C261.797379,211.364138 260.623818,211.147691 259.462283,210.885744 C258.923529,210.764245 258.585276,210.229004 258.706775,209.690249 C258.828274,209.151495 259.363515,208.813242 259.90227,208.934741 C260.93633,209.167941 261.980412,209.363421 263.032987,209.520618 L263.184402,203.642742 Z M250.775063,205.76834 C252.244699,206.470944 253.75369,207.090481 255.295728,207.623543 C255.817705,207.803983 256.094575,208.373404 255.914135,208.895381 C255.733695,209.417358 255.164273,209.694228 254.642296,209.513788 C253.028839,208.956038 251.450003,208.307825 249.912417,207.572735 C249.414147,207.334522 249.203329,206.737485 249.441543,206.239215 C249.679756,205.740945 250.276793,205.530127 250.775063,205.76834 Z M242.440736,200.550526 C243.716623,201.566352 245.048415,202.510011 246.42972,203.376558 C246.897564,203.670055 247.0389,204.287243 246.745403,204.755087 C246.451906,205.222931 245.834717,205.364268 245.366873,205.070771 C243.92217,204.164452 242.529325,203.177532 241.195001,202.115181 C240.762934,201.771181 240.691541,201.142054 241.035541,200.709986 C241.379541,200.277919 242.008668,200.206526 242.440736,200.550526 Z M235.502889,193.622701 C236.52043,194.896954 237.608738,196.113589 238.76221,197.266512 C239.152827,197.656943 239.152978,198.290108 238.762546,198.680725 C238.372115,199.071343 237.73895,199.071493 237.348333,198.681062 C236.142155,197.475459 235.00411,196.203222 233.940038,194.870698 C233.595413,194.439128 233.665896,193.809898 234.097465,193.465274 C234.529035,193.120649 235.158265,193.191131 235.502889,193.622701 Z M230.3096,185.372112 C231.017934,186.840834 231.808533,188.268124 232.677186,189.647522 C232.971486,190.114861 232.831209,190.732292 232.36387,191.026591 C231.89653,191.320891 231.2791,191.180614 230.9848,190.713274 C230.076184,189.270416 229.249165,187.777376 228.508159,186.24091 C228.268247,185.743455 228.477027,185.145702 228.974481,184.90579 C229.471935,184.665878 230.069689,184.874658 230.3096,185.372112 Z M227.086776,176.145049 C227.447451,177.738495 227.897367,179.306535 228.433844,180.843186 C228.615883,181.364608 228.340759,181.934875 227.819337,182.116914 C227.297916,182.298953 226.727649,182.023829 226.54561,181.502407 C225.984271,179.894541 225.513502,178.253825 225.136122,176.586578 C225.014197,176.04792 225.352026,175.512412 225.890684,175.390487 C226.429342,175.268562 226.964851,175.606391 227.086776,176.145049 Z M225.013986,165.427871 C225.526822,165.427871 225.949493,165.813911 226.007258,166.31125 L226.013986,166.427871 L226.013986,166.5 C226.013986,168.11696 226.102164,169.722874 226.27715,171.313044 C226.337559,171.862015 225.941502,172.356016 225.392531,172.416426 C224.84356,172.476835 224.34956,172.080778 224.28915,171.531807 C224.13667,170.146155 224.047237,168.74928 224.021662,167.344089 L224.013986,166.5 L224.013986,166.427871 C224.013986,165.875586 224.461701,165.427871 225.013986,165.427871 Z M225.013986,155.427871 C225.526822,155.427871 225.949493,155.813911 226.007258,156.31125 L226.013986,156.427871 L226.013986,161.427871 C226.013986,161.980156 225.566271,162.427871 225.013986,162.427871 C224.50115,162.427871 224.078479,162.041831 224.020714,161.544492 L224.013986,161.427871 L224.013986,156.427871 C224.013986,155.875586 224.461701,155.427871 225.013986,155.427871 Z M225.013986,145.427871 C225.526822,145.427871 225.949493,145.813911 226.007258,146.31125 L226.013986,146.427871 L226.013986,151.427871 C226.013986,151.980156 225.566271,152.427871 225.013986,152.427871 C224.50115,152.427871 224.078479,152.041831 224.020714,151.544492 L224.013986,151.427871 L224.013986,146.427871 C224.013986,145.875586 224.461701,145.427871 225.013986,145.427871 Z M224.039209,136.245563 C224.717318,137.844312 225.227373,139.512908 225.559049,141.228878 C225.663859,141.771127 225.309245,142.295671 224.766997,142.400481 C224.224748,142.505291 223.700204,142.150677 223.595394,141.608429 C223.290418,140.030592 222.82148,138.496508 222.197984,137.026518 C221.982329,136.518078 222.219679,135.931083 222.728119,135.715428 C223.236559,135.499774 223.823554,135.737123 224.039209,136.245563 Z M218.12392,127.772167 C219.392634,128.963522 220.534945,130.284012 221.530671,131.711167 C221.846686,132.164105 221.735688,132.787465 221.282749,133.10348 C220.829811,133.419495 220.206451,133.308497 219.890437,132.855558 C218.974059,131.542132 217.922643,130.326714 216.754855,129.230132 C216.352249,128.852075 216.332349,128.219223 216.710405,127.816617 C217.088462,127.414011 217.721315,127.394111 218.12392,127.772167 Z M209.218937,122.377855 C210.865626,122.949748 212.444999,123.692714 213.933472,124.59288 C214.406057,124.878679 214.557477,125.493472 214.271677,125.966057 C213.985878,126.438643 213.371085,126.590063 212.8985,126.304263 C211.529379,125.476277 210.076933,124.793019 208.562785,124.267158 C208.041069,124.085966 207.765018,123.516147 207.94621,122.99443 C208.127401,122.472714 208.697221,122.196664 209.218937,122.377855 Z M201.013986,121 C202.057441,121 203.093222,121.063981 204.11735,121.190834 C204.665446,121.258724 205.05473,121.75808 204.98684,122.306176 C204.91895,122.854272 204.419595,123.243556 203.871499,123.175666 C203.117406,123.08226 202.356236,123.025877 201.589786,123.007061 L201.013986,123 L199,123 C198.447715,123 198,122.552285 198,122 C198,121.487164 198.38604,121.064493 198.883379,121.006728 L199,121 L201.013986,121 Z M164,121 C164.552285,121 165,121.447715 165,122 C165,122.512836 164.61396,122.935507 164.116621,122.993272 L164,123 L159,123 C158.447715,123 158,122.552285 158,122 C158,121.487164 158.38604,121.064493 158.883379,121.006728 L159,121 L164,121 Z M174,121 C174.552285,121 175,121.447715 175,122 C175,122.512836 174.61396,122.935507 174.116621,122.993272 L174,123 L169,123 C168.447715,123 168,122.552285 168,122 C168,121.487164 168.38604,121.064493 168.883379,121.006728 L169,121 L174,121 Z M184,121 C184.552285,121 185,121.447715 185,122 C185,122.512836 184.61396,122.935507 184.116621,122.993272 L184,123 L179,123 C178.447715,123 178,122.552285 178,122 C178,121.487164 178.38604,121.064493 178.883379,121.006728 L179,121 L184,121 Z M194,121 C194.552285,121 195,121.447715 195,122 C195,122.512836 194.61396,122.935507 194.116621,122.993272 L194,123 L189,123 C188.447715,123 188,122.552285 188,122 C188,121.487164 188.38604,121.064493 188.883379,121.006728 L189,121 L194,121 Z" fill="#000000" fill-rule="nonzero"></path>
              <g transform="translate(0.000000, 113.000000)">
                <rect stroke="#000000" stroke-width="2" fill="#FFFFFF" x="1" y="4" width="157" height="273" rx="3"></rect>
                <path d="M156,1 C156.552285,1 157.052285,1.22385763 157.414214,1.58578644 C157.776142,1.94771525 158,2.44771525 158,3 L158,3 L158,33 L1,33 L1,3 C1,2.44771525 1.22385763,1.94771525 1.58578644,1.58578644 C1.94771525,1.22385763 2.44771525,1 3,1 L3,1 Z" stroke="#000000" stroke-width="2" fill="#FF5E45"></path>
                <polygon fill="#000000" fill-rule="nonzero" points="142.26776 26 142.26776 19.1469534 149 19.1469534 149 16.7096774 142.26776 16.7096774 142.26776 10 139.761384 10 139.761384 16.7096774 133 16.7096774 133 19.1469534 139.761384 19.1469534 139.761384 26"></polygon>
                <line x1="17" y1="112.5" x2="142" y2="112.5" stroke="#000000" stroke-width="2" stroke-linecap="round"></line>
                <line x1="79" y1="58.5" x2="110" y2="58.5" stroke="#000000" stroke-width="2" stroke-linecap="round"></line>
                <line x1="58" y1="190.5" x2="89" y2="190.5" stroke="#000000" stroke-width="2" stroke-linecap="round"></line>
                <line x1="58" y1="207.5" x2="143" y2="207.5" stroke="#000000" stroke-width="2" stroke-linecap="round"></line>
                <line x1="58" y1="218.5" x2="122" y2="218.5" stroke="#000000" stroke-width="2" stroke-linecap="round"></line>
                <line x1="58" y1="235.5" x2="89" y2="235.5" stroke="#000000" stroke-width="2" stroke-linecap="round"></line>
                <line x1="58" y1="252.5" x2="143" y2="252.5" stroke="#000000" stroke-width="2" stroke-linecap="round"></line>
                <line x1="58" y1="263.5" x2="122" y2="263.5" stroke="#000000" stroke-width="2" stroke-linecap="round"></line>
                <line x1="79" y1="75.75" x2="141.666667" y2="75.125" stroke="#000000" stroke-width="2" stroke-linecap="round"></line>
                <line x1="79" y1="88.75" x2="141.666667" y2="88.125" stroke="#000000" stroke-width="2" stroke-linecap="round"></line>
                <circle stroke="#000000" stroke-width="2" fill="#FF5E45" cx="42" cy="74" r="23"></circle>
                <ellipse stroke="#000000" stroke-width="2" fill="#D8D8D8" cx="35.5" cy="144" rx="16.5" ry="16"></ellipse>
                <ellipse stroke="#000000" stroke-width="2" fill="#D8D8D8" cx="81.5" cy="144" rx="16.5" ry="16"></ellipse>
                <ellipse stroke="#000000" stroke-width="2" fill="#D8D8D8" cx="126.5" cy="144" rx="16.5" ry="16"></ellipse>
                <line x1="17" y1="172.5" x2="142" y2="172.5" stroke="#000000" stroke-width="2" stroke-linecap="round"></line>
                <line x1="59" y1="18.5" x2="99" y2="18.5" stroke="#000000" stroke-width="2" stroke-linecap="round"></line>
                <rect stroke="#000000" stroke-width="2" fill="#FF5E45" x="20" y="192" width="27" height="24" rx="1"></rect>
                <rect stroke="#000000" stroke-width="2" fill="#FF5E45" x="20" y="237" width="27" height="24" rx="1"></rect>
              </g>
              <g transform="translate(221.000000, 329.000000)">
                <rect stroke="#000000" stroke-width="2" fill="#FFFFFF" x="1" y="4" width="136" height="237" rx="3"></rect>
                <rect stroke="#000000" stroke-width="2" x="19" y="70" width="97" height="14"></rect>
                <path d="M135,1 C135.552285,1 136.052285,1.22385763 136.414214,1.58578644 C136.776142,1.94771525 137,2.44771525 137,3 L137,3 L137,29 L1,29 L1,3 C1,2.44771525 1.22385763,1.94771525 1.58578644,1.58578644 C1.94771525,1.22385763 2.44771525,1 3,1 L3,1 Z" stroke="#000000" stroke-width="2" fill="#A0F4FF"></path>
                <path d="M135,229 C135.552285,229 136.052285,229.223858 136.414214,229.585786 C136.776142,229.947715 137,230.447715 137,231 L137,231 L137,243 L1,243 L1,231 C1,230.447715 1.22385763,229.947715 1.58578644,229.585786 C1.94771525,229.223858 2.44771525,229 3,229 L3,229 Z" stroke="#000000" stroke-width="2" fill="#CCCCCC" transform="translate(69.000000, 236.000000) scale(1, -1) translate(-69.000000, -236.000000) "></path>
                <rect stroke="#000000" stroke-width="2" x="19" y="45" width="33" height="14"></rect>
                <rect stroke="#000000" stroke-width="2" fill="#A0F4FF" x="15" y="132" width="44" height="7"></rect>
                <rect stroke="#000000" stroke-width="2" fill="#A0F4FF" x="15" y="194" width="44" height="7"></rect>
                <rect stroke="#000000" stroke-width="2" x="52" y="45" width="32" height="14"></rect>
                <rect stroke="#000000" stroke-width="2" x="84" y="45" width="33" height="14"></rect>
                <polygon fill="#000000" fill-rule="nonzero" points="123.10929 23 123.10929 17.0035842 129 17.0035842 129 14.8709677 123.10929 14.8709677 123.10929 9 120.916211 9 120.916211 14.8709677 115 14.8709677 115 17.0035842 120.916211 17.0035842 120.916211 23"></polygon>
                <line x1="14" y1="150" x2="40" y2="150" stroke="#000000" stroke-width="2" stroke-linecap="round"></line>
                <line x1="14" y1="212" x2="40" y2="212" stroke="#000000" stroke-width="2" stroke-linecap="round"></line>
                <line x1="51" y1="16" x2="86" y2="16" stroke="#000000" stroke-width="2" stroke-linecap="round"></line>
                <rect stroke="#000000" stroke-width="2" x="1" y="100" width="136" height="65"></rect>
              </g>
            </g>
            <g transform="translate(0.000000, 305.000000)">
              <g transform="translate(52.000000, 86.500000) scale(-1, 1) translate(-52.000000, -86.500000) ">
                <path class="product-design__switch-card__image-path" d="M14.4661458,7 L0.466145833,0 L14.4661458,-7 L14.466,-1 L21.5472784,-1 C33.0281069,-1 42.3571146,8.21303974 42.544408,19.6492257 L42.5472784,20 L42.5472784,138 C42.5472784,148.380578 50.8719143,156.816833 61.2094786,156.997058 L61.5472784,157 L83.4661458,157 L83.4661458,159 L61.5472784,159 C50.06645,159 40.7374423,149.78696 40.5501489,138.350774 L40.5472784,138 L40.5472784,20 C40.5472784,9.61942212 32.2226425,1.18316713 21.8850783,1.0029425 L21.5472784,1 L14.466,1 L14.4661458,7 Z" fill="#000000" fill-rule="nonzero"></path>
                <g transform="translate(75.000000, 144.000000)" fill="#FFFFFF" stroke-width="2">
                  <circle stroke="#FF5E45" cx="14.5" cy="14.5" r="13.5"></circle>
                  <circle stroke="#000000" cx="14.5" cy="14.5" r="3.5"></circle>
                </g>
              </g>
              <g transform="translate(475.000000, 70.000000)">
                <path class="product-design__switch-card__image-path" d="M14,7 L0,0 L14,-7 L14,-1 L18,-1 C30.5755238,-1 40.7938105,9.09253148 40.9969187,21.6196529 L41,22 L41,86 L39,86 L39,22 C39,10.5191716 29.7869603,1.19016386 18.3507743,1.00287045 L18,1 L14,1 L14,7 Z" fill="#000000" fill-rule="nonzero"></path>
                <g transform="translate(25.500000, 74.000000)" fill="#FFFFFF" stroke-width="2">
                  <circle stroke="#FF5E45" cx="14.5" cy="14.5" r="13.5"></circle>
                  <circle stroke="#000000" cx="14.5" cy="14.5" r="3.5"></circle>
                </g>
              </g>
            </g>
          </g>
        </g>
      </g>
    </g>
  </g>
</svg>
