<!-- Generated by IcoMoon.io -->
<svg version="1.1" xmlns="http://www.w3.org/2000/svg" width="33" height="32" viewBox="0 0 33 32">
<title>content</title>
<path d="M3.655 3.599v7.25h7.441v-7.25h-7.441zM4.481 4.404h5.787v3.713l-1.395-1.115-1.363 1.023-1.62-1.3-1.41 0.898v-3.219zM8.822 5.21c-0.342 0-0.62 0.271-0.62 0.604s0.278 0.604 0.62 0.604c0.342 0 0.62-0.271 0.62-0.604s-0.278-0.604-0.62-0.604zM14.816 5.612c-0.228 0-0.413 0.181-0.413 0.403s0.186 0.403 0.413 0.403c0.228 0 0.413-0.181 0.413-0.403s-0.186-0.403-0.413-0.403zM16.47 5.612c-0.228 0-0.413 0.181-0.413 0.403s0.186 0.403 0.413 0.403c0.228 0 0.413-0.181 0.413-0.403s-0.186-0.403-0.413-0.403zM18.123 5.612c-0.228 0-0.413 0.181-0.413 0.403s0.186 0.403 0.413 0.403c0.228 0 0.413-0.181 0.413-0.403s-0.186-0.403-0.413-0.403zM19.777 5.612c-0.228 0-0.413 0.181-0.413 0.403s0.186 0.403 0.413 0.403c0.228 0 0.413-0.181 0.413-0.403s-0.186-0.403-0.413-0.403zM21.43 5.612c-0.228 0-0.413 0.181-0.413 0.403s0.186 0.403 0.413 0.403c0.228 0 0.413-0.181 0.413-0.403s-0.186-0.403-0.413-0.403zM23.084 5.612c-0.228 0-0.413 0.181-0.413 0.403s0.186 0.403 0.413 0.403c0.228 0 0.413-0.181 0.413-0.403s-0.186-0.403-0.413-0.403zM24.737 5.612c-0.228 0-0.413 0.181-0.413 0.403s0.186 0.403 0.413 0.403c0.228 0 0.413-0.181 0.413-0.403s-0.186-0.403-0.413-0.403zM26.391 5.612c-0.228 0-0.413 0.181-0.413 0.403s0.186 0.403 0.413 0.403c0.228 0 0.413-0.181 0.413-0.403s-0.186-0.403-0.413-0.403zM28.044 5.612c-0.228 0-0.413 0.181-0.413 0.403s0.186 0.403 0.413 0.403c0.228 0 0.413-0.181 0.413-0.403s-0.186-0.403-0.413-0.403zM5.835 7.722l1.657 1.333 1.366-1.024 1.411 1.13v0.883h-5.787v-1.458l1.353-0.862zM14.816 8.029c-0.228 0-0.413 0.181-0.413 0.403s0.186 0.403 0.413 0.403c0.228 0 0.413-0.181 0.413-0.403s-0.186-0.403-0.413-0.403zM16.47 8.029c-0.228 0-0.413 0.181-0.413 0.403s0.186 0.403 0.413 0.403c0.228 0 0.413-0.181 0.413-0.403s-0.186-0.403-0.413-0.403zM18.123 8.029c-0.228 0-0.413 0.181-0.413 0.403s0.186 0.403 0.413 0.403c0.228 0 0.413-0.181 0.413-0.403s-0.186-0.403-0.413-0.403zM19.777 8.029c-0.228 0-0.413 0.181-0.413 0.403s0.186 0.403 0.413 0.403c0.228 0 0.413-0.181 0.413-0.403s-0.186-0.403-0.413-0.403zM21.43 8.029c-0.228 0-0.413 0.181-0.413 0.403s0.186 0.403 0.413 0.403c0.228 0 0.413-0.181 0.413-0.403s-0.186-0.403-0.413-0.403zM23.084 8.029c-0.228 0-0.413 0.181-0.413 0.403s0.186 0.403 0.413 0.403c0.228 0 0.413-0.181 0.413-0.403s-0.186-0.403-0.413-0.403zM24.737 8.029c-0.228 0-0.413 0.181-0.413 0.403s0.186 0.403 0.413 0.403c0.228 0 0.413-0.181 0.413-0.403s-0.186-0.403-0.413-0.403zM3.655 12.057v7.25h7.441v-7.25h-7.441zM4.481 12.862h5.787v5.639h-5.787v-5.639zM7.375 13.668c-0.457 0-0.827 0.36-0.827 0.806 0 0.038 0.013 0.083 0.024 0.128-0.042-0.025-0.082-0.046-0.121-0.058-0.436-0.137-0.901 0.094-1.041 0.516-0.142 0.425 0.095 0.878 0.53 1.015 0.037 0.013 0.081 0.019 0.128 0.022-0.035 0.030-0.068 0.060-0.090 0.090-0.268 0.36-0.186 0.865 0.184 1.126 0.368 0.261 0.885 0.181 1.155-0.178 0.023-0.031 0.040-0.071 0.060-0.112 0.018 0.041 0.037 0.080 0.060 0.112 0.268 0.359 0.785 0.439 1.155 0.178s0.452-0.766 0.182-1.126c-0.023-0.030-0.053-0.060-0.090-0.090 0.047-0.003 0.092-0.009 0.128-0.022 0.436-0.137 0.673-0.591 0.531-1.015-0.14-0.422-0.607-0.653-1.041-0.516-0.039 0.013-0.079 0.033-0.121 0.058 0.011-0.044 0.024-0.090 0.024-0.128 0-0.445-0.37-0.806-0.827-0.806zM14.816 14.071c-0.228 0-0.413 0.181-0.413 0.403s0.186 0.403 0.413 0.403c0.228 0 0.413-0.181 0.413-0.403s-0.186-0.403-0.413-0.403zM16.47 14.071c-0.228 0-0.413 0.181-0.413 0.403s0.186 0.403 0.413 0.403c0.228 0 0.413-0.181 0.413-0.403s-0.186-0.403-0.413-0.403zM18.123 14.071c-0.228 0-0.413 0.181-0.413 0.403s0.186 0.403 0.413 0.403c0.228 0 0.413-0.181 0.413-0.403s-0.186-0.403-0.413-0.403zM19.777 14.071c-0.228 0-0.413 0.181-0.413 0.403s0.186 0.403 0.413 0.403c0.228 0 0.413-0.181 0.413-0.403s-0.186-0.403-0.413-0.403zM21.43 14.071c-0.228 0-0.413 0.181-0.413 0.403s0.186 0.403 0.413 0.403c0.228 0 0.413-0.181 0.413-0.403s-0.186-0.403-0.413-0.403zM23.084 14.071c-0.228 0-0.413 0.181-0.413 0.403s0.186 0.403 0.413 0.403c0.228 0 0.413-0.181 0.413-0.403s-0.186-0.403-0.413-0.403zM24.737 14.071c-0.228 0-0.413 0.181-0.413 0.403s0.186 0.403 0.413 0.403c0.228 0 0.413-0.181 0.413-0.403s-0.186-0.403-0.413-0.403zM26.391 14.071c-0.228 0-0.413 0.181-0.413 0.403s0.186 0.403 0.413 0.403c0.228 0 0.413-0.181 0.413-0.403s-0.186-0.403-0.413-0.403zM28.044 14.071c-0.228 0-0.413 0.181-0.413 0.403s0.186 0.403 0.413 0.403c0.228 0 0.413-0.181 0.413-0.403s-0.186-0.403-0.413-0.403zM7.375 14.877c0.457 0 0.827 0.36 0.827 0.806s-0.37 0.806-0.827 0.806c-0.457 0-0.827-0.36-0.827-0.806s0.37-0.806 0.827-0.806zM14.816 16.488c-0.228 0-0.413 0.181-0.413 0.403s0.186 0.403 0.413 0.403c0.228 0 0.413-0.181 0.413-0.403s-0.186-0.403-0.413-0.403zM16.47 16.488c-0.228 0-0.413 0.181-0.413 0.403s0.186 0.403 0.413 0.403c0.228 0 0.413-0.181 0.413-0.403s-0.186-0.403-0.413-0.403zM18.123 16.488c-0.228 0-0.413 0.181-0.413 0.403s0.186 0.403 0.413 0.403c0.228 0 0.413-0.181 0.413-0.403s-0.186-0.403-0.413-0.403zM19.777 16.488c-0.228 0-0.413 0.181-0.413 0.403s0.186 0.403 0.413 0.403c0.228 0 0.413-0.181 0.413-0.403s-0.186-0.403-0.413-0.403zM21.43 16.488c-0.228 0-0.413 0.181-0.413 0.403s0.186 0.403 0.413 0.403c0.228 0 0.413-0.181 0.413-0.403s-0.186-0.403-0.413-0.403zM23.084 16.488c-0.228 0-0.413 0.181-0.413 0.403s0.186 0.403 0.413 0.403c0.228 0 0.413-0.181 0.413-0.403s-0.186-0.403-0.413-0.403zM24.737 16.488c-0.228 0-0.413 0.181-0.413 0.403s0.186 0.403 0.413 0.403c0.228 0 0.413-0.181 0.413-0.403s-0.186-0.403-0.413-0.403zM3.655 20.515v7.25h7.441v-7.25h-7.441zM4.481 21.321h5.787v5.639h-5.787v-5.639zM7.375 21.724c-0.228 0-0.413 0.181-0.413 0.403s0.186 0.403 0.413 0.403c0.228 0 0.413-0.181 0.413-0.403s-0.186-0.403-0.413-0.403zM14.816 22.127c-0.228 0-0.413 0.181-0.413 0.403s0.186 0.403 0.413 0.403c0.228 0 0.413-0.181 0.413-0.403s-0.186-0.403-0.413-0.403zM16.47 22.127c-0.228 0-0.413 0.181-0.413 0.403s0.186 0.403 0.413 0.403c0.228 0 0.413-0.181 0.413-0.403s-0.186-0.403-0.413-0.403zM18.123 22.127c-0.228 0-0.413 0.181-0.413 0.403s0.186 0.403 0.413 0.403c0.228 0 0.413-0.181 0.413-0.403s-0.186-0.403-0.413-0.403zM19.777 22.127c-0.228 0-0.413 0.181-0.413 0.403s0.186 0.403 0.413 0.403c0.228 0 0.413-0.181 0.413-0.403s-0.186-0.403-0.413-0.403zM21.43 22.127c-0.228 0-0.413 0.181-0.413 0.403s0.186 0.403 0.413 0.403c0.228 0 0.413-0.181 0.413-0.403s-0.186-0.403-0.413-0.403zM23.084 22.127c-0.228 0-0.413 0.181-0.413 0.403s0.186 0.403 0.413 0.403c0.228 0 0.413-0.181 0.413-0.403s-0.186-0.403-0.413-0.403zM24.737 22.127c-0.228 0-0.413 0.181-0.413 0.403s0.186 0.403 0.413 0.403c0.228 0 0.413-0.181 0.413-0.403s-0.186-0.403-0.413-0.403zM26.391 22.127c-0.228 0-0.413 0.181-0.413 0.403s0.186 0.403 0.413 0.403c0.228 0 0.413-0.181 0.413-0.403s-0.186-0.403-0.413-0.403zM28.044 22.127c-0.228 0-0.413 0.181-0.413 0.403s0.186 0.403 0.413 0.403c0.228 0 0.413-0.181 0.413-0.403s-0.186-0.403-0.413-0.403zM8.841 22.314c-0.111-0.002-0.218 0.041-0.297 0.116-0.161 0.157-0.161 0.414 0 0.571 0.161 0.156 0.423 0.156 0.585 0 0.161-0.157 0.161-0.414 0-0.571-0.076-0.074-0.179-0.116-0.288-0.116zM5.92 22.314c-0.113-0.002-0.221 0.041-0.3 0.118-0.16 0.157-0.16 0.412 0 0.57 0.161 0.157 0.425 0.157 0.586 0 0.16-0.157 0.16-0.412 0-0.57-0.078-0.074-0.179-0.116-0.286-0.118zM7.375 22.932c-0.68 0-1.24 0.546-1.24 1.208s0.56 1.208 1.24 1.208c0.68 0 1.24-0.546 1.24-1.208s-0.56-1.208-1.24-1.208zM5.308 23.738c-0.228 0-0.413 0.181-0.413 0.403s0.186 0.403 0.413 0.403c0.228 0 0.413-0.181 0.413-0.403s-0.186-0.403-0.413-0.403zM7.375 23.738c0.232 0 0.413 0.176 0.413 0.403s-0.181 0.403-0.413 0.403c-0.232 0-0.413-0.176-0.413-0.403s0.181-0.403 0.413-0.403zM9.442 23.738c-0.228 0-0.413 0.181-0.413 0.403s0.186 0.403 0.413 0.403c0.228 0 0.413-0.181 0.413-0.403s-0.186-0.403-0.413-0.403zM14.816 24.543c-0.228 0-0.413 0.181-0.413 0.403s0.186 0.403 0.413 0.403c0.228 0 0.413-0.181 0.413-0.403s-0.186-0.403-0.413-0.403zM16.47 24.543c-0.228 0-0.413 0.181-0.413 0.403s0.186 0.403 0.413 0.403c0.228 0 0.413-0.181 0.413-0.403s-0.186-0.403-0.413-0.403zM18.123 24.543c-0.228 0-0.413 0.181-0.413 0.403s0.186 0.403 0.413 0.403c0.228 0 0.413-0.181 0.413-0.403s-0.186-0.403-0.413-0.403zM19.777 24.543c-0.228 0-0.413 0.181-0.413 0.403s0.186 0.403 0.413 0.403c0.228 0 0.413-0.181 0.413-0.403s-0.186-0.403-0.413-0.403zM21.43 24.543c-0.228 0-0.413 0.181-0.413 0.403s0.186 0.403 0.413 0.403c0.228 0 0.413-0.181 0.413-0.403s-0.186-0.403-0.413-0.403zM23.084 24.543c-0.228 0-0.413 0.181-0.413 0.403s0.186 0.403 0.413 0.403c0.228 0 0.413-0.181 0.413-0.403s-0.186-0.403-0.413-0.403zM24.737 24.543c-0.228 0-0.413 0.181-0.413 0.403s0.186 0.403 0.413 0.403c0.228 0 0.413-0.181 0.413-0.403s-0.186-0.403-0.413-0.403zM5.92 25.162c-0.113-0.002-0.22 0.041-0.299 0.118-0.161 0.157-0.161 0.412 0 0.57s0.423 0.157 0.585 0c0.161-0.157 0.161-0.412 0-0.57-0.076-0.074-0.179-0.116-0.286-0.118zM8.843 25.162c-0.111-0.002-0.22 0.041-0.299 0.118-0.161 0.157-0.161 0.412 0 0.57s0.423 0.157 0.585 0c0.161-0.157 0.161-0.412 0-0.57-0.076-0.074-0.178-0.116-0.286-0.118zM7.375 25.752c-0.228 0-0.413 0.181-0.413 0.403s0.186 0.403 0.413 0.403c0.228 0 0.413-0.181 0.413-0.403s-0.186-0.403-0.413-0.403z"></path>
</svg>
