<!-- Generated by IcoMoon.io -->
<svg version="1.1" xmlns="http://www.w3.org/2000/svg" width="34" height="32" viewBox="0 0 34 32">
<title>content-marketing</title>
<path d="M0.307 0v9.6h9.853v-9.6h-9.853zM1.402 1.067h7.663v4.917l-1.847-1.477-1.805 1.354-2.145-1.721-1.867 1.19v-4.263zM7.149 2.133c-0.453 0-0.821 0.358-0.821 0.8s0.368 0.8 0.821 0.8c0.453 0 0.821-0.358 0.821-0.8s-0.368-0.8-0.821-0.8zM15.086 2.667c-0.301 0-0.547 0.24-0.547 0.533s0.246 0.533 0.547 0.533c0.301 0 0.547-0.24 0.547-0.533s-0.246-0.533-0.547-0.533zM17.276 2.667c-0.301 0-0.547 0.24-0.547 0.533s0.246 0.533 0.547 0.533c0.301 0 0.547-0.24 0.547-0.533s-0.246-0.533-0.547-0.533zM19.465 2.667c-0.301 0-0.547 0.24-0.547 0.533s0.246 0.533 0.547 0.533c0.301 0 0.547-0.24 0.547-0.533s-0.246-0.533-0.547-0.533zM21.655 2.667c-0.301 0-0.547 0.24-0.547 0.533s0.246 0.533 0.547 0.533c0.301 0 0.547-0.24 0.547-0.533s-0.246-0.533-0.547-0.533zM23.844 2.667c-0.301 0-0.547 0.24-0.547 0.533s0.246 0.533 0.547 0.533c0.301 0 0.547-0.24 0.547-0.533s-0.246-0.533-0.547-0.533zM26.034 2.667c-0.301 0-0.547 0.24-0.547 0.533s0.246 0.533 0.547 0.533c0.301 0 0.547-0.24 0.547-0.533s-0.246-0.533-0.547-0.533zM28.223 2.667c-0.301 0-0.547 0.24-0.547 0.533s0.246 0.533 0.547 0.533c0.301 0 0.547-0.24 0.547-0.533s-0.246-0.533-0.547-0.533zM30.413 2.667c-0.301 0-0.547 0.24-0.547 0.533s0.246 0.533 0.547 0.533c0.301 0 0.547-0.24 0.547-0.533s-0.246-0.533-0.547-0.533zM32.602 2.667c-0.301 0-0.547 0.24-0.547 0.533s0.246 0.533 0.547 0.533c0.301 0 0.547-0.24 0.547-0.533s-0.246-0.533-0.547-0.533zM3.194 5.46l2.194 1.765 1.809-1.356 1.869 1.496v1.169h-7.663v-1.931l1.792-1.142zM15.086 5.867c-0.301 0-0.547 0.24-0.547 0.533s0.246 0.533 0.547 0.533c0.301 0 0.547-0.24 0.547-0.533s-0.246-0.533-0.547-0.533zM17.276 5.867c-0.301 0-0.547 0.24-0.547 0.533s0.246 0.533 0.547 0.533c0.301 0 0.547-0.24 0.547-0.533s-0.246-0.533-0.547-0.533zM19.465 5.867c-0.301 0-0.547 0.24-0.547 0.533s0.246 0.533 0.547 0.533c0.301 0 0.547-0.24 0.547-0.533s-0.246-0.533-0.547-0.533zM21.655 5.867c-0.301 0-0.547 0.24-0.547 0.533s0.246 0.533 0.547 0.533c0.301 0 0.547-0.24 0.547-0.533s-0.246-0.533-0.547-0.533zM23.844 5.867c-0.301 0-0.547 0.24-0.547 0.533s0.246 0.533 0.547 0.533c0.301 0 0.547-0.24 0.547-0.533s-0.246-0.533-0.547-0.533zM26.034 5.867c-0.301 0-0.547 0.24-0.547 0.533s0.246 0.533 0.547 0.533c0.301 0 0.547-0.24 0.547-0.533s-0.246-0.533-0.547-0.533zM28.223 5.867c-0.301 0-0.547 0.24-0.547 0.533s0.246 0.533 0.547 0.533c0.301 0 0.547-0.24 0.547-0.533s-0.246-0.533-0.547-0.533zM0.307 11.2v9.6h9.853v-9.6h-9.853zM1.402 12.267h7.663v7.467h-7.663v-7.467zM5.234 13.333c-0.605 0-1.095 0.477-1.095 1.067 0 0.050 0.017 0.11 0.032 0.169-0.056-0.033-0.109-0.060-0.16-0.077-0.577-0.181-1.193 0.125-1.379 0.683-0.188 0.563 0.126 1.162 0.701 1.344 0.049 0.017 0.107 0.025 0.169 0.029-0.047 0.040-0.090 0.079-0.12 0.119-0.355 0.477-0.246 1.146 0.244 1.492 0.488 0.346 1.172 0.24 1.529-0.235 0.030-0.042 0.053-0.094 0.079-0.148 0.024 0.054 0.049 0.106 0.079 0.148 0.355 0.475 1.039 0.581 1.529 0.235s0.599-1.015 0.242-1.492c-0.030-0.040-0.071-0.079-0.12-0.119 0.062-0.004 0.122-0.012 0.169-0.029 0.577-0.181 0.892-0.783 0.703-1.344-0.186-0.558-0.804-0.865-1.379-0.683-0.051 0.017-0.105 0.044-0.16 0.077 0.015-0.058 0.032-0.119 0.032-0.169 0-0.59-0.49-1.067-1.095-1.067zM15.086 13.867c-0.301 0-0.547 0.24-0.547 0.533s0.246 0.533 0.547 0.533c0.301 0 0.547-0.24 0.547-0.533s-0.246-0.533-0.547-0.533zM17.276 13.867c-0.301 0-0.547 0.24-0.547 0.533s0.246 0.533 0.547 0.533c0.301 0 0.547-0.24 0.547-0.533s-0.246-0.533-0.547-0.533zM19.465 13.867c-0.301 0-0.547 0.24-0.547 0.533s0.246 0.533 0.547 0.533c0.301 0 0.547-0.24 0.547-0.533s-0.246-0.533-0.547-0.533zM21.655 13.867c-0.301 0-0.547 0.24-0.547 0.533s0.246 0.533 0.547 0.533c0.301 0 0.547-0.24 0.547-0.533s-0.246-0.533-0.547-0.533zM23.844 13.867c-0.301 0-0.547 0.24-0.547 0.533s0.246 0.533 0.547 0.533c0.301 0 0.547-0.24 0.547-0.533s-0.246-0.533-0.547-0.533zM26.034 13.867c-0.301 0-0.547 0.24-0.547 0.533s0.246 0.533 0.547 0.533c0.301 0 0.547-0.24 0.547-0.533s-0.246-0.533-0.547-0.533zM28.223 13.867c-0.301 0-0.547 0.24-0.547 0.533s0.246 0.533 0.547 0.533c0.301 0 0.547-0.24 0.547-0.533s-0.246-0.533-0.547-0.533zM30.413 13.867c-0.301 0-0.547 0.24-0.547 0.533s0.246 0.533 0.547 0.533c0.301 0 0.547-0.24 0.547-0.533s-0.246-0.533-0.547-0.533zM32.602 13.867c-0.301 0-0.547 0.24-0.547 0.533s0.246 0.533 0.547 0.533c0.301 0 0.547-0.24 0.547-0.533s-0.246-0.533-0.547-0.533zM5.234 14.933c0.605 0 1.095 0.477 1.095 1.067s-0.49 1.067-1.095 1.067c-0.605 0-1.095-0.477-1.095-1.067s0.49-1.067 1.095-1.067zM15.086 17.067c-0.301 0-0.547 0.24-0.547 0.533s0.246 0.533 0.547 0.533c0.301 0 0.547-0.24 0.547-0.533s-0.246-0.533-0.547-0.533zM17.276 17.067c-0.301 0-0.547 0.24-0.547 0.533s0.246 0.533 0.547 0.533c0.301 0 0.547-0.24 0.547-0.533s-0.246-0.533-0.547-0.533zM19.465 17.067c-0.301 0-0.547 0.24-0.547 0.533s0.246 0.533 0.547 0.533c0.301 0 0.547-0.24 0.547-0.533s-0.246-0.533-0.547-0.533zM21.655 17.067c-0.301 0-0.547 0.24-0.547 0.533s0.246 0.533 0.547 0.533c0.301 0 0.547-0.24 0.547-0.533s-0.246-0.533-0.547-0.533zM23.844 17.067c-0.301 0-0.547 0.24-0.547 0.533s0.246 0.533 0.547 0.533c0.301 0 0.547-0.24 0.547-0.533s-0.246-0.533-0.547-0.533zM26.034 17.067c-0.301 0-0.547 0.24-0.547 0.533s0.246 0.533 0.547 0.533c0.301 0 0.547-0.24 0.547-0.533s-0.246-0.533-0.547-0.533zM28.223 17.067c-0.301 0-0.547 0.24-0.547 0.533s0.246 0.533 0.547 0.533c0.301 0 0.547-0.24 0.547-0.533s-0.246-0.533-0.547-0.533zM0.307 22.4v9.6h9.853v-9.6h-9.853zM1.402 23.467h7.663v7.467h-7.663v-7.467zM5.234 24c-0.301 0-0.547 0.24-0.547 0.533s0.246 0.533 0.547 0.533c0.301 0 0.547-0.24 0.547-0.533s-0.246-0.533-0.547-0.533zM15.086 24.533c-0.301 0-0.547 0.24-0.547 0.533s0.246 0.533 0.547 0.533c0.301 0 0.547-0.24 0.547-0.533s-0.246-0.533-0.547-0.533zM17.276 24.533c-0.301 0-0.547 0.24-0.547 0.533s0.246 0.533 0.547 0.533c0.301 0 0.547-0.24 0.547-0.533s-0.246-0.533-0.547-0.533zM19.465 24.533c-0.301 0-0.547 0.24-0.547 0.533s0.246 0.533 0.547 0.533c0.301 0 0.547-0.24 0.547-0.533s-0.246-0.533-0.547-0.533zM21.655 24.533c-0.301 0-0.547 0.24-0.547 0.533s0.246 0.533 0.547 0.533c0.301 0 0.547-0.24 0.547-0.533s-0.246-0.533-0.547-0.533zM23.844 24.533c-0.301 0-0.547 0.24-0.547 0.533s0.246 0.533 0.547 0.533c0.301 0 0.547-0.24 0.547-0.533s-0.246-0.533-0.547-0.533zM26.034 24.533c-0.301 0-0.547 0.24-0.547 0.533s0.246 0.533 0.547 0.533c0.301 0 0.547-0.24 0.547-0.533s-0.246-0.533-0.547-0.533zM28.223 24.533c-0.301 0-0.547 0.24-0.547 0.533s0.246 0.533 0.547 0.533c0.301 0 0.547-0.24 0.547-0.533s-0.246-0.533-0.547-0.533zM30.413 24.533c-0.301 0-0.547 0.24-0.547 0.533s0.246 0.533 0.547 0.533c0.301 0 0.547-0.24 0.547-0.533s-0.246-0.533-0.547-0.533zM32.602 24.533c-0.301 0-0.547 0.24-0.547 0.533s0.246 0.533 0.547 0.533c0.301 0 0.547-0.24 0.547-0.533s-0.246-0.533-0.547-0.533zM7.175 24.781c-0.148-0.002-0.289 0.054-0.393 0.154-0.214 0.208-0.214 0.548 0 0.756 0.214 0.206 0.56 0.206 0.774 0 0.214-0.208 0.214-0.548 0-0.756-0.101-0.098-0.237-0.154-0.381-0.154zM3.307 24.781c-0.15-0.002-0.293 0.054-0.398 0.156-0.212 0.208-0.212 0.546 0 0.754 0.214 0.208 0.562 0.208 0.776 0 0.212-0.208 0.212-0.546 0-0.754-0.103-0.098-0.237-0.154-0.378-0.156zM5.234 25.6c-0.9 0-1.642 0.723-1.642 1.6s0.742 1.6 1.642 1.6c0.9 0 1.642-0.723 1.642-1.6s-0.742-1.6-1.642-1.6zM2.497 26.667c-0.301 0-0.547 0.24-0.547 0.533s0.246 0.533 0.547 0.533c0.301 0 0.547-0.24 0.547-0.533s-0.246-0.533-0.547-0.533zM5.234 26.667c0.308 0 0.547 0.233 0.547 0.533s-0.239 0.533-0.547 0.533c-0.308 0-0.547-0.233-0.547-0.533s0.239-0.533 0.547-0.533zM7.97 26.667c-0.301 0-0.547 0.24-0.547 0.533s0.246 0.533 0.547 0.533c0.301 0 0.547-0.24 0.547-0.533s-0.246-0.533-0.547-0.533zM15.086 27.733c-0.301 0-0.547 0.24-0.547 0.533s0.246 0.533 0.547 0.533c0.301 0 0.547-0.24 0.547-0.533s-0.246-0.533-0.547-0.533zM17.276 27.733c-0.301 0-0.547 0.24-0.547 0.533s0.246 0.533 0.547 0.533c0.301 0 0.547-0.24 0.547-0.533s-0.246-0.533-0.547-0.533zM19.465 27.733c-0.301 0-0.547 0.24-0.547 0.533s0.246 0.533 0.547 0.533c0.301 0 0.547-0.24 0.547-0.533s-0.246-0.533-0.547-0.533zM21.655 27.733c-0.301 0-0.547 0.24-0.547 0.533s0.246 0.533 0.547 0.533c0.301 0 0.547-0.24 0.547-0.533s-0.246-0.533-0.547-0.533zM23.844 27.733c-0.301 0-0.547 0.24-0.547 0.533s0.246 0.533 0.547 0.533c0.301 0 0.547-0.24 0.547-0.533s-0.246-0.533-0.547-0.533zM26.034 27.733c-0.301 0-0.547 0.24-0.547 0.533s0.246 0.533 0.547 0.533c0.301 0 0.547-0.24 0.547-0.533s-0.246-0.533-0.547-0.533zM28.223 27.733c-0.301 0-0.547 0.24-0.547 0.533s0.246 0.533 0.547 0.533c0.301 0 0.547-0.24 0.547-0.533s-0.246-0.533-0.547-0.533zM3.307 28.552c-0.15-0.002-0.291 0.054-0.396 0.156-0.214 0.208-0.214 0.546 0 0.754s0.56 0.208 0.774 0c0.214-0.208 0.214-0.546 0-0.754-0.1-0.098-0.237-0.154-0.378-0.156zM7.177 28.552c-0.148-0.002-0.291 0.054-0.396 0.156-0.214 0.208-0.214 0.546 0 0.754s0.56 0.208 0.774 0c0.214-0.208 0.214-0.546 0-0.754-0.101-0.098-0.235-0.154-0.378-0.156zM5.234 29.333c-0.301 0-0.547 0.24-0.547 0.533s0.246 0.533 0.547 0.533c0.301 0 0.547-0.24 0.547-0.533s-0.246-0.533-0.547-0.533z"></path>
</svg>
