<!-- Generated by IcoMoon.io -->
<svg version="1.1" xmlns="http://www.w3.org/2000/svg" width="32" height="32" viewBox="0 0 32 32">
<title>content</title>
<path d="M0 0v9.354h9.6v-9.354h-9.6zM1.067 1.039h7.467v4.791l-1.8-1.439-1.758 1.319-2.090-1.677-1.819 1.159v-4.153zM6.667 2.079c-0.442 0-0.8 0.349-0.8 0.78s0.358 0.78 0.8 0.78c0.442 0 0.8-0.349 0.8-0.78s-0.358-0.78-0.8-0.78zM14.4 2.598c-0.294 0-0.533 0.233-0.533 0.52s0.24 0.52 0.533 0.52c0.294 0 0.533-0.233 0.533-0.52s-0.24-0.52-0.533-0.52zM16.533 2.598c-0.294 0-0.533 0.233-0.533 0.52s0.24 0.52 0.533 0.52c0.294 0 0.533-0.233 0.533-0.52s-0.24-0.52-0.533-0.52zM18.667 2.598c-0.294 0-0.533 0.233-0.533 0.52s0.24 0.52 0.533 0.52c0.294 0 0.533-0.233 0.533-0.52s-0.24-0.52-0.533-0.52zM20.8 2.598c-0.294 0-0.533 0.233-0.533 0.52s0.24 0.52 0.533 0.52c0.294 0 0.533-0.233 0.533-0.52s-0.24-0.52-0.533-0.52zM22.933 2.598c-0.294 0-0.533 0.233-0.533 0.52s0.24 0.52 0.533 0.52c0.294 0 0.533-0.233 0.533-0.52s-0.24-0.52-0.533-0.52zM25.067 2.598c-0.294 0-0.533 0.233-0.533 0.52s0.24 0.52 0.533 0.52c0.294 0 0.533-0.233 0.533-0.52s-0.24-0.52-0.533-0.52zM27.2 2.598c-0.294 0-0.533 0.233-0.533 0.52s0.24 0.52 0.533 0.52c0.294 0 0.533-0.233 0.533-0.52s-0.24-0.52-0.533-0.52zM29.333 2.598c-0.294 0-0.533 0.233-0.533 0.52s0.24 0.52 0.533 0.52c0.294 0 0.533-0.233 0.533-0.52s-0.24-0.52-0.533-0.52zM31.467 2.598c-0.294 0-0.533 0.233-0.533 0.52s0.24 0.52 0.533 0.52c0.294 0 0.533-0.233 0.533-0.52s-0.24-0.52-0.533-0.52zM2.813 5.32l2.138 1.719 1.763-1.321 1.821 1.457v1.139h-7.467v-1.882l1.746-1.112zM14.4 5.716c-0.294 0-0.533 0.233-0.533 0.52s0.24 0.52 0.533 0.52c0.294 0 0.533-0.233 0.533-0.52s-0.24-0.52-0.533-0.52zM16.533 5.716c-0.294 0-0.533 0.233-0.533 0.52s0.24 0.52 0.533 0.52c0.294 0 0.533-0.233 0.533-0.52s-0.24-0.52-0.533-0.52zM18.667 5.716c-0.294 0-0.533 0.233-0.533 0.52s0.24 0.52 0.533 0.52c0.294 0 0.533-0.233 0.533-0.52s-0.24-0.52-0.533-0.52zM20.8 5.716c-0.294 0-0.533 0.233-0.533 0.52s0.24 0.52 0.533 0.52c0.294 0 0.533-0.233 0.533-0.52s-0.24-0.52-0.533-0.52zM22.933 5.716c-0.294 0-0.533 0.233-0.533 0.52s0.24 0.52 0.533 0.52c0.294 0 0.533-0.233 0.533-0.52s-0.24-0.52-0.533-0.52zM25.067 5.716c-0.294 0-0.533 0.233-0.533 0.52s0.24 0.52 0.533 0.52c0.294 0 0.533-0.233 0.533-0.52s-0.24-0.52-0.533-0.52zM27.2 5.716c-0.294 0-0.533 0.233-0.533 0.52s0.24 0.52 0.533 0.52c0.294 0 0.533-0.233 0.533-0.52s-0.24-0.52-0.533-0.52zM0 10.913v9.354h9.6v-9.354h-9.6zM1.067 11.952h7.467v7.275h-7.467v-7.275zM4.8 12.991c-0.59 0-1.067 0.465-1.067 1.039 0 0.049 0.017 0.108 0.031 0.164-0.054-0.032-0.106-0.059-0.156-0.075-0.563-0.177-1.163 0.122-1.344 0.666-0.183 0.548 0.123 1.133 0.683 1.309 0.048 0.016 0.104 0.024 0.165 0.028-0.046 0.039-0.087 0.077-0.117 0.116-0.346 0.465-0.24 1.116 0.237 1.453 0.475 0.337 1.142 0.233 1.49-0.229 0.029-0.041 0.052-0.091 0.077-0.144 0.023 0.053 0.048 0.104 0.077 0.144 0.346 0.463 1.013 0.566 1.49 0.229s0.583-0.989 0.235-1.453c-0.029-0.039-0.069-0.077-0.117-0.116 0.060-0.004 0.119-0.012 0.165-0.028 0.563-0.177 0.869-0.763 0.685-1.309-0.181-0.544-0.783-0.842-1.344-0.666-0.050 0.016-0.102 0.043-0.156 0.075 0.015-0.057 0.031-0.116 0.031-0.164 0-0.574-0.477-1.039-1.067-1.039zM14.4 13.511c-0.294 0-0.533 0.233-0.533 0.52s0.24 0.52 0.533 0.52c0.294 0 0.533-0.233 0.533-0.52s-0.24-0.52-0.533-0.52zM16.533 13.511c-0.294 0-0.533 0.233-0.533 0.52s0.24 0.52 0.533 0.52c0.294 0 0.533-0.233 0.533-0.52s-0.24-0.52-0.533-0.52zM18.667 13.511c-0.294 0-0.533 0.233-0.533 0.52s0.24 0.52 0.533 0.52c0.294 0 0.533-0.233 0.533-0.52s-0.24-0.52-0.533-0.52zM20.8 13.511c-0.294 0-0.533 0.233-0.533 0.52s0.24 0.52 0.533 0.52c0.294 0 0.533-0.233 0.533-0.52s-0.24-0.52-0.533-0.52zM22.933 13.511c-0.294 0-0.533 0.233-0.533 0.52s0.24 0.52 0.533 0.52c0.294 0 0.533-0.233 0.533-0.52s-0.24-0.52-0.533-0.52zM25.067 13.511c-0.294 0-0.533 0.233-0.533 0.52s0.24 0.52 0.533 0.52c0.294 0 0.533-0.233 0.533-0.52s-0.24-0.52-0.533-0.52zM27.2 13.511c-0.294 0-0.533 0.233-0.533 0.52s0.24 0.52 0.533 0.52c0.294 0 0.533-0.233 0.533-0.52s-0.24-0.52-0.533-0.52zM29.333 13.511c-0.294 0-0.533 0.233-0.533 0.52s0.24 0.52 0.533 0.52c0.294 0 0.533-0.233 0.533-0.52s-0.24-0.52-0.533-0.52zM31.467 13.511c-0.294 0-0.533 0.233-0.533 0.52s0.24 0.52 0.533 0.52c0.294 0 0.533-0.233 0.533-0.52s-0.24-0.52-0.533-0.52zM4.8 14.55c0.59 0 1.067 0.465 1.067 1.039s-0.477 1.039-1.067 1.039c-0.59 0-1.067-0.465-1.067-1.039s0.477-1.039 1.067-1.039zM14.4 16.629c-0.294 0-0.533 0.233-0.533 0.52s0.24 0.52 0.533 0.52c0.294 0 0.533-0.233 0.533-0.52s-0.24-0.52-0.533-0.52zM16.533 16.629c-0.294 0-0.533 0.233-0.533 0.52s0.24 0.52 0.533 0.52c0.294 0 0.533-0.233 0.533-0.52s-0.24-0.52-0.533-0.52zM18.667 16.629c-0.294 0-0.533 0.233-0.533 0.52s0.24 0.52 0.533 0.52c0.294 0 0.533-0.233 0.533-0.52s-0.24-0.52-0.533-0.52zM20.8 16.629c-0.294 0-0.533 0.233-0.533 0.52s0.24 0.52 0.533 0.52c0.294 0 0.533-0.233 0.533-0.52s-0.24-0.52-0.533-0.52zM22.933 16.629c-0.294 0-0.533 0.233-0.533 0.52s0.24 0.52 0.533 0.52c0.294 0 0.533-0.233 0.533-0.52s-0.24-0.52-0.533-0.52zM25.067 16.629c-0.294 0-0.533 0.233-0.533 0.52s0.24 0.52 0.533 0.52c0.294 0 0.533-0.233 0.533-0.52s-0.24-0.52-0.533-0.52zM27.2 16.629c-0.294 0-0.533 0.233-0.533 0.52s0.24 0.52 0.533 0.52c0.294 0 0.533-0.233 0.533-0.52s-0.24-0.52-0.533-0.52zM0 21.826v9.354h9.6v-9.354h-9.6zM1.067 22.865h7.467v7.275h-7.467v-7.275zM4.8 23.385c-0.294 0-0.533 0.233-0.533 0.52s0.24 0.52 0.533 0.52c0.294 0 0.533-0.233 0.533-0.52s-0.24-0.52-0.533-0.52zM14.4 23.904c-0.294 0-0.533 0.233-0.533 0.52s0.24 0.52 0.533 0.52c0.294 0 0.533-0.233 0.533-0.52s-0.24-0.52-0.533-0.52zM16.533 23.904c-0.294 0-0.533 0.233-0.533 0.52s0.24 0.52 0.533 0.52c0.294 0 0.533-0.233 0.533-0.52s-0.24-0.52-0.533-0.52zM18.667 23.904c-0.294 0-0.533 0.233-0.533 0.52s0.24 0.52 0.533 0.52c0.294 0 0.533-0.233 0.533-0.52s-0.24-0.52-0.533-0.52zM20.8 23.904c-0.294 0-0.533 0.233-0.533 0.52s0.24 0.52 0.533 0.52c0.294 0 0.533-0.233 0.533-0.52s-0.24-0.52-0.533-0.52zM22.933 23.904c-0.294 0-0.533 0.233-0.533 0.52s0.24 0.52 0.533 0.52c0.294 0 0.533-0.233 0.533-0.52s-0.24-0.52-0.533-0.52zM25.067 23.904c-0.294 0-0.533 0.233-0.533 0.52s0.24 0.52 0.533 0.52c0.294 0 0.533-0.233 0.533-0.52s-0.24-0.52-0.533-0.52zM27.2 23.904c-0.294 0-0.533 0.233-0.533 0.52s0.24 0.52 0.533 0.52c0.294 0 0.533-0.233 0.533-0.52s-0.24-0.52-0.533-0.52zM29.333 23.904c-0.294 0-0.533 0.233-0.533 0.52s0.24 0.52 0.533 0.52c0.294 0 0.533-0.233 0.533-0.52s-0.24-0.52-0.533-0.52zM31.467 23.904c-0.294 0-0.533 0.233-0.533 0.52s0.24 0.52 0.533 0.52c0.294 0 0.533-0.233 0.533-0.52s-0.24-0.52-0.533-0.52zM6.692 24.146c-0.144-0.002-0.281 0.053-0.383 0.15-0.208 0.203-0.208 0.534 0 0.737 0.208 0.201 0.546 0.201 0.754 0 0.208-0.203 0.208-0.534 0-0.737-0.098-0.095-0.231-0.15-0.371-0.15zM2.923 24.146c-0.146-0.002-0.285 0.053-0.388 0.152-0.206 0.203-0.206 0.532 0 0.735 0.208 0.203 0.548 0.203 0.756 0 0.206-0.203 0.206-0.532 0-0.735-0.1-0.095-0.231-0.15-0.369-0.152zM4.8 24.944c-0.877 0-1.6 0.704-1.6 1.559s0.723 1.559 1.6 1.559c0.877 0 1.6-0.704 1.6-1.559s-0.723-1.559-1.6-1.559zM2.133 25.983c-0.294 0-0.533 0.233-0.533 0.52s0.24 0.52 0.533 0.52c0.294 0 0.533-0.233 0.533-0.52s-0.24-0.52-0.533-0.52zM4.8 25.983c0.3 0 0.533 0.227 0.533 0.52s-0.233 0.52-0.533 0.52c-0.3 0-0.533-0.227-0.533-0.52s0.233-0.52 0.533-0.52zM7.467 25.983c-0.294 0-0.533 0.233-0.533 0.52s0.24 0.52 0.533 0.52c0.294 0 0.533-0.233 0.533-0.52s-0.24-0.52-0.533-0.52zM14.4 27.022c-0.294 0-0.533 0.233-0.533 0.52s0.24 0.52 0.533 0.52c0.294 0 0.533-0.233 0.533-0.52s-0.24-0.52-0.533-0.52zM16.533 27.022c-0.294 0-0.533 0.233-0.533 0.52s0.24 0.52 0.533 0.52c0.294 0 0.533-0.233 0.533-0.52s-0.24-0.52-0.533-0.52zM18.667 27.022c-0.294 0-0.533 0.233-0.533 0.52s0.24 0.52 0.533 0.52c0.294 0 0.533-0.233 0.533-0.52s-0.24-0.52-0.533-0.52zM20.8 27.022c-0.294 0-0.533 0.233-0.533 0.52s0.24 0.52 0.533 0.52c0.294 0 0.533-0.233 0.533-0.52s-0.24-0.52-0.533-0.52zM22.933 27.022c-0.294 0-0.533 0.233-0.533 0.52s0.24 0.52 0.533 0.52c0.294 0 0.533-0.233 0.533-0.52s-0.24-0.52-0.533-0.52zM25.067 27.022c-0.294 0-0.533 0.233-0.533 0.52s0.24 0.52 0.533 0.52c0.294 0 0.533-0.233 0.533-0.52s-0.24-0.52-0.533-0.52zM27.2 27.022c-0.294 0-0.533 0.233-0.533 0.52s0.24 0.52 0.533 0.52c0.294 0 0.533-0.233 0.533-0.52s-0.24-0.52-0.533-0.52zM2.923 27.82c-0.146-0.002-0.283 0.053-0.385 0.152-0.208 0.203-0.208 0.532 0 0.735s0.546 0.203 0.754 0c0.208-0.203 0.208-0.532 0-0.735-0.098-0.095-0.231-0.15-0.369-0.152zM6.694 27.82c-0.144-0.002-0.283 0.053-0.385 0.152-0.208 0.203-0.208 0.532 0 0.735s0.546 0.203 0.754 0c0.208-0.203 0.208-0.532 0-0.735-0.098-0.095-0.229-0.15-0.369-0.152zM4.8 28.581c-0.294 0-0.533 0.233-0.533 0.52s0.24 0.52 0.533 0.52c0.294 0 0.533-0.233 0.533-0.52s-0.24-0.52-0.533-0.52z"></path>
</svg>
