<!-- Generated by IcoMoon.io -->
<svg version="1.1" xmlns="http://www.w3.org/2000/svg" width="27" height="32" viewBox="0 0 27 32">
<title>man</title>
<path d="M12.839 0c-2.456 0-4.397 0.972-5.691 2.413-1.294 1.444-1.955 3.337-1.955 5.2 0 1.675 0.371 3.591 0.483 4.133-0.294 0.262-0.483 0.635-0.483 1.054 0 0.335 0.101 0.621 0.185 0.901 0.041 0.141 0.081 0.272 0.107 0.371s0.032 0.196 0.032 0.121c0 0.702 0.592 1.25 1.29 1.274 0.095 2 1.065 3.766 2.539 4.929v1.925c-0.748 0.226-2.545 0.802-4.375 1.661-1.195 0.56-2.395 1.236-3.33 2.036s-1.641 1.758-1.641 2.883v3.097h27v-3.097c0-1.125-0.706-2.083-1.641-2.883s-2.136-1.476-3.33-2.036c-1.829-0.859-3.627-1.435-4.375-1.661v-1.923c1.475-1.163 2.444-2.929 2.539-4.931 0.698-0.024 1.29-0.573 1.29-1.274 0 0.075 0.006-0.022 0.032-0.121s0.067-0.23 0.108-0.371c0.083-0.28 0.185-0.567 0.185-0.901 0-0.423-0.193-0.796-0.489-1.060 0.095-0.544 0.489-2.875 0.489-4.514 0-1.855-0.698-3.183-1.639-4.008-0.846-0.738-1.84-1.034-2.72-1.097-0.142-0.224-0.393-0.575-0.915-0.98-0.748-0.579-1.949-1.141-3.695-1.141zM12.839 1.032c1.525 0 2.472 0.47 3.055 0.923 0.584 0.454 0.777 0.853 0.777 0.853l0.142 0.288h0.323c0.692 0 1.623 0.262 2.347 0.897 0.726 0.635 1.288 1.627 1.288 3.232 0 1.44-0.345 3.54-0.446 4.129-0.002 0-0.004 0-0.008 0-0.045 0-0.037 0.010-0.065 0.014v-1.563c0-1.766-0.726-2.954-1.456-3.657s-1.495-0.962-1.495-0.962l-0.296-0.099-0.227 0.216c0 0-0.327 0.319-1.116 0.677s-2.010 0.728-3.718 0.728c-0.935 0-2.166 0.329-3.235 1.071-1.065 0.74-1.951 1.95-1.955 3.591-0.028-0.004-0.022-0.016-0.067-0.016-0.008 0-0.018 0.002-0.026 0.002-0.144-0.754-0.428-2.421-0.428-3.744 0-1.619 0.582-3.276 1.692-4.51 1.109-1.236 2.732-2.071 4.916-2.071zM17.135 6.274c0.126 0.048 0.454 0.151 0.937 0.615 0.568 0.548 1.14 1.423 1.14 2.917v3.254l0.781-0.456c0.134-0.077 0.258-0.145 0.345-0.19 0.010-0.006 0.014-0.006 0.024-0.012 0.237 0.024 0.408 0.19 0.408 0.395v0.002c0 0.038-0.063 0.341-0.142 0.611-0.041 0.133-0.081 0.268-0.116 0.391-0.032 0.123-0.067 0.21-0.067 0.391 0 0.137-0.114 0.258-0.292 0.258h-0.941v0.706c0 2.798-2.030 5.111-4.704 5.585l-0.148 0.024-0.112 0.103c-0.203 0.183-0.458 0.292-0.748 0.292s-0.546-0.109-0.748-0.292l-0.112-0.103-0.148-0.024c-2.673-0.474-4.704-2.786-4.704-5.585v-0.706h-0.941c-0.178 0-0.292-0.121-0.292-0.258 0-0.181-0.034-0.268-0.069-0.391s-0.075-0.258-0.116-0.391c-0.079-0.27-0.14-0.573-0.14-0.611 0-0.208 0.17-0.373 0.408-0.397 0.010 0.006 0.014 0.006 0.024 0.012 0.087 0.044 0.211 0.113 0.345 0.19l0.781 0.456v-1.679c0-1.286 0.645-2.151 1.513-2.754s1.971-0.885 2.641-0.885c1.86 0 3.235-0.405 4.15-0.821 0.679-0.308 0.858-0.498 1.043-0.647zM10.644 12.387c-0.43 0-0.779 0.347-0.779 0.774s0.349 0.774 0.779 0.774c0.43 0 0.779-0.347 0.779-0.774s-0.349-0.774-0.779-0.774zM16.356 12.387c-0.43 0-0.779 0.347-0.779 0.774s0.349 0.774 0.779 0.774c0.43 0 0.779-0.347 0.779-0.774s-0.349-0.774-0.779-0.774zM10.385 21.071c0.554 0.288 1.152 0.51 1.787 0.637 0.367 0.29 0.821 0.486 1.329 0.486 0.505 0 0.957-0.196 1.322-0.484 0.637-0.125 1.237-0.347 1.793-0.637v2.153c0 0.185-0.146 0.524-0.448 0.889-0.304 0.367-0.734 0.75-1.17 1.093-0.757 0.591-1.333 0.915-1.521 1.026-0.189-0.085-0.75-0.323-1.491-0.847-0.856-0.609-1.6-1.429-1.6-2.161v-2.155zM9.362 23.403c0.093 1.242 1.099 2.171 2.018 2.823 0.961 0.683 1.915 1.089 1.915 1.089l0.237 0.099 0.225-0.125c0 0 0.935-0.532 1.88-1.27 0.473-0.367 0.951-0.79 1.329-1.246 0.341-0.411 0.621-0.857 0.675-1.369 0.832 0.26 2.367 0.774 3.945 1.516 1.142 0.536 2.278 1.183 3.095 1.883s1.28 1.419 1.28 2.101v2.065h-24.923v-2.065c0-0.681 0.462-1.401 1.28-2.101s1.953-1.347 3.095-1.883c1.582-0.742 3.119-1.256 3.949-1.516zM3.115 28.903c-0.286 0-0.519 0.232-0.519 0.516s0.233 0.516 0.519 0.516c0.286 0 0.519-0.232 0.519-0.516s-0.233-0.516-0.519-0.516zM5.192 28.903c-0.286 0-0.519 0.232-0.519 0.516s0.233 0.516 0.519 0.516c0.286 0 0.519-0.232 0.519-0.516s-0.233-0.516-0.519-0.516zM7.269 28.903c-0.286 0-0.519 0.232-0.519 0.516s0.233 0.516 0.519 0.516c0.286 0 0.519-0.232 0.519-0.516s-0.233-0.516-0.519-0.516zM9.346 28.903c-0.286 0-0.519 0.232-0.519 0.516s0.233 0.516 0.519 0.516c0.286 0 0.519-0.232 0.519-0.516s-0.233-0.516-0.519-0.516zM11.423 28.903c-0.286 0-0.519 0.232-0.519 0.516s0.233 0.516 0.519 0.516c0.286 0 0.519-0.232 0.519-0.516s-0.233-0.516-0.519-0.516zM13.5 28.903c-0.286 0-0.519 0.232-0.519 0.516s0.233 0.516 0.519 0.516c0.286 0 0.519-0.232 0.519-0.516s-0.233-0.516-0.519-0.516zM15.577 28.903c-0.286 0-0.519 0.232-0.519 0.516s0.233 0.516 0.519 0.516c0.286 0 0.519-0.232 0.519-0.516s-0.233-0.516-0.519-0.516zM17.654 28.903c-0.286 0-0.519 0.232-0.519 0.516s0.233 0.516 0.519 0.516c0.286 0 0.519-0.232 0.519-0.516s-0.233-0.516-0.519-0.516zM19.731 28.903c-0.286 0-0.519 0.232-0.519 0.516s0.233 0.516 0.519 0.516c0.286 0 0.519-0.232 0.519-0.516s-0.233-0.516-0.519-0.516zM21.808 28.903c-0.286 0-0.519 0.232-0.519 0.516s0.233 0.516 0.519 0.516c0.286 0 0.519-0.232 0.519-0.516s-0.233-0.516-0.519-0.516zM23.885 28.903c-0.286 0-0.519 0.232-0.519 0.516s0.233 0.516 0.519 0.516c0.286 0 0.519-0.232 0.519-0.516s-0.233-0.516-0.519-0.516z"></path>
</svg>
