<!-- Generated by IcoMoon.io -->
<svg version="1.1" xmlns="http://www.w3.org/2000/svg" width="27" height="32" viewBox="0 0 27 32">
<title>man</title>
<path d="M12.912 0.738c-2.383 0-4.526 1.303-6.079 2.571-1.553 1.269-2.544 2.543-2.544 2.543l-0.444 0.569 0.694 0.204c0 0 0.27 0.075 0.592 0.406 0.321 0.329 0.666 0.89 0.666 1.954 0 1.378 0.212 2.492 0.318 2.964-0.274 0.25-0.452 0.604-0.452 1.001 0 0.319 0.096 0.592 0.175 0.859 0.038 0.134 0.078 0.26 0.102 0.353s0.031 0.187 0.031 0.116c0 0.67 0.561 1.193 1.223 1.216 0.090 1.908 1.009 3.593 2.407 4.702v1.836c-0.71 0.215-2.414 0.766-4.148 1.585-1.132 0.534-2.271 1.179-3.158 1.942s-1.556 1.678-1.556 2.75v2.954h25.6v-2.954c0-1.073-0.67-1.986-1.556-2.75s-2.025-1.408-3.158-1.942c-1.734-0.82-3.439-1.37-4.148-1.585v-1.835c1.398-1.11 2.318-2.794 2.407-4.704 0.662-0.023 1.223-0.546 1.223-1.216 0 0.071 0.006-0.021 0.031-0.116s0.064-0.219 0.102-0.353c0.079-0.267 0.175-0.54 0.175-0.859 0-0.404-0.182-0.759-0.464-1.012 0.090-0.519 0.464-2.742 0.464-4.305 0-1.77-0.662-3.036-1.553-3.823-0.802-0.704-1.744-0.987-2.578-1.046-0.134-0.213-0.373-0.548-0.868-0.934-0.71-0.551-1.849-1.088-3.504-1.088l-0.001-0.002zM12.912 1.723c1.446 0 2.345 0.448 2.896 0.881 0.554 0.433 0.736 0.814 0.736 0.814l0.134 0.274h0.305c0.656 0 1.538 0.25 2.225 0.855 0.688 0.606 1.221 1.552 1.221 3.083 0 1.374-0.327 3.377-0.423 3.938-0.002 0-0.004 0-0.007 0-0.042 0-0.034 0.010-0.062 0.014v-1.49c0-1.685-0.688-2.817-1.381-3.488s-1.418-0.917-1.418-0.917l-0.281-0.095-0.215 0.206c0 0-0.31 0.304-1.057 0.646s-1.905 0.694-3.525 0.694c-0.886 0-2.054 0.314-3.067 1.022-1.009 0.705-1.85 1.86-1.854 3.425-0.027-0.004-0.021-0.015-0.064-0.015-0.011 0-0.023 0.004-0.034 0.004-0.1-0.475-0.262-1.402-0.262-2.588 0-1.289-0.462-2.144-0.944-2.64-0.206-0.212-0.252-0.175-0.431-0.281 0.341-0.4 0.974-1.11 2.050-1.989 1.463-1.194 3.44-2.352 5.456-2.352l0.001-0.001zM16.985 6.724c0.119 0.046 0.431 0.144 0.889 0.587 0.539 0.523 1.081 1.358 1.081 2.783v3.104l0.741-0.434c0.127-0.073 0.244-0.139 0.327-0.181 0.010-0.006 0.014-0.006 0.023-0.011 0.225 0.023 0.386 0.181 0.386 0.377v0.002c0 0.037-0.059 0.325-0.134 0.582-0.038 0.127-0.078 0.256-0.11 0.373-0.031 0.117-0.064 0.199-0.064 0.373 0 0.13-0.107 0.246-0.277 0.246h-0.892v0.673c0 2.67-1.925 4.875-4.459 5.327l-0.14 0.023-0.106 0.098c-0.192 0.175-0.434 0.279-0.71 0.279s-0.517-0.103-0.71-0.279l-0.106-0.098-0.14-0.023c-2.534-0.452-4.459-2.657-4.459-5.327v-0.673h-0.892c-0.169 0-0.277-0.116-0.277-0.246 0-0.174-0.033-0.256-0.065-0.373s-0.071-0.246-0.11-0.373c-0.075-0.257-0.133-0.546-0.133-0.582 0-0.198 0.161-0.356 0.386-0.379 0.010 0.006 0.014 0.006 0.023 0.011 0.082 0.042 0.199 0.108 0.327 0.181l0.741 0.434v-1.602c0-1.227 0.612-2.052 1.435-2.626s1.87-0.844 2.503-0.844c1.764 0 3.067-0.386 3.935-0.783 0.644-0.294 0.814-0.475 0.988-0.618h-0.002zM10.831 12.554c-0.407 0-0.738 0.331-0.738 0.738s0.331 0.738 0.738 0.738c0.407 0 0.738-0.331 0.738-0.738s-0.331-0.738-0.738-0.738zM16.246 12.554c-0.407 0-0.738 0.331-0.738 0.738s0.331 0.738 0.738 0.738c0.407 0 0.738-0.331 0.738-0.738s-0.331-0.738-0.738-0.738zM10.585 20.837c0.526 0.274 1.092 0.486 1.695 0.608 0.348 0.277 0.779 0.464 1.259 0.464 0.479 0 0.908-0.187 1.254-0.462 0.604-0.119 1.173-0.331 1.7-0.608v2.885c-0.059 0.119-0.838 1.631-2.954 1.631s-2.895-1.511-2.954-1.631v-2.887zM9.6 23.067v0.926l0.052 0.106c0 0 1.162 2.24 3.887 2.24s3.887-2.24 3.887-2.24l0.052-0.106v-0.926c0.79 0.249 2.239 0.736 3.729 1.44 1.083 0.512 2.16 1.129 2.934 1.796s1.214 1.354 1.214 2.004v1.969h-23.631v-1.969c0-0.65 0.438-1.337 1.214-2.004s1.852-1.285 2.934-1.796c1.49-0.704 2.938-1.193 3.729-1.44v0zM3.692 28.308c-0.271 0-0.492 0.222-0.492 0.492s0.222 0.492 0.492 0.492c0.271 0 0.492-0.222 0.492-0.492s-0.222-0.492-0.492-0.492zM5.662 28.308c-0.271 0-0.492 0.222-0.492 0.492s0.222 0.492 0.492 0.492c0.271 0 0.492-0.222 0.492-0.492s-0.222-0.492-0.492-0.492zM7.631 28.308c-0.271 0-0.492 0.222-0.492 0.492s0.222 0.492 0.492 0.492c0.271 0 0.492-0.222 0.492-0.492s-0.222-0.492-0.492-0.492zM9.6 28.308c-0.271 0-0.492 0.222-0.492 0.492s0.222 0.492 0.492 0.492c0.271 0 0.492-0.222 0.492-0.492s-0.222-0.492-0.492-0.492zM11.569 28.308c-0.271 0-0.492 0.222-0.492 0.492s0.222 0.492 0.492 0.492c0.271 0 0.492-0.222 0.492-0.492s-0.222-0.492-0.492-0.492zM13.538 28.308c-0.271 0-0.492 0.222-0.492 0.492s0.222 0.492 0.492 0.492c0.271 0 0.492-0.222 0.492-0.492s-0.222-0.492-0.492-0.492v0zM15.508 28.308c-0.271 0-0.492 0.222-0.492 0.492s0.222 0.492 0.492 0.492c0.271 0 0.492-0.222 0.492-0.492s-0.222-0.492-0.492-0.492zM17.477 28.308c-0.271 0-0.492 0.222-0.492 0.492s0.222 0.492 0.492 0.492c0.271 0 0.492-0.222 0.492-0.492s-0.222-0.492-0.492-0.492zM19.446 28.308c-0.271 0-0.492 0.222-0.492 0.492s0.222 0.492 0.492 0.492c0.271 0 0.492-0.222 0.492-0.492s-0.222-0.492-0.492-0.492zM21.415 28.308c-0.271 0-0.492 0.222-0.492 0.492s0.222 0.492 0.492 0.492c0.271 0 0.492-0.222 0.492-0.492s-0.222-0.492-0.492-0.492zM23.385 28.308c-0.271 0-0.492 0.222-0.492 0.492s0.222 0.492 0.492 0.492c0.271 0 0.492-0.222 0.492-0.492s-0.222-0.492-0.492-0.492z"></path>
</svg>
