<!-- Generated by IcoMoon.io -->
<svg version="1.1" xmlns="http://www.w3.org/2000/svg" width="33" height="32" viewBox="0 0 33 32">
<title>wrench</title>
<path d="M23.024 0c-3.025-0.027-6.104 1.113-8.309 3.258-2.046 1.988-2.686 4.283-2.254 6.516 0.116 0.598 0.309 1.189 0.56 1.771l-11.368 11.063c-2.204 2.145-2.204 5.633 0 7.777s5.789 2.145 7.993 0l11.37-11.061c0.598 0.244 1.206 0.432 1.821 0.545 2.294 0.42 4.653-0.203 6.697-2.193 3.134-3.049 4.181-7.822 2.66-11.717l-0.283-0.721-6.851 6.664-3.087-1.287-1.323-3.004 6.849-6.666-0.741-0.275c-1.002-0.371-2.058-0.584-3.13-0.65-0.201-0.012-0.403-0.018-0.604-0.020zM23.016 1.008c0.183 0.002 0.367 0.008 0.548 0.018 0.683 0.039 1.331 0.232 1.981 0.406l-6.116 5.949 1.76 3.996 4.107 1.713 0.245-0.24 5.87-5.711c0.943 3.344 0.018 7.281-2.604 9.832-1.847 1.797-3.782 2.281-5.781 1.916-1.997-0.367-4.071-1.643-5.968-3.49-1.899-1.846-3.21-3.863-3.587-5.807-0.375-1.945 0.122-3.828 1.969-5.625 1.993-1.938 4.824-2.975 7.576-2.957zM13.495 12.499c0.697 1.258 1.668 2.471 2.834 3.607 1.168 1.135 2.415 2.080 3.708 2.758l-11.117 10.814c-1.811 1.762-4.729 1.762-6.54 0s-1.811-4.602 0-6.363l11.115-10.816zM13.358 15.997c-0.283 0-0.514 0.225-0.514 0.5s0.231 0.5 0.514 0.5c0.283 0 0.514-0.225 0.514-0.5s-0.231-0.5-0.514-0.5zM11.816 17.497c-0.283 0-0.514 0.225-0.514 0.5s0.231 0.5 0.514 0.5c0.283 0 0.514-0.225 0.514-0.5s-0.231-0.5-0.514-0.5zM15.928 18.497c-0.283 0-0.514 0.225-0.514 0.5s0.231 0.5 0.514 0.5c0.283 0 0.514-0.225 0.514-0.5s-0.231-0.5-0.514-0.5zM10.275 18.997c-0.283 0-0.514 0.225-0.514 0.5s0.231 0.5 0.514 0.5c0.283 0 0.514-0.225 0.514-0.5s-0.231-0.5-0.514-0.5zM14.386 19.997c-0.283 0-0.514 0.225-0.514 0.5s0.231 0.5 0.514 0.5c0.283 0 0.514-0.225 0.514-0.5s-0.231-0.5-0.514-0.5zM8.733 20.497c-0.283 0-0.514 0.225-0.514 0.5s0.231 0.5 0.514 0.5c0.283 0 0.514-0.225 0.514-0.5s-0.231-0.5-0.514-0.5zM12.844 21.497c-0.283 0-0.514 0.225-0.514 0.5s0.231 0.5 0.514 0.5c0.283 0 0.514-0.225 0.514-0.5s-0.231-0.5-0.514-0.5zM7.191 21.997c-0.283 0-0.514 0.225-0.514 0.5s0.231 0.5 0.514 0.5c0.283 0 0.514-0.225 0.514-0.5s-0.231-0.5-0.514-0.5zM11.303 22.997c-0.283 0-0.514 0.225-0.514 0.5s0.231 0.5 0.514 0.5c0.283 0 0.514-0.225 0.514-0.5s-0.231-0.5-0.514-0.5zM5.65 23.997c-1.413 0-2.569 1.125-2.569 2.5s1.156 2.5 2.569 2.5c1.413 0 2.569-1.125 2.569-2.5s-1.156-2.5-2.569-2.5zM9.761 24.497c-0.283 0-0.514 0.225-0.514 0.5s0.231 0.5 0.514 0.5c0.283 0 0.514-0.225 0.514-0.5s-0.231-0.5-0.514-0.5zM5.65 24.997c0.857 0 1.542 0.666 1.542 1.5s-0.685 1.5-1.542 1.5c-0.857 0-1.542-0.666-1.542-1.5s0.685-1.5 1.542-1.5z"></path>
</svg>
