<!-- Generated by IcoMoon.io -->
<svg version="1.1" xmlns="http://www.w3.org/2000/svg" width="34" height="32" viewBox="0 0 34 32">
<title>support</title>
<path d="M23.275 0c-3.019-0.027-6.092 1.113-8.291 3.258-2.041 1.988-2.68 4.283-2.25 6.516 0.116 0.598 0.309 1.189 0.559 1.771l-11.344 11.063c-2.2 2.145-2.2 5.633 0 7.777s5.777 2.145 7.977 0l11.346-11.061c0.597 0.244 1.204 0.432 1.817 0.545 2.29 0.42 4.643-0.203 6.683-2.193 3.127-3.049 4.173-7.822 2.654-11.717l-0.282-0.721-6.837 6.664-3.081-1.287-1.32-3.004 6.835-6.666-0.739-0.275c-1-0.371-2.053-0.584-3.123-0.65-0.2-0.012-0.403-0.018-0.603-0.020zM23.267 1.008c0.182 0.002 0.367 0.008 0.547 0.018 0.681 0.039 1.328 0.232 1.977 0.406l-6.104 5.949 1.757 3.996 4.099 1.713 0.244-0.24 5.857-5.711c0.941 3.344 0.018 7.281-2.598 9.832-1.843 1.797-3.774 2.281-5.769 1.916-1.993-0.367-4.063-1.643-5.956-3.49-1.895-1.846-3.203-3.863-3.58-5.807-0.375-1.945 0.122-3.828 1.965-5.625 1.989-1.938 4.814-2.975 7.56-2.957zM13.766 12.499c0.695 1.258 1.665 2.471 2.829 3.607 1.166 1.135 2.41 2.080 3.7 2.758l-11.094 10.814c-1.807 1.762-4.72 1.762-6.526 0s-1.807-4.602 0-6.363l11.092-10.816zM13.63 15.997c-0.282 0-0.513 0.225-0.513 0.5s0.23 0.5 0.513 0.5c0.282 0 0.513-0.225 0.513-0.5s-0.23-0.5-0.513-0.5zM12.091 17.497c-0.282 0-0.513 0.225-0.513 0.5s0.23 0.5 0.513 0.5c0.282 0 0.513-0.225 0.513-0.5s-0.23-0.5-0.513-0.5zM16.194 18.497c-0.282 0-0.513 0.225-0.513 0.5s0.23 0.5 0.513 0.5c0.282 0 0.513-0.225 0.513-0.5s-0.23-0.5-0.513-0.5zM10.553 18.997c-0.282 0-0.513 0.225-0.513 0.5s0.23 0.5 0.513 0.5c0.282 0 0.513-0.225 0.513-0.5s-0.23-0.5-0.513-0.5zM14.655 19.997c-0.282 0-0.513 0.225-0.513 0.5s0.23 0.5 0.513 0.5c0.282 0 0.513-0.225 0.513-0.5s-0.23-0.5-0.513-0.5zM9.014 20.497c-0.282 0-0.513 0.225-0.513 0.5s0.23 0.5 0.513 0.5c0.282 0 0.513-0.225 0.513-0.5s-0.23-0.5-0.513-0.5zM13.117 21.497c-0.282 0-0.513 0.225-0.513 0.5s0.23 0.5 0.513 0.5c0.282 0 0.513-0.225 0.513-0.5s-0.23-0.5-0.513-0.5zM7.476 21.997c-0.282 0-0.513 0.225-0.513 0.5s0.23 0.5 0.513 0.5c0.282 0 0.513-0.225 0.513-0.5s-0.23-0.5-0.513-0.5zM11.578 22.997c-0.282 0-0.513 0.225-0.513 0.5s0.23 0.5 0.513 0.5c0.282 0 0.513-0.225 0.513-0.5s-0.23-0.5-0.513-0.5zM5.937 23.997c-1.41 0-2.564 1.125-2.564 2.5s1.154 2.5 2.564 2.5c1.41 0 2.564-1.125 2.564-2.5s-1.154-2.5-2.564-2.5zM10.040 24.497c-0.282 0-0.513 0.225-0.513 0.5s0.23 0.5 0.513 0.5c0.282 0 0.513-0.225 0.513-0.5s-0.23-0.5-0.513-0.5zM5.937 24.997c0.855 0 1.538 0.666 1.538 1.5s-0.683 1.5-1.538 1.5c-0.855 0-1.538-0.666-1.538-1.5s0.683-1.5 1.538-1.5z"></path>
</svg>
