<!-- Generated by IcoMoon.io -->
<svg version="1.1" xmlns="http://www.w3.org/2000/svg" width="33" height="32" viewBox="0 0 33 32">
<title>wrench</title>
<path d="M21.274 3.771c-2.221-0.020-4.483 0.817-6.101 2.392-1.502 1.46-1.972 3.145-1.656 4.785 0.086 0.439 0.227 0.873 0.411 1.301l-8.348 8.124c-1.619 1.575-1.619 4.136 0 5.711s4.251 1.575 5.87 0l8.349-8.122c0.439 0.179 0.886 0.317 1.337 0.4 1.685 0.308 3.417-0.149 4.917-1.611 2.301-2.239 3.071-5.744 1.953-8.604l-0.208-0.529-5.031 4.893-2.267-0.945-0.971-2.206 5.030-4.895-0.544-0.202c-0.736-0.272-1.511-0.429-2.298-0.478-0.148-0.009-0.296-0.013-0.444-0.014zM21.268 4.511c0.134 0.001 0.27 0.006 0.402 0.013 0.501 0.029 0.977 0.171 1.455 0.298l-4.491 4.369 1.293 2.935 3.016 1.258 0.18-0.177 4.31-4.194c0.693 2.456 0.013 5.347-1.912 7.22-1.356 1.319-2.777 1.675-4.245 1.407-1.467-0.269-2.989-1.206-4.382-2.563-1.394-1.355-2.357-2.837-2.634-4.264-0.276-1.428 0.090-2.811 1.446-4.131 1.464-1.423 3.542-2.184 5.563-2.171zM14.277 12.949c0.512 0.924 1.225 1.814 2.081 2.649 0.858 0.833 1.773 1.528 2.723 2.025l-8.164 7.941c-1.33 1.294-3.473 1.294-4.802 0s-1.33-3.379 0-4.673l8.162-7.943zM14.176 15.518c-0.208 0-0.377 0.165-0.377 0.367s0.17 0.367 0.377 0.367c0.208 0 0.377-0.165 0.377-0.367s-0.17-0.367-0.377-0.367zM13.044 16.619c-0.208 0-0.377 0.165-0.377 0.367s0.17 0.367 0.377 0.367c0.208 0 0.377-0.165 0.377-0.367s-0.17-0.367-0.377-0.367zM16.063 17.354c-0.208 0-0.377 0.165-0.377 0.367s0.17 0.367 0.377 0.367c0.208 0 0.377-0.165 0.377-0.367s-0.17-0.367-0.377-0.367zM11.912 17.721c-0.208 0-0.377 0.165-0.377 0.367s0.17 0.367 0.377 0.367c0.208 0 0.377-0.165 0.377-0.367s-0.17-0.367-0.377-0.367zM14.931 18.455c-0.208 0-0.377 0.165-0.377 0.367s0.17 0.367 0.377 0.367c0.208 0 0.377-0.165 0.377-0.367s-0.17-0.367-0.377-0.367zM10.78 18.822c-0.208 0-0.377 0.165-0.377 0.367s0.17 0.367 0.377 0.367c0.208 0 0.377-0.165 0.377-0.367s-0.17-0.367-0.377-0.367zM13.799 19.557c-0.208 0-0.377 0.165-0.377 0.367s0.17 0.367 0.377 0.367c0.208 0 0.377-0.165 0.377-0.367s-0.17-0.367-0.377-0.367zM9.648 19.924c-0.208 0-0.377 0.165-0.377 0.367s0.17 0.367 0.377 0.367c0.208 0 0.377-0.165 0.377-0.367s-0.17-0.367-0.377-0.367zM12.667 20.658c-0.208 0-0.377 0.165-0.377 0.367s0.17 0.367 0.377 0.367c0.208 0 0.377-0.165 0.377-0.367s-0.17-0.367-0.377-0.367zM8.516 21.392c-1.038 0-1.887 0.826-1.887 1.836s0.849 1.836 1.887 1.836c1.038 0 1.887-0.826 1.887-1.836s-0.849-1.836-1.887-1.836zM11.535 21.76c-0.208 0-0.377 0.165-0.377 0.367s0.17 0.367 0.377 0.367c0.208 0 0.377-0.165 0.377-0.367s-0.17-0.367-0.377-0.367zM8.516 22.127c0.629 0 1.132 0.489 1.132 1.102s-0.503 1.102-1.132 1.102c-0.629 0-1.132-0.489-1.132-1.102s0.503-1.102 1.132-1.102z"></path>
</svg>
